<svg width="19" height="23" viewBox="0 0 19 23" fill="none" xmlns="http://www.w3.org/2000/svg">
<path fillRule="evenodd" clipRule="evenodd" d="M12.5932 3.61115C13.3186 2.67468 13.8686 1.35108 13.6696 0C12.484 0.0823988 11.0981 0.841001 10.2894 1.82979C9.55227 2.72571 8.94643 4.05848 9.18305 5.35201C10.4792 5.39256 11.817 4.61563 12.5932 3.61115ZM19 16.3202C18.4813 17.4764 18.2317 17.993 17.5634 19.0171C16.6312 20.4467 15.3169 22.2268 13.6865 22.2398C12.2395 22.2555 11.8664 21.2916 9.90199 21.3034C7.93756 21.3138 7.52803 22.2581 6.07844 22.2437C4.44943 22.2293 3.20394 20.6232 2.27178 19.1937C-0.336197 15.1993 -0.610517 10.5104 0.997692 8.01622C2.14177 6.2453 3.94629 5.20943 5.6416 5.20943C7.36682 5.20943 8.45239 6.1616 9.88119 6.1616C11.2671 6.1616 12.1108 5.20682 14.1065 5.20682C15.6172 5.20682 17.2176 6.03473 18.3565 7.46297C14.6226 9.52163 15.2271 14.8854 19 16.3202Z" fill="#0B0B0A"/>
</svg>
