<svg width="16" height="17" viewBox="0 0 16 17" fill="none" xmlns="http://www.w3.org/2000/svg">
<path fillRule="evenodd" clipRule="evenodd" d="M9.81797 0.7492C8.05979 0.339215 6.2145 0.535572 4.58211 1.30639C2.94971 2.07721 1.62613 3.37721 0.826728 4.99514C0.0273153 6.61308 -0.200854 8.45372 0.17937 10.2177C0.559593 11.9817 1.52581 13.5652 2.92076 14.7107C4.31569 15.8563 6.05733 16.4965 7.86247 16.5276C8.85168 16.5446 9.31231 16.5409 10.0006 16.5354H10.0007C10.4429 16.5319 10.9791 16.5277 11.81 16.5277H12.6387V14.8702H11.81C10.9456 14.8702 10.4039 14.8746 9.96427 14.8781H9.96419C9.29574 14.8835 8.86325 14.887 7.89094 14.8703C6.4595 14.8457 5.07856 14.338 3.97265 13.4298C2.86676 12.5217 2.10097 11.2665 1.79963 9.86848C1.4983 8.47048 1.67911 7.01171 2.31271 5.72935C2.94632 4.44697 3.99552 3.41634 5.28983 2.80517C6.58416 2.19398 8.04739 2.03826 9.44157 2.36337C10.8357 2.68847 12.0787 3.47523 12.9685 4.59558C13.8582 5.7159 14.3424 7.10392 14.3425 8.53394V8.53399V9.2505C14.3425 9.60063 14.2033 9.93655 13.9554 10.1843C13.7074 10.4321 13.3709 10.5715 13.0199 10.5715C12.6689 10.5715 12.3324 10.4321 12.0844 10.1843C11.8364 9.93655 11.6972 9.60063 11.6972 9.2505V5.6677C11.6972 5.21 11.3262 4.83896 10.8685 4.83896C10.5005 4.83896 10.1885 5.07883 10.0804 5.41076C9.50433 5.00247 8.79591 4.76087 8.00036 4.76087C5.91184 4.76087 4.21875 6.45396 4.21875 8.54248C4.21875 10.631 5.91184 12.3241 8.00036 12.3241C9.10997 12.3241 10.0504 11.8545 10.6983 11.118C10.7652 11.201 10.8367 11.2807 10.9129 11.3568C11.4718 11.9153 12.2297 12.2289 13.0199 12.2289C13.8101 12.2289 14.568 11.9153 15.1269 11.3568C15.6859 10.7983 16 10.0406 16 9.2505V8.53394V8.53389C15.9999 6.72942 15.3889 4.97813 14.2664 3.56478C13.144 2.15144 11.5762 1.15919 9.81797 0.7492ZM5.87622 8.54248C5.87622 7.36935 6.82723 6.41834 8.00036 6.41834C9.12341 6.41834 9.99054 7.31866 9.99054 8.54353C9.99054 9.76761 9.12415 10.6666 8.00036 10.6666C6.82723 10.6666 5.87622 9.71561 5.87622 8.54248Z" fill="#6C7774"/>
</svg>
