<svg width="18" height="17" viewBox="0 0 18 17" fill="none" xmlns="http://www.w3.org/2000/svg">
<mask id="mask0_3308_18388" style="mask-type:alpha" maskUnits="userSpaceOnUse" x="0" y="0" width="18" height="17">
<path fill-rule="evenodd" clip-rule="evenodd" d="M14.7243 13.3218C16.38 11.6641 17.3479 9.93753 17.3479 7.92706C17.3479 3.84729 13.6107 0.540039 8.99995 0.540039C4.38933 0.540039 0.6521 3.84729 0.6521 7.92718C0.6521 12.0071 4.38925 14.9591 8.99999 14.9591V15.971C8.99999 16.3997 9.44473 16.6756 9.82188 16.4713C11.0002 15.8332 13.3046 14.743 14.7243 13.3218ZM4.94485 6.93089C5.60381 6.93089 6.13796 7.4609 6.13796 8.11375C6.13796 8.76789 5.60381 9.29786 4.94485 9.29786C4.28702 9.29786 3.75284 8.76789 3.75284 8.11375C3.75284 7.4609 4.28702 6.93089 4.94485 6.93089ZM10.1926 8.11375C10.1926 7.4609 9.65863 6.93089 8.99999 6.93089C8.34144 6.93089 7.80745 7.4609 7.80745 8.11375C7.80749 8.76789 8.34148 9.29786 8.99999 9.29786C9.65863 9.29786 10.1926 8.76789 10.1926 8.11375ZM13.055 6.93089C13.7138 6.93089 14.2472 7.4609 14.2472 8.11375C14.2472 8.76789 13.7139 9.29786 13.055 9.29786C12.3961 9.29786 11.862 8.76789 11.8621 8.11375C11.8621 7.4609 12.3962 6.93089 13.055 6.93089Z" fill="white"/>
</mask>
<g mask="url(#mask0_3308_18388)">
<rect x="-0.359863" y="0.540039" width="18.2136" height="16.1899" fill="#6C7774"/>
</g>
</svg>
