<svg width="18" height="18" viewBox="0 0 18 18" fill="none" xmlns="http://www.w3.org/2000/svg">
<path fill-rule="evenodd" clip-rule="evenodd" d="M9 18C13.9706 18 18 13.9706 18 9C18 4.02944 13.9706 0 9 0C4.02944 0 0 4.02944 0 9C0 13.9706 4.02944 18 9 18ZM7.18297 12.4391C7.85594 12.813 8.60042 13 9.4164 13C11.0063 13 12.2008 12.287 13 10.8609L11.4606 10.0913C11.2755 10.4652 11.0021 10.7696 10.6404 11.0043C10.2787 11.2391 9.87066 11.3565 9.4164 11.3565C8.93691 11.3565 8.49947 11.2348 8.1041 10.9913C7.70873 10.7391 7.39748 10.3957 7.17035 9.96087C6.95163 9.52609 6.84227 9.03913 6.84227 8.5C6.84227 7.96087 6.95163 7.47391 7.17035 7.03913C7.39748 6.60435 7.70873 6.26522 8.1041 6.02174C8.49947 5.76957 8.93691 5.64348 9.4164 5.64348C9.86225 5.64348 10.266 5.76522 10.6278 6.0087C10.9979 6.24348 11.2755 6.54348 11.4606 6.9087L13 6.12609C12.6551 5.5 12.1924 4.9913 11.612 4.6C11.0315 4.2 10.2997 4 9.4164 4C8.60042 4 7.85594 4.1913 7.18297 4.57391C6.50999 4.94783 5.97581 5.47826 5.58044 6.16522C5.19348 6.85217 5 7.63043 5 8.5C5 9.36957 5.19348 10.1478 5.58044 10.8348C5.97581 11.5217 6.50999 12.0565 7.18297 12.4391Z" fill="#6C7774"/>
</svg>
