<svg width="14" height="14" viewBox="0 0 14 14" fill="none" xmlns="http://www.w3.org/2000/svg">
<path fillRule="evenodd" clipRule="evenodd" d="M7 14C10.866 14 14 10.866 14 7C14 3.13401 10.866 0 7 0C3.13401 0 0 3.13401 0 7C0 10.866 3.13401 14 7 14ZM10.0312 4.37788C10.2823 4.64722 10.2674 5.06907 9.99807 5.32011L8.04734 7.13827L9.86547 9.08901C10.1165 9.35834 10.1017 9.78021 9.83234 10.0312C9.56301 10.2823 9.14114 10.2674 8.89014 9.99807L7.07194 8.04734L5.12121 9.86547C4.85186 10.1165 4.43001 10.1017 4.17898 9.83234C3.92795 9.56301 3.94279 9.14114 4.21213 8.89014L6.16288 7.07194L4.34473 5.12121C4.09369 4.85186 4.10853 4.43001 4.37788 4.17898C4.64722 3.92795 5.06907 3.94279 5.32011 4.21213L7.13827 6.16288L9.08901 4.34473C9.35834 4.09369 9.78021 4.10853 10.0312 4.37788Z" fill="#BFBFBF"/>
</svg>
