<svg width="12" height="10" viewBox="0 0 12 10" fill="none" xmlns="http://www.w3.org/2000/svg">
<path d="M9.81971 1.4636C8.87688 0.812353 7.52623 0.125 6 0.125C4.47378 0.125 3.12312 0.812353 2.1803 1.4636C1.70413 1.79252 1.31943 2.1209 1.05314 2.36757C0.923213 2.48793 0.710819 2.70595 0.633403 2.78541L0.627512 2.79146C0.443303 2.99718 0.460742 3.31328 0.666464 3.49749C0.872045 3.68158 1.18786 3.66429 1.37212 3.45896L1.37251 3.45853C1.43378 3.39565 1.61309 3.21199 1.73271 3.10118C1.97245 2.8791 2.31999 2.58248 2.74864 2.2864C3.61546 1.68765 4.76481 1.125 6 1.125C7.2352 1.125 8.38455 1.68765 9.25137 2.2864C9.68002 2.58248 10.0276 2.8791 10.2673 3.10118C10.3869 3.21199 10.5666 3.39608 10.6279 3.45896C10.8122 3.66429 11.128 3.68158 11.3335 3.49749C11.5393 3.31328 11.5567 2.99718 11.3725 2.79146L11.3665 2.78535C11.2891 2.70584 11.0768 2.4879 10.9469 2.36757C10.6806 2.1209 10.2959 1.79252 9.81971 1.4636Z" fill="white"/>
<path fillRule="evenodd" clipRule="evenodd" d="M6 2.125C4.71472 2.125 3.61298 2.6907 2.76015 3.35649C1.90656 4.02288 1.24902 4.84698 0.896096 5.34187C0.769518 5.51791 0.625 5.7189 0.625 6C0.625 6.2811 0.769518 6.48209 0.896096 6.65813C1.24902 7.15302 1.90657 7.97712 2.76015 8.64351C3.61298 9.3093 4.71472 9.875 6 9.875C7.28528 9.875 8.38702 9.3093 9.23985 8.64351C10.0934 7.97712 10.751 7.15302 11.1039 6.65813C11.2305 6.48209 11.375 6.2811 11.375 6C11.375 5.7189 11.2305 5.51791 11.1039 5.34187C10.751 4.84698 10.0934 4.02288 9.23985 3.35649C8.38702 2.6907 7.28528 2.125 6 2.125ZM5 6C5 6.55229 5.44772 7 6 7C6.55229 7 7 6.55229 7 6C7 5.44772 6.55229 5 6 5C5.44772 5 5 5.44772 5 6ZM6 8C4.89543 8 4 7.10457 4 6C4 4.89543 4.89543 4 6 4C7.10457 4 8 4.89543 8 6C8 7.10457 7.10457 8 6 8Z" fill="white"/>
</svg>
