<svg width="21" height="21" viewBox="0 0 21 21" fill="none" xmlns="http://www.w3.org/2000/svg">
<path fillRule="evenodd" clipRule="evenodd" d="M4.30161 10.4953C4.30161 9.81328 4.41489 9.15941 4.61706 8.5461L1.07827 5.84375C0.388579 7.24409 0 8.82197 0 10.4953C0 12.1672 0.388101 13.7441 1.07684 15.1435L4.61372 12.4359C4.41345 11.8255 4.30161 11.174 4.30161 10.4953Z" fill="#FBBC05"/>
<path fillRule="evenodd" clipRule="evenodd" d="M10.5169 4.29551C11.9985 4.29551 13.3368 4.82052 14.3883 5.67962L17.4472 2.62503C15.5832 1.00229 13.1934 0 10.5169 0C6.3615 0 2.79021 2.37637 1.08008 5.84858L4.61887 8.55093C5.43427 6.07576 7.75857 4.29551 10.5169 4.29551Z" fill="#EB4335"/>
<path fillRule="evenodd" clipRule="evenodd" d="M10.5169 16.7046C7.75857 16.7046 5.43427 14.9244 4.61887 12.4492L1.08008 15.1511C2.79021 18.6238 6.3615 21.0001 10.5169 21.0001C13.0816 21.0001 15.5302 20.0895 17.3679 18.3832L14.0088 15.7864C13.061 16.3834 11.8676 16.7046 10.5169 16.7046Z" fill="#34A853"/>
<path fillRule="evenodd" clipRule="evenodd" d="M20.5517 10.499C20.5517 9.8785 20.4562 9.21031 20.3128 8.58984H10.5146V12.6467H16.1545C15.8725 14.0299 15.1049 15.0932 14.0066 15.7853L17.3657 18.3822C19.2962 16.5905 20.5517 13.9215 20.5517 10.499Z" fill="#4285F4"/>
</svg>
