<svg width="29" height="32" viewBox="0 0 29 32" fill="none" xmlns="http://www.w3.org/2000/svg">
<mask id="path-1-outside-1_2435_29930" maskUnits="userSpaceOnUse" x="0" y="0" width="29" height="32" fill="black">
<rect fill="white" width="29" height="32"/>
<path fill-rule="evenodd" clip-rule="evenodd" d="M14.2667 1L14.2666 1.00008L14.2666 1V1.00017C14.2435 1.04826 9.25347 11.4778 13.0441 21.9241C12.9684 21.7627 12.8925 21.6062 12.8154 21.4543C11.9669 19.7815 10.9704 18.652 8.33452 17.3311C5.57738 16.0386 3.31444 13.8838 1.88672 11.1914L1.88696 11.1955L1.88477 11.1914L1.88865 11.224C2.38376 19.4487 8.04581 22.7303 11.5384 23.9785C9.45866 23.5528 6.21303 23.092 1.88089 23.0822C1.5946 23.0815 1.30357 23.0829 1.00781 23.0863L1 23.0864C1 23.0864 2.87178 27.3691 14.2666 25.4601V25.4622C25.6633 27.3703 27.5333 23.0885 27.5333 23.0885L27.5264 23.0884L27.5333 23.0842C22.7528 23.0297 19.2061 23.5258 16.9886 23.9809C20.4832 22.7337 26.1582 19.4492 26.6463 11.2057L26.6479 11.1914L26.647 11.1932L26.6471 11.1914C25.2194 13.8838 22.9564 16.0386 20.1993 17.3311C18.9506 17.9563 18.0699 18.5386 17.3986 19.1559C17.3207 19.2276 17.2455 19.2997 17.1729 19.3725C16.4311 20.1164 15.9586 20.9223 15.4905 21.9205C19.2787 11.4754 14.2897 1.04826 14.2667 1.00017V1ZM14.2667 24.6916L14.2673 24.6914L14.2714 24.6823L14.2667 24.6913V24.6916ZM14.2655 24.6891L14.2645 24.6872L14.2653 24.6891L14.2655 24.6891ZM10.4578 28.373C10.3734 28.186 10.3169 27.9876 10.29 27.7842C14.2005 29.3737 18.3434 27.1953 18.3434 27.1953C18.3148 27.5004 18.2536 27.8016 18.1611 28.0937C17.821 28.5241 17.3985 28.8821 16.9183 29.1466C16.4381 29.4111 15.9099 29.5767 15.3648 29.6339C16.0999 29.7935 16.8681 29.6626 17.5092 29.2687C17.1945 29.8402 16.72 30.3073 16.1438 30.6124C15.5676 30.9174 14.915 31.0473 14.2661 30.9859C13.697 31.0125 13.1298 30.9021 12.6122 30.6638C12.0945 30.4255 11.6415 30.0663 11.2911 29.6165C11.5976 29.7946 11.9365 29.9098 12.2879 29.9554C12.6393 30.001 12.9963 29.9761 13.338 29.8822C12.2327 29.7273 11.215 29.194 10.4578 28.373Z"/>
</mask>
<path fill-rule="evenodd" clip-rule="evenodd" d="M14.2667 1L14.2666 1.00008L14.2666 1V1.00017C14.2435 1.04826 9.25347 11.4778 13.0441 21.9241C12.9684 21.7627 12.8925 21.6062 12.8154 21.4543C11.9669 19.7815 10.9704 18.652 8.33452 17.3311C5.57738 16.0386 3.31444 13.8838 1.88672 11.1914L1.88696 11.1955L1.88477 11.1914L1.88865 11.224C2.38376 19.4487 8.04581 22.7303 11.5384 23.9785C9.45866 23.5528 6.21303 23.092 1.88089 23.0822C1.5946 23.0815 1.30357 23.0829 1.00781 23.0863L1 23.0864C1 23.0864 2.87178 27.3691 14.2666 25.4601V25.4622C25.6633 27.3703 27.5333 23.0885 27.5333 23.0885L27.5264 23.0884L27.5333 23.0842C22.7528 23.0297 19.2061 23.5258 16.9886 23.9809C20.4832 22.7337 26.1582 19.4492 26.6463 11.2057L26.6479 11.1914L26.647 11.1932L26.6471 11.1914C25.2194 13.8838 22.9564 16.0386 20.1993 17.3311C18.9506 17.9563 18.0699 18.5386 17.3986 19.1559C17.3207 19.2276 17.2455 19.2997 17.1729 19.3725C16.4311 20.1164 15.9586 20.9223 15.4905 21.9205C19.2787 11.4754 14.2897 1.04826 14.2667 1.00017V1ZM14.2667 24.6916L14.2673 24.6914L14.2714 24.6823L14.2667 24.6913V24.6916ZM14.2655 24.6891L14.2645 24.6872L14.2653 24.6891L14.2655 24.6891ZM10.4578 28.373C10.3734 28.186 10.3169 27.9876 10.29 27.7842C14.2005 29.3737 18.3434 27.1953 18.3434 27.1953C18.3148 27.5004 18.2536 27.8016 18.1611 28.0937C17.821 28.5241 17.3985 28.8821 16.9183 29.1466C16.4381 29.4111 15.9099 29.5767 15.3648 29.6339C16.0999 29.7935 16.8681 29.6626 17.5092 29.2687C17.1945 29.8402 16.72 30.3073 16.1438 30.6124C15.5676 30.9174 14.915 31.0473 14.2661 30.9859C13.697 31.0125 13.1298 30.9021 12.6122 30.6638C12.0945 30.4255 11.6415 30.0663 11.2911 29.6165C11.5976 29.7946 11.9365 29.9098 12.2879 29.9554C12.6393 30.001 12.9963 29.9761 13.338 29.8822C12.2327 29.7273 11.215 29.194 10.4578 28.373Z" fill="#32B744"/>
<path d="M14.2666 1.00008L13.7257 1.25974C13.8256 1.46776 14.0359 1.60008 14.2666 1.60008C14.4974 1.60008 14.7077 1.46776 14.8075 1.25974L14.2666 1.00008ZM14.2667 1H14.8667C14.8667 0.719928 14.6729 0.477112 14.3998 0.41496C14.1267 0.352808 13.847 0.487855 13.7258 0.740342L14.2667 1ZM14.2666 1L14.8075 0.740342C14.6863 0.487855 14.4065 0.352808 14.1335 0.41496C13.8604 0.477112 13.6666 0.719928 13.6666 1L14.2666 1ZM14.2666 1.00017L14.8076 1.25955C14.8465 1.17859 14.8666 1.08995 14.8666 1.00017H14.2666ZM13.0441 21.9241L12.5009 22.179C12.6372 22.4694 12.9778 22.6013 13.2741 22.4783C13.5704 22.3554 13.7176 22.0211 13.6081 21.7195L13.0441 21.9241ZM12.8154 21.4543L12.2803 21.7257L12.2803 21.7257L12.8154 21.4543ZM8.33452 17.3311L8.60333 16.7947C8.59865 16.7924 8.59394 16.7901 8.58919 16.7879L8.33452 17.3311ZM1.88672 11.1914L2.4168 10.9103C2.28462 10.661 1.99662 10.5375 1.72493 10.6136C1.45323 10.6897 1.27125 10.9448 1.28774 11.2265L1.88672 11.1914ZM1.88696 11.1955L1.35691 11.4767C1.48912 11.7259 1.77711 11.8494 2.04879 11.7733C2.32047 11.6972 2.50243 11.4421 2.48594 11.1605L1.88696 11.1955ZM1.88477 11.1914L2.41481 10.9102C2.27943 10.655 1.98137 10.5325 1.70563 10.6188C1.42989 10.705 1.25478 10.9756 1.28899 11.2624L1.88477 11.1914ZM1.88865 11.224L2.48757 11.188C2.48687 11.1763 2.48582 11.1646 2.48443 11.153L1.88865 11.224ZM11.5384 23.9785L11.4181 24.5663C11.7266 24.6294 12.0314 24.4433 12.1162 24.14C12.201 23.8367 12.0368 23.5194 11.7403 23.4135L11.5384 23.9785ZM1.88089 23.0822L1.88226 22.4822H1.88225L1.88089 23.0822ZM1.00781 23.0863L1.00086 22.4863L1.00078 22.4863L1.00781 23.0863ZM1 23.0864L0.99297 22.4864C0.791784 22.4888 0.605172 22.5918 0.496003 22.7608C0.386833 22.9298 0.36964 23.1423 0.450216 23.3267L1 23.0864ZM14.2666 25.4601H14.8666C14.8666 25.2837 14.7889 25.1162 14.6542 25.0022C14.5195 24.8882 14.3415 24.8392 14.1675 24.8684L14.2666 25.4601ZM14.2666 25.4622H13.6666C13.6666 25.7554 13.8784 26.0056 14.1675 26.054L14.2666 25.4622ZM27.5333 23.0885L28.0832 23.3286C28.1637 23.1443 28.1465 22.9318 28.0373 22.7629C27.9281 22.5939 27.7416 22.4909 27.5404 22.4885L27.5333 23.0885ZM27.5264 23.0884L27.2154 22.5753C26.9863 22.7141 26.877 22.988 26.9476 23.2464C27.0181 23.5049 27.2514 23.6852 27.5193 23.6884L27.5264 23.0884ZM27.5333 23.0842L27.8443 23.5973C28.0734 23.4584 28.1827 23.1845 28.1121 22.926C28.0415 22.6676 27.8081 22.4873 27.5402 22.4842L27.5333 23.0842ZM16.9886 23.9809L16.7869 23.4158C16.4902 23.5217 16.3259 23.8391 16.4107 24.1425C16.4955 24.4459 16.8006 24.632 17.1092 24.5687L16.9886 23.9809ZM26.6463 11.2057L26.0503 11.1359C26.049 11.1473 26.048 11.1587 26.0473 11.1702L26.6463 11.2057ZM26.6479 11.1914L27.2439 11.2612C27.2774 10.9745 27.1022 10.7046 26.8266 10.6186C26.5511 10.5327 26.2535 10.655 26.1181 10.9099L26.6479 11.1914ZM26.647 11.1932L26.048 11.158C26.0315 11.4396 26.2134 11.6947 26.485 11.7709C26.7566 11.847 27.0445 11.7238 27.1769 11.4746L26.647 11.1932ZM26.6471 11.1914L27.2461 11.2265C27.2626 10.9449 27.0806 10.6897 26.8089 10.6136C26.5372 10.5375 26.2492 10.661 26.117 10.9103L26.6471 11.1914ZM20.1993 17.3311L19.9446 16.7879C19.9399 16.79 19.9353 16.7923 19.9307 16.7946L20.1993 17.3311ZM17.3986 19.1559L16.9925 18.7142V18.7142L17.3986 19.1559ZM17.1729 19.3725L17.5978 19.7962L17.5978 19.7962L17.1729 19.3725ZM15.4905 21.9205L14.9264 21.7159C14.8171 22.0175 14.9643 22.3518 15.2606 22.4747C15.5569 22.5976 15.8975 22.4657 16.0337 22.1752L15.4905 21.9205ZM14.2667 1.00017H13.6667C13.6667 1.08995 13.6868 1.17859 13.7256 1.25955L14.2667 1.00017ZM14.2673 24.6914L14.4756 25.254C14.626 25.1984 14.7479 25.0848 14.814 24.9387L14.2673 24.6914ZM14.2667 24.6916H13.6667C13.6667 24.8879 13.7628 25.0719 13.9239 25.184C14.0851 25.2962 14.2909 25.3224 14.475 25.2543L14.2667 24.6916ZM14.2714 24.6823L14.8181 24.9296C14.9518 24.6339 14.8263 24.2855 14.5347 24.1431C14.2432 24.0007 13.8912 24.1159 13.7403 24.4032L14.2714 24.6823ZM14.2667 24.6913L13.7356 24.4122C13.6903 24.4982 13.6667 24.594 13.6667 24.6913H14.2667ZM14.2645 24.6872L14.7956 24.4082C14.6447 24.1209 14.2927 24.0056 14.0011 24.1481C13.7095 24.2906 13.584 24.6391 13.7179 24.9347L14.2645 24.6872ZM14.2655 24.6891L14.0548 25.2509C14.2879 25.3383 14.5507 25.2727 14.7154 25.0861C14.8801 24.8994 14.9124 24.6305 14.7966 24.4101L14.2655 24.6891ZM14.2653 24.6891L13.7187 24.9366C13.7845 25.0818 13.9054 25.1949 14.0546 25.2509L14.2653 24.6891ZM10.29 27.7842L10.516 27.2284C10.318 27.1479 10.0922 27.1788 9.92309 27.3095C9.75402 27.4402 9.66721 27.6509 9.69521 27.8628L10.29 27.7842ZM10.4578 28.373L9.91085 28.6197C9.93733 28.6784 9.97308 28.7325 10.0167 28.7798L10.4578 28.373ZM18.3434 27.1953L18.9408 27.2515C18.9614 27.0322 18.8603 26.8194 18.6774 26.6968C18.4944 26.5743 18.2591 26.5618 18.0642 26.6642L18.3434 27.1953ZM18.1611 28.0937L18.6319 28.4656C18.6769 28.4087 18.7111 28.3441 18.733 28.2749L18.1611 28.0937ZM15.3648 29.6339L15.3023 29.0371C15.0092 29.0678 14.7818 29.3068 14.7657 29.601C14.7496 29.8953 14.9495 30.1577 15.2375 30.2202L15.3648 29.6339ZM17.5092 29.2687L18.0348 29.558C18.1661 29.3194 18.1203 29.0223 17.9232 28.8344C17.726 28.6464 17.4271 28.6149 17.195 28.7575L17.5092 29.2687ZM16.1438 30.6124L16.4246 31.1426L16.4246 31.1426L16.1438 30.6124ZM14.2661 30.9859L14.3226 30.3886C14.2945 30.3859 14.2663 30.3853 14.2381 30.3866L14.2661 30.9859ZM12.6122 30.6638L12.8631 30.1188L12.6122 30.6638ZM11.2911 29.6165L11.5926 29.0977C11.3441 28.9533 11.0281 29.0054 10.8391 29.2219C10.6501 29.4383 10.6412 29.7584 10.8178 29.9852L11.2911 29.6165ZM12.2879 29.9554L12.2107 30.5504H12.2107L12.2879 29.9554ZM13.338 29.8822L13.4971 30.4607C13.7715 30.3852 13.9551 30.1274 13.9367 29.8434C13.9184 29.5595 13.7031 29.3275 13.4213 29.288L13.338 29.8822ZM14.8075 1.25974L14.8076 1.25966L13.7258 0.740342L13.7257 0.740426L14.8075 1.25974ZM13.7257 1.25966L13.7257 1.25974L14.8075 0.740426L14.8075 0.740342L13.7257 1.25966ZM14.8666 1.00017V1H13.6666V1.00017H14.8666ZM13.6081 21.7195C11.763 16.6345 12.0497 11.5354 12.8138 7.67945C13.5773 3.8263 14.8091 1.25659 14.8076 1.25955L13.7256 0.74078C13.7011 0.791841 12.4263 3.46097 11.6367 7.44621C10.8476 11.4286 10.5346 16.7675 12.4801 22.1288L13.6081 21.7195ZM12.2803 21.7257C12.3541 21.8712 12.4273 22.022 12.5009 22.179L13.5873 21.6693C13.5095 21.5034 13.4309 21.3413 13.3505 21.1828L12.2803 21.7257ZM8.06571 17.8675C9.35135 18.5118 10.2031 19.0927 10.83 19.6938C11.4519 20.2902 11.8764 20.9294 12.2803 21.7257L13.3505 21.1828C12.9059 20.3063 12.408 19.5444 11.6605 18.8277C10.918 18.1157 9.95359 17.4714 8.60333 16.7947L8.06571 17.8675ZM1.35664 11.4725C2.84526 14.2797 5.2048 16.5266 8.07985 17.8744L8.58919 16.7879C5.94995 15.5506 3.78363 13.4879 2.4168 10.9103L1.35664 11.4725ZM2.48594 11.1605L2.48569 11.1563L1.28774 11.2265L1.28799 11.2306L2.48594 11.1605ZM1.35472 11.4726L1.35691 11.4767L2.41701 10.9144L2.41481 10.9102L1.35472 11.4726ZM2.48443 11.153L2.48055 11.1204L1.28899 11.2624L1.29287 11.295L2.48443 11.153ZM11.7403 23.4135C8.3578 22.2047 2.96204 19.0698 2.48757 11.188L1.28974 11.2601C1.80549 19.8276 7.73383 23.256 11.3364 24.5435L11.7403 23.4135ZM1.87953 23.6822C6.16956 23.692 9.37533 24.1482 11.4181 24.5663L11.6587 23.3906C9.54198 22.9574 6.2565 22.4921 1.88226 22.4822L1.87953 23.6822ZM1.01477 23.6862C1.30774 23.6829 1.596 23.6815 1.87953 23.6822L1.88225 22.4822C1.5932 22.4815 1.2994 22.4829 1.00086 22.4863L1.01477 23.6862ZM1.00703 23.6863L1.01484 23.6862L1.00078 22.4863L0.99297 22.4864L1.00703 23.6863ZM14.1675 24.8684C8.54126 25.8109 5.35243 25.2097 3.60175 24.4399C2.72781 24.0556 2.20358 23.6259 1.90526 23.3122C1.75542 23.1547 1.66059 23.0243 1.60627 22.9405C1.57908 22.8985 1.56196 22.868 1.55314 22.8515C1.54873 22.8432 1.54639 22.8385 1.5459 22.8375C1.54566 22.837 1.54588 22.8374 1.54654 22.8388C1.54686 22.8395 1.5473 22.8405 1.54784 22.8417C1.54812 22.8423 1.54841 22.843 1.54874 22.8437C1.5489 22.8441 1.54916 22.8447 1.54924 22.8449C1.54951 22.8455 1.54978 22.8461 1 23.0864C0.450216 23.3267 0.450505 23.3273 0.450802 23.328C0.450911 23.3282 0.451217 23.3289 0.451436 23.3294C0.451875 23.3304 0.452346 23.3315 0.452849 23.3326C0.453856 23.3349 0.454993 23.3374 0.456264 23.3401C0.458806 23.3457 0.461885 23.3522 0.465531 23.3598C0.472824 23.3748 0.482386 23.3939 0.494466 23.4165C0.518626 23.4618 0.552848 23.5215 0.599094 23.5929C0.691655 23.7358 0.832077 23.9251 1.03576 24.1392C1.44449 24.569 2.10038 25.0906 3.11873 25.5384C5.15266 26.4327 8.59712 27.0183 14.3657 26.0519L14.1675 24.8684ZM14.8666 25.4622V25.4601H13.6666V25.4622H14.8666ZM27.5333 23.0885C26.9835 22.8483 26.9837 22.8477 26.984 22.8471C26.9841 22.8469 26.9844 22.8463 26.9845 22.846C26.9848 22.8452 26.9851 22.8446 26.9854 22.844C26.986 22.8427 26.9864 22.8418 26.9867 22.8411C26.9874 22.8396 26.9876 22.8392 26.9874 22.8397C26.9869 22.8407 26.9845 22.8455 26.9801 22.8537C26.9713 22.8702 26.9542 22.9007 26.9271 22.9426C26.8728 23.0265 26.778 23.1567 26.6283 23.3142C26.3301 23.6278 25.8061 24.0574 24.9322 24.4416C23.1818 25.2113 19.9929 25.8126 14.3657 24.8705L14.1675 26.054C19.937 27.0199 23.3815 26.4344 25.4152 25.5401C26.4335 25.0924 27.0892 24.5709 27.4979 24.1412C27.7015 23.927 27.8418 23.7377 27.9344 23.5948C27.9806 23.5234 28.0148 23.4637 28.0389 23.4185C28.051 23.3958 28.0606 23.3768 28.0679 23.3617C28.0715 23.3542 28.0746 23.3476 28.0771 23.3421C28.0784 23.3393 28.0795 23.3368 28.0805 23.3346C28.081 23.3334 28.0815 23.3324 28.082 23.3314C28.0822 23.3309 28.0825 23.3302 28.0826 23.33C28.0829 23.3293 28.0832 23.3286 27.5333 23.0885ZM27.5193 23.6884L27.5262 23.6884L27.5404 22.4885L27.5335 22.4884L27.5193 23.6884ZM27.2223 22.5711L27.2154 22.5753L27.8374 23.6015L27.8443 23.5973L27.2223 22.5711ZM17.1092 24.5687C19.2872 24.1217 22.7911 23.6302 27.5265 23.6842L27.5402 22.4842C22.7144 22.4293 19.125 22.9299 16.8679 23.3932L17.1092 24.5687ZM26.0473 11.1702C25.5795 19.0703 20.1714 22.2079 16.7869 23.4158L17.1902 24.546C20.7949 23.2595 26.7368 19.8281 27.2452 11.2411L26.0473 11.1702ZM26.052 11.1216L26.0503 11.1359L27.2422 11.2754L27.2439 11.2612L26.052 11.1216ZM27.1769 11.4746L27.1778 11.4729L26.1181 10.9099L26.1171 10.9117L27.1769 11.4746ZM26.0481 11.1563L26.048 11.158L27.246 11.2283L27.2461 11.2265L26.0481 11.1563ZM20.454 17.8744C23.329 16.5266 25.6886 14.2797 27.1772 11.4725L26.117 10.9103C24.7502 13.4879 22.5839 15.5506 19.9446 16.7879L20.454 17.8744ZM17.8048 19.5975C18.4214 19.0305 19.2498 18.4775 20.4679 17.8676L19.9307 16.7946C18.6515 17.4351 17.7184 18.0467 16.9925 18.7142L17.8048 19.5975ZM17.5978 19.7962C17.6642 19.7296 17.7331 19.6634 17.8048 19.5975L16.9925 18.7142C16.9082 18.7917 16.8268 18.8699 16.7481 18.9488L17.5978 19.7962ZM16.0337 22.1752C16.4878 21.2069 16.9252 20.4706 17.5978 19.7962L16.7481 18.9488C15.9369 19.7622 15.4293 20.6378 14.9473 21.6658L16.0337 22.1752ZM13.7256 1.25955C13.7242 1.25659 14.9557 3.8257 15.7192 7.67811C16.4833 11.5333 16.7704 16.6316 14.9264 21.7159L16.0545 22.1251C17.9987 16.7643 17.6855 11.4264 16.8963 7.44482C16.1067 3.46035 14.8322 0.791836 14.8077 0.740782L13.7256 1.25955ZM13.6667 1V1.00017H14.8667V1H13.6667ZM14.059 24.1287L14.0584 24.1289L14.475 25.2543L14.4756 25.254L14.059 24.1287ZM13.7248 24.4349L13.7206 24.4441L14.814 24.9387L14.8181 24.9296L13.7248 24.4349ZM14.7978 24.9703L14.8026 24.9613L13.7403 24.4032L13.7356 24.4122L14.7978 24.9703ZM14.8667 24.6916V24.6913H13.6667V24.6916H14.8667ZM13.7333 24.9662L13.7343 24.9682L14.7966 24.4101L14.7956 24.4082L13.7333 24.9662ZM14.8119 24.4416L14.811 24.4397L13.7179 24.9347L13.7187 24.9366L14.8119 24.4416ZM14.4761 24.1273L14.476 24.1273L14.0546 25.2509L14.0548 25.2509L14.4761 24.1273ZM9.69521 27.8628C9.72976 28.1243 9.80241 28.3793 9.91085 28.6197L11.0047 28.1263C10.9445 27.9927 10.9041 27.851 10.8849 27.7056L9.69521 27.8628ZM18.3434 27.1953C18.0642 26.6642 18.0644 26.6642 18.0645 26.6641C18.0645 26.6641 18.0647 26.664 18.0647 26.664C18.0648 26.6639 18.0649 26.6639 18.0649 26.6639C18.0649 26.6639 18.0646 26.664 18.0641 26.6643C18.063 26.6648 18.061 26.6659 18.0581 26.6674C18.0521 26.6705 18.0423 26.6754 18.0288 26.6822C18.0017 26.6956 17.9597 26.7161 17.9039 26.7422C17.7923 26.7943 17.6257 26.8685 17.4126 26.9536C16.9856 27.124 16.3759 27.3361 15.6504 27.5007C14.191 27.8318 12.3147 27.9595 10.516 27.2284L10.0641 28.34C12.1758 29.1984 14.3262 29.0316 15.9159 28.6709C16.7149 28.4896 17.3853 28.2565 17.8574 28.0681C18.0938 27.9738 18.2814 27.8903 18.4116 27.8295C18.4768 27.7991 18.5276 27.7743 18.5631 27.7566C18.5809 27.7478 18.5948 27.7407 18.6048 27.7356C18.6098 27.7331 18.6138 27.731 18.6167 27.7295C18.6182 27.7287 18.6195 27.728 18.6205 27.7275C18.621 27.7273 18.6214 27.727 18.6218 27.7269C18.6219 27.7268 18.6222 27.7266 18.6223 27.7266C18.6225 27.7265 18.6227 27.7264 18.3434 27.1953ZM18.733 28.2749C18.8385 27.9421 18.9081 27.599 18.9408 27.2515L17.7461 27.1392C17.7214 27.4018 17.6688 27.661 17.5891 27.9125L18.733 28.2749ZM17.2078 29.6721C17.7581 29.369 18.2423 28.9588 18.6319 28.4656L17.6903 27.7217C17.3998 28.0894 17.0389 28.3951 16.6288 28.621L17.2078 29.6721ZM15.4273 30.2306C16.0521 30.1651 16.6574 29.9752 17.2078 29.6721L16.6288 28.621C16.2187 28.8469 15.7677 28.9884 15.3023 29.0371L15.4273 30.2306ZM17.195 28.7575C16.6858 29.0704 16.0758 29.1743 15.4921 29.0475L15.2375 30.2202C16.124 30.4127 17.0504 30.2549 17.8233 29.7798L17.195 28.7575ZM16.4246 31.1426C17.1042 30.7827 17.6638 30.2319 18.0348 29.558L16.9836 28.9793C16.7253 29.4485 16.3357 29.8318 15.863 30.0821L16.4246 31.1426ZM14.2097 31.5833C14.9751 31.6556 15.745 31.5025 16.4246 31.1426L15.863 30.0821C15.3903 30.3324 14.8549 30.4389 14.3226 30.3886L14.2097 31.5833ZM12.3613 31.2088C12.9662 31.4873 13.629 31.6164 14.2941 31.5853L14.2381 30.3866C13.765 30.4087 13.2934 30.3169 12.8631 30.1188L12.3613 31.2088ZM10.8178 29.9852C11.2271 30.5107 11.7564 30.9304 12.3613 31.2088L12.8631 30.1188C12.4327 29.9206 12.0559 29.622 11.7645 29.2478L10.8178 29.9852ZM12.3651 29.3604C12.0928 29.3251 11.8302 29.2358 11.5926 29.0977L10.9897 30.1352C11.365 30.3534 11.7801 30.4946 12.2107 30.5504L12.3651 29.3604ZM13.1789 29.3036C12.9141 29.3765 12.6374 29.3958 12.3651 29.3604L12.2107 30.5504C12.6412 30.6063 13.0785 30.5758 13.4971 30.4607L13.1789 29.3036ZM10.0167 28.7798C10.8679 29.7027 12.012 30.3022 13.2547 30.4764L13.4213 29.288C12.4534 29.1523 11.5621 28.6854 10.8988 27.9662L10.0167 28.7798Z" fill="#32B744" mask="url(#path-1-outside-1_2435_29930)"/>
</svg>
