<svg width="18" height="12" viewBox="0 0 18 12" fill="none" xmlns="http://www.w3.org/2000/svg">
<path fillRule="evenodd" clipRule="evenodd" d="M10.3116 10.1725C11.3568 9.09274 12 7.62148 12 6C12 4.37852 11.3568 2.90726 10.3116 1.82746C10.833 1.61629 11.4029 1.5 12 1.5C14.4853 1.5 16.5 3.51472 16.5 6C16.5 8.48528 14.4853 10.5 12 10.5C11.4029 10.5 10.833 10.3837 10.3116 10.1725ZM9 0.802694C8.11748 0.292183 7.09286 0 6 0C2.68629 0 0 2.68629 0 6C0 9.31371 2.68629 12 6 12C7.09286 12 8.11748 11.7078 9 11.1973C9.88252 11.7078 10.9071 12 12 12C15.3137 12 18 9.31371 18 6C18 2.68629 15.3137 0 12 0C10.9071 0 9.88252 0.292183 9 0.802694Z" fill="#6C7774"/>
</svg>
