<svg width="36" height="36" viewBox="0 0 36 36" fill="none" xmlns="http://www.w3.org/2000/svg">
<mask id="path-1-outside-1_2414_78352" maskUnits="userSpaceOnUse" x="3" y="1" width="29" height="32" fill="black">
<rect fill="white" x="3" y="1" width="29" height="32"/>
<path fill-rule="evenodd" clip-rule="evenodd" d="M17.2667 2L17.2666 2.00008L17.2666 2V2.00017C17.2435 2.04826 12.2535 12.4778 16.0441 22.9241C15.9684 22.7627 15.8925 22.6062 15.8154 22.4543C14.9669 20.7815 13.9704 19.652 11.3345 18.3311C8.57738 17.0386 6.31444 14.8838 4.88672 12.1914L4.88696 12.1955L4.88477 12.1914L4.88865 12.224C5.38376 20.4487 11.0458 23.7303 14.5384 24.9785C12.4587 24.5528 9.21303 24.092 4.88089 24.0822C4.5946 24.0815 4.30357 24.0829 4.00781 24.0863L4 24.0864C4 24.0864 5.87178 28.3691 17.2666 26.4601V26.4622C28.6633 28.3703 30.5333 24.0885 30.5333 24.0885L30.5264 24.0884L30.5333 24.0842C25.7528 24.0297 22.2061 24.5258 19.9886 24.9809C23.4832 23.7337 29.1582 20.4492 29.6463 12.2057L29.6479 12.1914L29.647 12.1932L29.6471 12.1914C28.2194 14.8838 25.9564 17.0386 23.1993 18.3311C21.9506 18.9563 21.0699 19.5386 20.3986 20.1559C20.3207 20.2276 20.2455 20.2997 20.1729 20.3725C19.4311 21.1164 18.9586 21.9223 18.4905 22.9205C22.2787 12.4754 17.2897 2.04826 17.2667 2.00017V2ZM17.2667 25.6916L17.2673 25.6914L17.2714 25.6823L17.2667 25.6913V25.6916ZM17.2655 25.6891L17.2645 25.6872L17.2653 25.6891L17.2655 25.6891ZM13.4578 29.373C13.3734 29.186 13.3169 28.9876 13.29 28.7842C17.2005 30.3737 21.3434 28.1953 21.3434 28.1953C21.3148 28.5004 21.2536 28.8016 21.1611 29.0937C20.821 29.5241 20.3985 29.8821 19.9183 30.1466C19.4381 30.4111 18.9099 30.5767 18.3648 30.6339C19.0999 30.7935 19.8681 30.6626 20.5092 30.2687C20.1945 30.8402 19.72 31.3073 19.1438 31.6124C18.5676 31.9174 17.915 32.0473 17.2661 31.9859C16.697 32.0125 16.1298 31.9021 15.6122 31.6638C15.0945 31.4255 14.6415 31.0663 14.2911 30.6165C14.5976 30.7946 14.9365 30.9098 15.2879 30.9554C15.6393 31.001 15.9963 30.9761 16.338 30.8822C15.2327 30.7273 14.215 30.194 13.4578 29.373Z"/>
</mask>
<path fill-rule="evenodd" clip-rule="evenodd" d="M17.2667 2L17.2666 2.00008L17.2666 2V2.00017C17.2435 2.04826 12.2535 12.4778 16.0441 22.9241C15.9684 22.7627 15.8925 22.6062 15.8154 22.4543C14.9669 20.7815 13.9704 19.652 11.3345 18.3311C8.57738 17.0386 6.31444 14.8838 4.88672 12.1914L4.88696 12.1955L4.88477 12.1914L4.88865 12.224C5.38376 20.4487 11.0458 23.7303 14.5384 24.9785C12.4587 24.5528 9.21303 24.092 4.88089 24.0822C4.5946 24.0815 4.30357 24.0829 4.00781 24.0863L4 24.0864C4 24.0864 5.87178 28.3691 17.2666 26.4601V26.4622C28.6633 28.3703 30.5333 24.0885 30.5333 24.0885L30.5264 24.0884L30.5333 24.0842C25.7528 24.0297 22.2061 24.5258 19.9886 24.9809C23.4832 23.7337 29.1582 20.4492 29.6463 12.2057L29.6479 12.1914L29.647 12.1932L29.6471 12.1914C28.2194 14.8838 25.9564 17.0386 23.1993 18.3311C21.9506 18.9563 21.0699 19.5386 20.3986 20.1559C20.3207 20.2276 20.2455 20.2997 20.1729 20.3725C19.4311 21.1164 18.9586 21.9223 18.4905 22.9205C22.2787 12.4754 17.2897 2.04826 17.2667 2.00017V2ZM17.2667 25.6916L17.2673 25.6914L17.2714 25.6823L17.2667 25.6913V25.6916ZM17.2655 25.6891L17.2645 25.6872L17.2653 25.6891L17.2655 25.6891ZM13.4578 29.373C13.3734 29.186 13.3169 28.9876 13.29 28.7842C17.2005 30.3737 21.3434 28.1953 21.3434 28.1953C21.3148 28.5004 21.2536 28.8016 21.1611 29.0937C20.821 29.5241 20.3985 29.8821 19.9183 30.1466C19.4381 30.4111 18.9099 30.5767 18.3648 30.6339C19.0999 30.7935 19.8681 30.6626 20.5092 30.2687C20.1945 30.8402 19.72 31.3073 19.1438 31.6124C18.5676 31.9174 17.915 32.0473 17.2661 31.9859C16.697 32.0125 16.1298 31.9021 15.6122 31.6638C15.0945 31.4255 14.6415 31.0663 14.2911 30.6165C14.5976 30.7946 14.9365 30.9098 15.2879 30.9554C15.6393 31.001 15.9963 30.9761 16.338 30.8822C15.2327 30.7273 14.215 30.194 13.4578 29.373Z" fill="white"/>
<path d="M17.2666 2.00008L16.7257 2.25974C16.8256 2.46776 17.0359 2.60008 17.2666 2.60008C17.4974 2.60008 17.7077 2.46776 17.8075 2.25974L17.2666 2.00008ZM17.2667 2H17.8667C17.8667 1.71993 17.6729 1.47711 17.3998 1.41496C17.1267 1.35281 16.847 1.48786 16.7258 1.74034L17.2667 2ZM17.2666 2L17.8075 1.74034C17.6863 1.48786 17.4065 1.35281 17.1335 1.41496C16.8604 1.47711 16.6666 1.71993 16.6666 2H17.2666ZM17.2666 2.00017L17.8076 2.25955C17.8465 2.17859 17.8666 2.08995 17.8666 2.00017H17.2666ZM16.0441 22.9241L15.5009 23.179C15.6372 23.4694 15.9778 23.6013 16.2741 23.4783C16.5704 23.3554 16.7176 23.0211 16.6081 22.7195L16.0441 22.9241ZM15.8154 22.4543L15.2803 22.7257L15.2803 22.7257L15.8154 22.4543ZM11.3345 18.3311L11.6033 17.7947C11.5986 17.7924 11.5939 17.7901 11.5892 17.7879L11.3345 18.3311ZM4.88672 12.1914L5.4168 11.9103C5.28462 11.661 4.99662 11.5375 4.72493 11.6136C4.45323 11.6897 4.27125 11.9448 4.28774 12.2265L4.88672 12.1914ZM4.88696 12.1955L4.35691 12.4767C4.48912 12.7259 4.77711 12.8494 5.04879 12.7733C5.32047 12.6972 5.50243 12.4421 5.48594 12.1605L4.88696 12.1955ZM4.88477 12.1914L5.41481 11.9102C5.27943 11.655 4.98137 11.5325 4.70563 11.6188C4.42989 11.705 4.25478 11.9756 4.28899 12.2624L4.88477 12.1914ZM4.88865 12.224L5.48757 12.188C5.48687 12.1763 5.48582 12.1646 5.48443 12.153L4.88865 12.224ZM14.5384 24.9785L14.4181 25.5663C14.7266 25.6294 15.0314 25.4433 15.1162 25.14C15.201 24.8367 15.0368 24.5194 14.7403 24.4135L14.5384 24.9785ZM4.88089 24.0822L4.88226 23.4822H4.88225L4.88089 24.0822ZM4.00781 24.0863L4.00086 23.4863L4.00078 23.4863L4.00781 24.0863ZM4 24.0864L3.99297 23.4864C3.79178 23.4888 3.60517 23.5918 3.496 23.7608C3.38683 23.9298 3.36964 24.1423 3.45022 24.3267L4 24.0864ZM17.2666 26.4601H17.8666C17.8666 26.2837 17.7889 26.1162 17.6542 26.0022C17.5195 25.8882 17.3415 25.8392 17.1675 25.8684L17.2666 26.4601ZM17.2666 26.4622H16.6666C16.6666 26.7554 16.8784 27.0056 17.1675 27.054L17.2666 26.4622ZM30.5333 24.0885L31.0832 24.3286C31.1637 24.1443 31.1465 23.9318 31.0373 23.7629C30.9281 23.5939 30.7416 23.4909 30.5404 23.4885L30.5333 24.0885ZM30.5264 24.0884L30.2154 23.5753C29.9863 23.7141 29.877 23.988 29.9476 24.2464C30.0181 24.5049 30.2514 24.6852 30.5193 24.6884L30.5264 24.0884ZM30.5333 24.0842L30.8443 24.5973C31.0734 24.4584 31.1827 24.1845 31.1121 23.926C31.0415 23.6676 30.8081 23.4873 30.5402 23.4842L30.5333 24.0842ZM19.9886 24.9809L19.7869 24.4158C19.4902 24.5217 19.3259 24.8391 19.4107 25.1425C19.4955 25.4459 19.8006 25.632 20.1092 25.5687L19.9886 24.9809ZM29.6463 12.2057L29.0503 12.1359C29.049 12.1473 29.048 12.1587 29.0473 12.1702L29.6463 12.2057ZM29.6479 12.1914L30.2439 12.2612C30.2774 11.9745 30.1022 11.7046 29.8266 11.6186C29.5511 11.5327 29.2535 11.655 29.1181 11.9099L29.6479 12.1914ZM29.647 12.1932L29.048 12.158C29.0315 12.4396 29.2134 12.6947 29.485 12.7709C29.7566 12.847 30.0445 12.7238 30.1769 12.4746L29.647 12.1932ZM29.6471 12.1914L30.2461 12.2265C30.2626 11.9449 30.0806 11.6897 29.8089 11.6136C29.5372 11.5375 29.2492 11.661 29.117 11.9103L29.6471 12.1914ZM23.1993 18.3311L22.9446 17.7879C22.9399 17.79 22.9353 17.7923 22.9307 17.7946L23.1993 18.3311ZM20.3986 20.1559L19.9925 19.7142V19.7142L20.3986 20.1559ZM20.1729 20.3725L20.5978 20.7962L20.5978 20.7962L20.1729 20.3725ZM18.4905 22.9205L17.9264 22.7159C17.8171 23.0175 17.9643 23.3518 18.2606 23.4747C18.5569 23.5976 18.8975 23.4657 19.0337 23.1752L18.4905 22.9205ZM17.2667 2.00017H16.6667C16.6667 2.08995 16.6868 2.17859 16.7256 2.25955L17.2667 2.00017ZM17.2673 25.6914L17.4756 26.254C17.626 26.1984 17.7479 26.0848 17.814 25.9387L17.2673 25.6914ZM17.2667 25.6916H16.6667C16.6667 25.8879 16.7628 26.0719 16.9239 26.184C17.0851 26.2962 17.2909 26.3224 17.475 26.2543L17.2667 25.6916ZM17.2714 25.6823L17.8181 25.9296C17.9518 25.6339 17.8263 25.2855 17.5347 25.1431C17.2432 25.0007 16.8912 25.1159 16.7403 25.4032L17.2714 25.6823ZM17.2667 25.6913L16.7356 25.4122C16.6903 25.4982 16.6667 25.594 16.6667 25.6913H17.2667ZM17.2645 25.6872L17.7956 25.4082C17.6447 25.1209 17.2927 25.0056 17.0011 25.1481C16.7095 25.2906 16.584 25.6391 16.7179 25.9347L17.2645 25.6872ZM17.2655 25.6891L17.0548 26.2509C17.2879 26.3383 17.5507 26.2727 17.7154 26.0861C17.8801 25.8994 17.9124 25.6305 17.7966 25.4101L17.2655 25.6891ZM17.2653 25.6891L16.7187 25.9366C16.7845 26.0818 16.9054 26.1949 17.0546 26.2509L17.2653 25.6891ZM13.29 28.7842L13.516 28.2284C13.318 28.1479 13.0922 28.1788 12.9231 28.3095C12.754 28.4402 12.6672 28.6509 12.6952 28.8628L13.29 28.7842ZM13.4578 29.373L12.9108 29.6197C12.9373 29.6784 12.9731 29.7325 13.0167 29.7798L13.4578 29.373ZM21.3434 28.1953L21.9408 28.2515C21.9614 28.0322 21.8603 27.8194 21.6774 27.6968C21.4944 27.5743 21.2591 27.5618 21.0642 27.6642L21.3434 28.1953ZM21.1611 29.0937L21.6319 29.4656C21.6769 29.4087 21.7111 29.3441 21.733 29.2749L21.1611 29.0937ZM18.3648 30.6339L18.3023 30.0371C18.0092 30.0678 17.7818 30.3068 17.7657 30.601C17.7496 30.8953 17.9495 31.1577 18.2375 31.2202L18.3648 30.6339ZM20.5092 30.2687L21.0348 30.558C21.1661 30.3194 21.1203 30.0223 20.9232 29.8344C20.726 29.6464 20.4271 29.6149 20.195 29.7575L20.5092 30.2687ZM19.1438 31.6124L19.4246 32.1426L19.4246 32.1426L19.1438 31.6124ZM17.2661 31.9859L17.3226 31.3886C17.2945 31.3859 17.2663 31.3853 17.2381 31.3866L17.2661 31.9859ZM15.6122 31.6638L15.8631 31.1188L15.6122 31.6638ZM14.2911 30.6165L14.5926 30.0977C14.3441 29.9533 14.0281 30.0054 13.8391 30.2219C13.6501 30.4383 13.6412 30.7584 13.8178 30.9852L14.2911 30.6165ZM15.2879 30.9554L15.2107 31.5504H15.2107L15.2879 30.9554ZM16.338 30.8822L16.4971 31.4607C16.7715 31.3852 16.9551 31.1274 16.9367 30.8434C16.9184 30.5595 16.7031 30.3275 16.4213 30.288L16.338 30.8822ZM17.8075 2.25974L17.8076 2.25966L16.7258 1.74034L16.7257 1.74043L17.8075 2.25974ZM16.7257 2.25966L16.7257 2.25974L17.8075 1.74043L17.8075 1.74034L16.7257 2.25966ZM17.8666 2.00017V2H16.6666V2.00017H17.8666ZM16.6081 22.7195C14.763 17.6345 15.0497 12.5354 15.8138 8.67945C16.5773 4.8263 17.8091 2.25659 17.8076 2.25955L16.7256 1.74078C16.7011 1.79184 15.4263 4.46097 14.6367 8.44621C13.8476 12.4286 13.5346 17.7675 15.4801 23.1288L16.6081 22.7195ZM15.2803 22.7257C15.3541 22.8712 15.4273 23.022 15.5009 23.179L16.5873 22.6693C16.5095 22.5034 16.4309 22.3413 16.3505 22.1828L15.2803 22.7257ZM11.0657 18.8675C12.3513 19.5118 13.2031 20.0927 13.83 20.6938C14.4519 21.2902 14.8764 21.9294 15.2803 22.7257L16.3505 22.1828C15.9059 21.3063 15.408 20.5444 14.6605 19.8277C13.918 19.1157 12.9536 18.4714 11.6033 17.7947L11.0657 18.8675ZM4.35664 12.4725C5.84526 15.2797 8.2048 17.5266 11.0798 18.8744L11.5892 17.7879C8.94995 16.5506 6.78363 14.4879 5.4168 11.9103L4.35664 12.4725ZM5.48594 12.1605L5.48569 12.1563L4.28774 12.2265L4.28799 12.2306L5.48594 12.1605ZM4.35472 12.4726L4.35691 12.4767L5.41701 11.9144L5.41481 11.9102L4.35472 12.4726ZM5.48443 12.153L5.48055 12.1204L4.28899 12.2624L4.29287 12.295L5.48443 12.153ZM14.7403 24.4135C11.3578 23.2047 5.96204 20.0698 5.48757 12.188L4.28974 12.2601C4.80549 20.8276 10.7338 24.256 14.3364 25.5435L14.7403 24.4135ZM4.87953 24.6822C9.16956 24.692 12.3753 25.1482 14.4181 25.5663L14.6587 24.3906C12.542 23.9574 9.2565 23.4921 4.88226 23.4822L4.87953 24.6822ZM4.01477 24.6862C4.30774 24.6829 4.596 24.6815 4.87953 24.6822L4.88225 23.4822C4.5932 23.4815 4.2994 23.4829 4.00086 23.4863L4.01477 24.6862ZM4.00703 24.6863L4.01484 24.6862L4.00078 23.4863L3.99297 23.4864L4.00703 24.6863ZM17.1675 25.8684C11.5413 26.8109 8.35243 26.2097 6.60175 25.4399C5.72781 25.0556 5.20358 24.6259 4.90526 24.3122C4.75542 24.1547 4.66059 24.0243 4.60627 23.9405C4.57908 23.8985 4.56196 23.868 4.55314 23.8515C4.54873 23.8432 4.54639 23.8385 4.5459 23.8375C4.54566 23.837 4.54588 23.8374 4.54654 23.8388C4.54686 23.8395 4.5473 23.8405 4.54784 23.8417C4.54812 23.8423 4.54841 23.843 4.54874 23.8437C4.5489 23.8441 4.54916 23.8447 4.54924 23.8449C4.54951 23.8455 4.54978 23.8461 4 24.0864C3.45022 24.3267 3.4505 24.3273 3.4508 24.328C3.45091 24.3282 3.45122 24.3289 3.45144 24.3294C3.45187 24.3304 3.45235 24.3315 3.45285 24.3326C3.45386 24.3349 3.45499 24.3374 3.45626 24.3401C3.45881 24.3457 3.46188 24.3522 3.46553 24.3598C3.47282 24.3748 3.48239 24.3939 3.49447 24.4165C3.51863 24.4618 3.55285 24.5215 3.59909 24.5929C3.69166 24.7358 3.83208 24.9251 4.03576 25.1392C4.44449 25.569 5.10038 26.0906 6.11873 26.5384C8.15266 27.4327 11.5971 28.0183 17.3657 27.0519L17.1675 25.8684ZM17.8666 26.4622V26.4601H16.6666V26.4622H17.8666ZM30.5333 24.0885C29.9835 23.8483 29.9837 23.8477 29.984 23.8471C29.9841 23.8469 29.9844 23.8463 29.9845 23.846C29.9848 23.8452 29.9851 23.8446 29.9854 23.844C29.986 23.8427 29.9864 23.8418 29.9867 23.8411C29.9874 23.8396 29.9876 23.8392 29.9874 23.8397C29.9869 23.8407 29.9845 23.8455 29.9801 23.8537C29.9713 23.8702 29.9542 23.9007 29.9271 23.9426C29.8728 24.0265 29.778 24.1567 29.6283 24.3142C29.3301 24.6278 28.8061 25.0574 27.9322 25.4416C26.1818 26.2113 22.9929 26.8126 17.3657 25.8705L17.1675 27.054C22.937 28.0199 26.3815 27.4344 28.4152 26.5401C29.4335 26.0924 30.0892 25.5709 30.4979 25.1412C30.7015 24.927 30.8418 24.7377 30.9344 24.5948C30.9806 24.5234 31.0148 24.4637 31.0389 24.4185C31.051 24.3958 31.0606 24.3768 31.0679 24.3617C31.0715 24.3542 31.0746 24.3476 31.0771 24.3421C31.0784 24.3393 31.0795 24.3368 31.0805 24.3346C31.081 24.3334 31.0815 24.3324 31.082 24.3314C31.0822 24.3309 31.0825 24.3302 31.0826 24.33C31.0829 24.3293 31.0832 24.3286 30.5333 24.0885ZM30.5193 24.6884L30.5262 24.6884L30.5404 23.4885L30.5335 23.4884L30.5193 24.6884ZM30.2223 23.5711L30.2154 23.5753L30.8374 24.6015L30.8443 24.5973L30.2223 23.5711ZM20.1092 25.5687C22.2872 25.1217 25.7911 24.6302 30.5265 24.6842L30.5402 23.4842C25.7144 23.4293 22.125 23.9299 19.8679 24.3932L20.1092 25.5687ZM29.0473 12.1702C28.5795 20.0703 23.1714 23.2079 19.7869 24.4158L20.1902 25.546C23.7949 24.2595 29.7368 20.8281 30.2452 12.2411L29.0473 12.1702ZM29.052 12.1216L29.0503 12.1359L30.2422 12.2754L30.2439 12.2612L29.052 12.1216ZM30.1769 12.4746L30.1778 12.4729L29.1181 11.9099L29.1171 11.9117L30.1769 12.4746ZM29.0481 12.1563L29.048 12.158L30.246 12.2283L30.2461 12.2265L29.0481 12.1563ZM23.454 18.8744C26.329 17.5266 28.6886 15.2797 30.1772 12.4725L29.117 11.9103C27.7502 14.4879 25.5839 16.5506 22.9446 17.7879L23.454 18.8744ZM20.8048 20.5975C21.4214 20.0305 22.2498 19.4775 23.4679 18.8676L22.9307 17.7946C21.6515 18.4351 20.7184 19.0467 19.9925 19.7142L20.8048 20.5975ZM20.5978 20.7962C20.6642 20.7296 20.7331 20.6634 20.8048 20.5975L19.9925 19.7142C19.9082 19.7917 19.8268 19.8699 19.7481 19.9488L20.5978 20.7962ZM19.0337 23.1752C19.4878 22.2069 19.9252 21.4706 20.5978 20.7962L19.7481 19.9488C18.9369 20.7622 18.4293 21.6378 17.9473 22.6658L19.0337 23.1752ZM16.7256 2.25955C16.7242 2.25659 17.9557 4.8257 18.7192 8.67811C19.4833 12.5333 19.7704 17.6316 17.9264 22.7159L19.0545 23.1251C20.9987 17.7643 20.6855 12.4264 19.8963 8.44482C19.1067 4.46035 17.8322 1.79184 17.8077 1.74078L16.7256 2.25955ZM16.6667 2V2.00017H17.8667V2H16.6667ZM17.059 25.1287L17.0584 25.1289L17.475 26.2543L17.4756 26.254L17.059 25.1287ZM16.7248 25.4349L16.7206 25.4441L17.814 25.9387L17.8181 25.9296L16.7248 25.4349ZM17.7978 25.9703L17.8026 25.9613L16.7403 25.4032L16.7356 25.4122L17.7978 25.9703ZM17.8667 25.6916V25.6913H16.6667V25.6916H17.8667ZM16.7333 25.9662L16.7343 25.9682L17.7966 25.4101L17.7956 25.4082L16.7333 25.9662ZM17.8119 25.4416L17.811 25.4397L16.7179 25.9347L16.7187 25.9366L17.8119 25.4416ZM17.4761 25.1273L17.476 25.1273L17.0546 26.2509L17.0548 26.2509L17.4761 25.1273ZM12.6952 28.8628C12.7298 29.1243 12.8024 29.3793 12.9108 29.6197L14.0047 29.1263C13.9445 28.9927 13.9041 28.851 13.8849 28.7056L12.6952 28.8628ZM21.3434 28.1953C21.0642 27.6642 21.0644 27.6642 21.0645 27.6641C21.0645 27.6641 21.0647 27.664 21.0647 27.664C21.0648 27.6639 21.0649 27.6639 21.0649 27.6639C21.0649 27.6639 21.0646 27.664 21.0641 27.6643C21.063 27.6648 21.061 27.6659 21.0581 27.6674C21.0521 27.6705 21.0423 27.6754 21.0288 27.6822C21.0017 27.6956 20.9597 27.7161 20.9039 27.7422C20.7923 27.7943 20.6257 27.8685 20.4126 27.9536C19.9856 28.124 19.3759 28.3361 18.6504 28.5007C17.191 28.8318 15.3147 28.9595 13.516 28.2284L13.0641 29.34C15.1758 30.1984 17.3262 30.0316 18.9159 29.6709C19.7149 29.4896 20.3853 29.2565 20.8574 29.0681C21.0938 28.9738 21.2814 28.8903 21.4116 28.8295C21.4768 28.7991 21.5276 28.7743 21.5631 28.7566C21.5809 28.7478 21.5948 28.7407 21.6048 28.7356C21.6098 28.7331 21.6138 28.731 21.6167 28.7295C21.6182 28.7287 21.6195 28.728 21.6205 28.7275C21.621 28.7273 21.6214 28.727 21.6218 28.7269C21.6219 28.7268 21.6222 28.7266 21.6223 28.7266C21.6225 28.7265 21.6227 28.7264 21.3434 28.1953ZM21.733 29.2749C21.8385 28.9421 21.9081 28.599 21.9408 28.2515L20.7461 28.1392C20.7214 28.4018 20.6688 28.661 20.5891 28.9125L21.733 29.2749ZM20.2078 30.6721C20.7581 30.369 21.2423 29.9588 21.6319 29.4656L20.6903 28.7217C20.3998 29.0894 20.0389 29.3951 19.6288 29.621L20.2078 30.6721ZM18.4273 31.2306C19.0521 31.1651 19.6574 30.9752 20.2078 30.6721L19.6288 29.621C19.2187 29.8469 18.7677 29.9884 18.3023 30.0371L18.4273 31.2306ZM20.195 29.7575C19.6858 30.0704 19.0758 30.1743 18.4921 30.0475L18.2375 31.2202C19.124 31.4127 20.0504 31.2549 20.8233 30.7798L20.195 29.7575ZM19.4246 32.1426C20.1042 31.7827 20.6638 31.2319 21.0348 30.558L19.9836 29.9793C19.7253 30.4485 19.3357 30.8318 18.863 31.0821L19.4246 32.1426ZM17.2097 32.5833C17.9751 32.6556 18.745 32.5025 19.4246 32.1426L18.863 31.0821C18.3903 31.3324 17.8549 31.4389 17.3226 31.3886L17.2097 32.5833ZM15.3613 32.2088C15.9662 32.4873 16.629 32.6164 17.2941 32.5853L17.2381 31.3866C16.765 31.4087 16.2934 31.3169 15.8631 31.1188L15.3613 32.2088ZM13.8178 30.9852C14.2271 31.5107 14.7564 31.9304 15.3613 32.2088L15.8631 31.1188C15.4327 30.9206 15.0559 30.622 14.7645 30.2478L13.8178 30.9852ZM15.3651 30.3604C15.0928 30.3251 14.8302 30.2358 14.5926 30.0977L13.9897 31.1352C14.365 31.3534 14.7801 31.4946 15.2107 31.5504L15.3651 30.3604ZM16.1789 30.3036C15.9141 30.3765 15.6374 30.3958 15.3651 30.3604L15.2107 31.5504C15.6412 31.6063 16.0785 31.5758 16.4971 31.4607L16.1789 30.3036ZM13.0167 29.7798C13.8679 30.7027 15.012 31.3022 16.2547 31.4764L16.4213 30.288C15.4534 30.1523 14.5621 29.6854 13.8988 28.9662L13.0167 29.7798Z" fill="white" mask="url(#path-1-outside-1_2414_78352)"/>
</svg>
