<svg width="16" height="18" viewBox="0 0 16 18" fill="none" xmlns="http://www.w3.org/2000/svg">
<mask id="path-1-outside-1_2130_24588" maskUnits="userSpaceOnUse" x="0" y="0.75" width="16" height="17" fill="black">
<rect fill="white" y="0.75" width="16" height="17"/>
<path fillRule="evenodd" clipRule="evenodd" d="M7.0214 12.2107C5.12261 6.97594 7.63317 1.75 7.63317 1.75V13.5951L7.63335 13.5952L7.63335 1.75C7.63335 1.75 10.1435 6.9751 8.24558 12.2095C8.69966 11.2412 9.16179 10.635 10.5997 9.9151C11.9783 9.26886 13.1097 8.19144 13.8236 6.84525L13.8235 6.84657L13.8237 6.84616L13.8233 6.84954C13.5802 10.9766 10.7375 12.6189 8.99018 13.2415C10.0987 13.0137 11.8735 12.765 14.2667 12.7923L14.2631 12.7944L14.2667 12.7945C14.2667 12.7945 13.3317 14.9354 7.63335 13.9814L7.63335 13.9805C1.9359 14.935 1 12.7936 1 12.7936L1.02799 12.7933C1.16782 12.7918 1.30553 12.7912 1.44112 12.7915C3.61043 12.7965 5.23479 13.0276 6.27433 13.2407C4.52839 12.618 1.69153 10.9779 1.44404 6.86074L1.44231 6.84616L1.44328 6.848L1.44312 6.84525C2.15698 8.19144 3.28845 9.26886 4.66702 9.9151C6.10425 10.6353 6.5667 11.2417 7.0214 12.2107ZM7.63335 13.5957V13.5961L7.6334 13.596L7.63479 13.593L7.63335 13.5957ZM5.72868 15.4362C5.6865 15.3426 5.65825 15.2435 5.64481 15.1417C7.60003 15.9365 9.6715 14.8473 9.6715 14.8473C9.65716 14.9999 9.62659 15.1504 9.58032 15.2965C9.4103 15.5117 9.19903 15.6907 8.95893 15.8229C8.71882 15.9552 8.45472 16.038 8.18218 16.0666C8.54972 16.1464 8.93384 16.081 9.25438 15.884C9.09705 16.1698 8.85977 16.4033 8.57169 16.5558C8.28361 16.7084 7.95729 16.7733 7.63285 16.7426C7.34829 16.7559 7.0647 16.7007 6.80588 16.5815C6.54705 16.4624 6.32053 16.2828 6.14535 16.0579C6.29859 16.1469 6.46802 16.2046 6.64373 16.2274C6.81944 16.2502 6.99793 16.2377 7.16878 16.1907C6.61614 16.1133 6.10729 15.8467 5.72868 15.4362Z"/>
</mask>
<path d="M7.63317 1.75H8.63317C8.63317 1.28327 8.31031 0.878608 7.85523 0.774966C7.40015 0.671325 6.9339 0.89627 6.73179 1.31697L7.63317 1.75ZM7.0214 12.2107L6.11611 12.6355C6.34322 13.1195 6.91087 13.3393 7.40468 13.1343C7.89849 12.9294 8.14377 12.3723 7.96147 11.8697L7.0214 12.2107ZM7.63317 13.5951H6.63317C6.63317 14.0148 6.89525 14.3899 7.28937 14.5342L7.63317 13.5951ZM7.63335 13.5952L7.28955 14.5342C7.59624 14.6465 7.93843 14.602 8.20615 14.4149C8.47386 14.2278 8.63335 13.9218 8.63335 13.5952H7.63335ZM7.63335 1.75L8.53473 1.31697C8.33262 0.89627 7.86637 0.671325 7.41129 0.774966C6.95621 0.878608 6.63335 1.28327 6.63335 1.75L7.63335 1.75ZM8.24558 12.2095L7.30547 11.8686C7.12322 12.3712 7.36859 12.9283 7.86246 13.1332C8.35632 13.338 8.92395 13.1181 9.15097 12.634L8.24558 12.2095ZM10.5997 9.9151L10.1752 9.00966C10.1674 9.01331 10.1597 9.01706 10.152 9.02092L10.5997 9.9151ZM13.8236 6.84525L14.8219 6.90342C14.8493 6.43403 14.5459 6.00898 14.0931 5.88225C13.6403 5.75553 13.1604 5.96136 12.9401 6.37676L13.8236 6.84525ZM13.8235 6.84657L12.8252 6.7884C12.7979 7.2578 13.1012 7.68285 13.554 7.80957C14.0068 7.93629 14.4867 7.73044 14.707 7.31503L13.8235 6.84657ZM13.8237 6.84616L14.8171 6.96157C14.8726 6.48379 14.5801 6.03418 14.1208 5.8913C13.6615 5.74842 13.1656 5.95276 12.9402 6.37771L13.8237 6.84616ZM13.8233 6.84954L12.83 6.73413C12.8278 6.75294 12.8262 6.77182 12.8251 6.79073L13.8233 6.84954ZM8.99018 13.2415L8.65453 12.2995C8.15979 12.4758 7.88573 13.0048 8.02708 13.5106C8.16843 14.0164 8.677 14.3267 9.19146 14.221L8.99018 13.2415ZM14.2667 12.7923L14.7842 13.6479C15.1665 13.4168 15.349 12.9601 15.2315 12.5291C15.1139 12.0982 14.7248 11.7974 14.2781 11.7923L14.2667 12.7923ZM14.2631 12.7944L13.7456 11.9388C13.3634 12.1699 13.1809 12.6264 13.2983 13.0573C13.4157 13.4883 13.8046 13.7891 14.2512 13.7944L14.2631 12.7944ZM14.2667 12.7945L15.1831 13.1947C15.3173 12.8875 15.2886 12.5335 15.1067 12.2519C14.9248 11.9703 14.6138 11.7985 14.2786 11.7946L14.2667 12.7945ZM7.63335 13.9814L6.63335 13.9787C6.63204 14.4683 6.98536 14.8868 7.46822 14.9676L7.63335 13.9814ZM7.63335 13.9805L8.63334 13.9832C8.63413 13.6886 8.50501 13.4087 8.28043 13.218C8.05584 13.0274 7.75864 12.9455 7.46812 12.9942L7.63335 13.9805ZM1 12.7936L0.988725 11.7937C0.653335 11.7974 0.342178 11.9691 0.160124 12.2508C-0.0219296 12.5325 -0.0506313 12.8867 0.0836927 13.1941L1 12.7936ZM1.02799 12.7933L1.01716 11.7933L1.01672 11.7934L1.02799 12.7933ZM1.44112 12.7915L1.43882 13.7915H1.43882L1.44112 12.7915ZM6.27433 13.2407L6.07351 14.2203C6.58789 14.3258 7.09621 14.0154 7.23746 13.5097C7.37872 13.004 7.10479 12.4752 6.61023 12.2988L6.27433 13.2407ZM1.44404 6.86074L2.44224 6.80073C2.44107 6.78136 2.43934 6.76202 2.43705 6.74275L1.44404 6.86074ZM1.44231 6.84616L2.32572 6.37757C2.10011 5.95224 1.60346 5.74806 1.14394 5.89171C0.684417 6.03536 0.392487 6.48606 0.449293 6.96415L1.44231 6.84616ZM1.44328 6.848L0.55987 7.3166C0.780217 7.732 1.26021 7.93777 1.71301 7.81094C2.16581 7.6841 2.46908 7.25893 2.44157 6.78951L1.44328 6.848ZM1.44312 6.84525L2.32659 6.37676C2.10628 5.96131 1.62628 5.75548 1.17345 5.88229C0.720621 6.00911 0.417328 6.43429 0.444834 6.90374L1.44312 6.84525ZM4.66702 9.9151L5.11504 9.02108C5.10724 9.01717 5.09938 9.01336 5.09148 9.00966L4.66702 9.9151ZM7.63335 13.5961H6.63335C6.63335 13.9228 6.79296 14.2289 7.06085 14.416C7.32875 14.603 7.67112 14.6474 7.97785 14.5348L7.63335 13.5961ZM7.63335 13.5957L6.74825 13.1303C6.67278 13.2738 6.63335 13.4336 6.63335 13.5957H7.63335ZM7.6334 13.596L7.97791 14.5348C8.22973 14.4424 8.43387 14.2527 8.54446 14.0083L7.6334 13.596ZM7.63479 13.593L8.54586 14.0052C8.7688 13.5126 8.55969 12.9319 8.07382 12.6945C7.58795 12.4571 7.00137 12.6489 6.74969 13.1276L7.63479 13.593ZM5.64481 15.1417L6.02136 14.2154C5.6914 14.0812 5.31502 14.1327 5.03323 14.3506C4.75143 14.5684 4.60677 14.9197 4.65342 15.2728L5.64481 15.1417ZM5.72868 15.4362L4.81711 15.8473C4.86124 15.9451 4.92083 16.0352 4.99359 16.1141L5.72868 15.4362ZM9.6715 14.8473L10.6671 14.9409C10.7015 14.5755 10.5329 14.2207 10.228 14.0165C9.92316 13.8123 9.53091 13.7914 9.20611 13.9622L9.6715 14.8473ZM9.58032 15.2965L10.365 15.9164C10.44 15.8215 10.4971 15.7138 10.5336 15.5985L9.58032 15.2965ZM8.18218 16.0666L8.07797 15.072C7.58952 15.1232 7.21053 15.5215 7.18367 16.0119C7.15682 16.5023 7.49004 16.9396 7.96998 17.0438L8.18218 16.0666ZM9.25438 15.884L10.1304 16.3662C10.3493 15.9686 10.2729 15.4734 9.94438 15.1602C9.61582 14.847 9.11752 14.7943 8.73079 15.032L9.25438 15.884ZM8.57169 16.5558L9.03965 17.4396L9.03965 17.4396L8.57169 16.5558ZM7.63285 16.7426L7.72696 15.7471C7.68016 15.7426 7.63311 15.7415 7.58616 15.7437L7.63285 16.7426ZM6.80588 16.5815L7.22402 15.6732L7.22402 15.6732L6.80588 16.5815ZM6.14535 16.0579L6.64777 15.1933C6.23365 14.9526 5.70706 15.0394 5.39205 15.4002C5.07705 15.761 5.0621 16.2945 5.35641 16.6724L6.14535 16.0579ZM6.64373 16.2274L6.51501 17.2191L6.51502 17.2191L6.64373 16.2274ZM7.16878 16.1907L7.43393 17.1549C7.89123 17.0292 8.1973 16.5995 8.1667 16.1262C8.1361 15.6529 7.77725 15.2662 7.30756 15.2004L7.16878 16.1907ZM7.63317 1.75C6.73179 1.31697 6.73164 1.3173 6.73147 1.31764C6.73141 1.31778 6.73123 1.31814 6.7311 1.31842C6.73083 1.31899 6.73052 1.31963 6.73017 1.32036C6.72948 1.32181 6.72864 1.32358 6.72765 1.32567C6.72567 1.32985 6.7231 1.33531 6.71996 1.34202C6.71369 1.35544 6.70517 1.37389 6.6946 1.39721C6.67347 1.44384 6.64416 1.50997 6.60838 1.59433C6.53686 1.76298 6.43931 2.00491 6.32961 2.30981C6.11055 2.91868 5.84112 3.78393 5.63448 4.8221C5.22324 6.8882 5.04822 9.7035 6.08133 12.5517L7.96147 11.8697C7.09579 9.48315 7.22666 7.0681 7.596 5.21253C7.77965 4.28987 8.01919 3.52146 8.21152 2.98688C8.30752 2.72006 8.39128 2.51282 8.44963 2.37522C8.4788 2.30646 8.50156 2.25521 8.51628 2.22273C8.52364 2.20649 8.52898 2.19496 8.5321 2.18828C8.53366 2.18495 8.53466 2.18283 8.53507 2.18195C8.53528 2.1815 8.53535 2.18137 8.53526 2.18155C8.53522 2.18164 8.53514 2.18181 8.53502 2.18205C8.53496 2.18218 8.53485 2.18242 8.53482 2.18248C8.53469 2.18274 8.53455 2.18303 7.63317 1.75ZM8.63317 13.5951V1.75H6.63317V13.5951H8.63317ZM7.97715 12.6562L7.97698 12.6561L7.28937 14.5342L7.28955 14.5342L7.97715 12.6562ZM6.63335 1.75L6.63335 13.5952H8.63335L8.63335 1.75L6.63335 1.75ZM9.18569 12.5503C10.2183 9.70237 10.0432 6.88742 9.63194 4.8216C9.42529 3.78357 9.15589 2.91844 8.93685 2.30966C8.82717 2.00481 8.72964 1.76291 8.65812 1.59429C8.62235 1.50995 8.59304 1.44382 8.57191 1.3972C8.56135 1.37388 8.55282 1.35544 8.54656 1.34202C8.54342 1.3353 8.54085 1.32985 8.53887 1.32567C8.53788 1.32358 8.53704 1.32181 8.53635 1.32036C8.536 1.31963 8.53569 1.31899 8.53542 1.31842C8.53529 1.31814 8.53511 1.31778 8.53505 1.31764C8.53488 1.3173 8.53473 1.31697 7.63335 1.75C6.73196 2.18303 6.73183 2.18274 6.7317 2.18248C6.73167 2.18242 6.73156 2.18218 6.7315 2.18205C6.73138 2.18181 6.7313 2.18164 6.73126 2.18155C6.73117 2.18137 6.73124 2.1815 6.73144 2.18194C6.73186 2.18283 6.73286 2.18495 6.73442 2.18828C6.73754 2.19495 6.74288 2.20648 6.75023 2.22272C6.76495 2.25519 6.78771 2.30644 6.81687 2.37519C6.87522 2.51276 6.95897 2.71997 7.05495 2.98676C7.24726 3.52126 7.48677 4.28954 7.67043 5.21209C8.03977 7.06741 8.17075 9.48218 7.30547 11.8686L9.18569 12.5503ZM10.152 9.02092C9.37384 9.41052 8.79314 9.80198 8.33625 10.2725C7.87448 10.7481 7.58938 11.2535 7.34019 11.7849L9.15097 12.634C9.35586 12.1971 9.52886 11.9153 9.77116 11.6658C10.0183 11.4112 10.3876 11.1396 11.0474 10.8093L10.152 9.02092ZM12.9401 6.37676C12.3278 7.53156 11.3573 8.45553 10.1752 9.00966L11.0241 10.8206C12.5992 10.0822 13.8917 8.85132 14.7071 7.31373L12.9401 6.37676ZM14.8218 6.90475L14.8219 6.90342L12.8253 6.78707L12.8252 6.7884L14.8218 6.90475ZM12.9402 6.37771L12.94 6.37812L14.707 7.31503L14.7072 7.31462L12.9402 6.37771ZM14.8167 6.96494L14.8171 6.96157L12.8304 6.73075L12.83 6.73413L14.8167 6.96494ZM9.32584 14.1835C11.2565 13.4955 14.5447 11.6085 14.8216 6.90834L12.8251 6.79073C12.6157 10.3448 10.2186 11.7422 8.65453 12.2995L9.32584 14.1835ZM14.2781 11.7923C11.8094 11.7642 9.96334 12.0206 8.78891 12.2619L9.19146 14.221C10.234 14.0068 11.9375 13.7658 14.2553 13.7922L14.2781 11.7923ZM14.7806 13.6501L14.7842 13.6479L13.7492 11.9366L13.7456 11.9388L14.7806 13.6501ZM14.2786 11.7946L14.275 11.7945L14.2512 13.7944L14.2548 13.7944L14.2786 11.7946ZM7.46822 14.9676C10.436 15.4645 12.3073 15.1809 13.4894 14.6611C14.0828 14.4002 14.4875 14.0858 14.7562 13.8032C14.8895 13.6631 14.9862 13.534 15.0548 13.4281C15.0891 13.3752 15.1161 13.3283 15.1372 13.2889C15.1477 13.2692 15.1567 13.2514 15.1643 13.2356C15.1681 13.2277 15.1715 13.2204 15.1747 13.2136C15.1762 13.2101 15.1777 13.2069 15.1791 13.2037C15.1798 13.2022 15.1805 13.2006 15.1812 13.1991C15.1815 13.1984 15.182 13.1973 15.1822 13.1969C15.1826 13.1958 15.1831 13.1947 14.2667 12.7945C13.3503 12.3943 13.3508 12.3932 13.3512 12.3921C13.3514 12.3918 13.3518 12.3907 13.3521 12.3901C13.3527 12.3887 13.3533 12.3874 13.3539 12.386C13.3551 12.3834 13.3562 12.3809 13.3573 12.3785C13.3595 12.3738 13.3616 12.3694 13.3634 12.3656C13.3672 12.3579 13.3702 12.3519 13.3725 12.3477C13.377 12.3392 13.3784 12.3373 13.376 12.3411C13.3712 12.3486 13.3504 12.3793 13.3069 12.425C13.2223 12.514 13.0371 12.6752 12.6844 12.8303C11.9744 13.1425 10.5291 13.4523 7.79847 12.9951L7.46822 14.9676ZM6.63335 13.9778L6.63335 13.9787L8.63334 13.984L8.63334 13.9832L6.63335 13.9778ZM1 12.7936C0.0836927 13.1941 0.0841664 13.1952 0.0846449 13.1963C0.0848098 13.1966 0.0852948 13.1977 0.0856263 13.1985C0.0862903 13.2 0.086974 13.2015 0.0876775 13.2031C0.0890846 13.2062 0.0905712 13.2095 0.0921396 13.2129C0.0952764 13.2197 0.0987402 13.2271 0.102549 13.235C0.110165 13.2507 0.119161 13.2685 0.129673 13.2882C0.1507 13.3276 0.177788 13.3745 0.212027 13.4274C0.280619 13.5333 0.377423 13.6624 0.510676 13.8025C0.779448 14.085 1.18419 14.3995 1.77762 14.6604C2.95981 15.1802 4.83118 15.4639 7.79858 14.9667L7.46812 12.9942C4.73807 13.4516 3.29276 13.1418 2.58264 12.8296C2.22992 12.6745 2.04459 12.5132 1.95984 12.4241C1.91633 12.3783 1.8955 12.3476 1.89066 12.3401C1.88818 12.3363 1.88959 12.3381 1.89413 12.3466C1.8964 12.3508 1.89944 12.3568 1.90317 12.3645C1.90503 12.3683 1.90707 12.3726 1.90926 12.3774C1.91036 12.3798 1.91149 12.3823 1.91267 12.3849C1.91326 12.3862 1.91385 12.3876 1.91446 12.3889C1.91476 12.3896 1.91523 12.3907 1.91538 12.391C1.91584 12.3921 1.91631 12.3931 1 12.7936ZM1.01672 11.7934L0.988725 11.7937L1.01128 13.7935L1.03927 13.7932L1.01672 11.7934ZM1.44342 11.7915C1.30346 11.7912 1.16137 11.7918 1.01716 11.7933L1.03882 13.7932C1.17428 13.7918 1.30761 13.7912 1.43882 13.7915L1.44342 11.7915ZM6.47514 12.2611C5.3739 12.0353 3.68301 11.7967 1.44341 11.7915L1.43882 13.7915C3.53785 13.7963 5.09569 14.0199 6.07351 14.2203L6.47514 12.2611ZM0.445841 6.92074C0.727721 11.6101 4.00933 13.4946 5.93842 14.1826L6.61023 12.2988C5.04744 11.7415 2.65533 10.3457 2.44224 6.80073L0.445841 6.92074ZM0.449293 6.96415L0.451025 6.97872L2.43705 6.74275L2.43532 6.72817L0.449293 6.96415ZM2.3267 6.3794L2.32572 6.37757L0.558896 7.31476L0.55987 7.3166L2.3267 6.3794ZM0.444834 6.90374L0.444995 6.90649L2.44157 6.78951L2.44141 6.78675L0.444834 6.90374ZM5.09148 9.00966C3.90942 8.45553 2.93896 7.53156 2.32659 6.37676L0.559651 7.31373C1.37501 8.85132 2.66748 10.0822 4.24257 10.8206L5.09148 9.00966ZM7.92669 11.7859C7.67721 11.2543 7.39192 10.7488 6.93022 10.2731C6.47336 9.80245 5.89286 9.41086 5.11504 9.02108L4.219 10.8091C4.87842 11.1396 5.24776 11.4113 5.4951 11.6661C5.73761 11.916 5.91089 12.1982 6.11611 12.6355L7.92669 11.7859ZM8.63335 13.5961V13.5957H6.63335V13.5961H8.63335ZM7.28889 12.6573L7.28884 12.6573L7.97785 14.5348L7.97791 14.5348L7.28889 12.6573ZM6.72373 13.1807L6.72233 13.1838L8.54446 14.0083L8.54586 14.0052L6.72373 13.1807ZM8.51844 14.0611L8.51989 14.0584L6.74969 13.1276L6.74825 13.1303L8.51844 14.0611ZM4.65342 15.2728C4.67965 15.4712 4.7348 15.6648 4.81711 15.8473L6.64025 15.025C6.63821 15.0205 6.63684 15.0157 6.63619 15.0107L4.65342 15.2728ZM9.6715 14.8473C9.20611 13.9622 9.2064 13.962 9.20669 13.9619C9.20677 13.9619 9.20705 13.9617 9.20721 13.9616C9.20755 13.9614 9.20786 13.9613 9.20813 13.9611C9.20869 13.9609 9.20912 13.9606 9.20943 13.9605C9.21006 13.9601 9.21021 13.9601 9.20989 13.9602C9.20925 13.9606 9.20675 13.9618 9.20244 13.964C9.19381 13.9683 9.17803 13.976 9.1556 13.9865C9.11066 14.0074 9.03963 14.0392 8.94663 14.0763C8.75946 14.151 8.48998 14.2448 8.17009 14.3173C7.51638 14.4657 6.7382 14.5067 6.02136 14.2154L5.26826 16.0681C6.50663 16.5715 7.7418 16.4654 8.61263 16.2678C9.05501 16.1674 9.42561 16.0385 9.68793 15.9338C9.81968 15.8813 9.92576 15.8341 10.0017 15.7987C10.0398 15.7809 10.0704 15.766 10.0931 15.7547C10.1044 15.7491 10.1138 15.7443 10.1211 15.7406C10.1248 15.7387 10.1279 15.7371 10.1306 15.7357C10.1319 15.735 10.1331 15.7344 10.1341 15.7339C10.1346 15.7336 10.1351 15.7333 10.1356 15.7331C10.1358 15.733 10.1362 15.7328 10.1363 15.7327C10.1366 15.7326 10.1369 15.7324 9.6715 14.8473ZM10.5336 15.5985C10.6014 15.3847 10.6461 15.1642 10.6671 14.9409L8.67589 14.7537C8.6682 14.8355 8.65182 14.9162 8.62702 14.9945L10.5336 15.5985ZM9.44138 16.6989C9.79836 16.5022 10.1124 16.2362 10.365 15.9164L8.79565 14.6766C8.70825 14.7872 8.59971 14.8791 8.47648 14.947L9.44138 16.6989ZM8.28638 17.0611C8.69171 17.0187 9.08441 16.8955 9.44138 16.6989L8.47648 14.947C8.35323 15.0149 8.21773 15.0574 8.07797 15.072L8.28638 17.0611ZM8.73079 15.032C8.63007 15.0939 8.50957 15.1144 8.39437 15.0894L7.96998 17.0438C8.58987 17.1784 9.23762 17.068 9.77796 16.736L8.73079 15.032ZM9.03965 17.4396C9.50013 17.1957 9.87917 16.8226 10.1304 16.3662L8.37835 15.4017C8.31493 15.5169 8.21941 15.6108 8.10372 15.6721L9.03965 17.4396ZM7.53874 17.7382C8.05744 17.7872 8.57914 17.6834 9.03965 17.4396L8.10372 15.6721C7.98807 15.7333 7.85713 15.7594 7.72696 15.7471L7.53874 17.7382ZM6.38773 17.4899C6.79201 17.676 7.23502 17.7623 7.67954 17.7415L7.58616 15.7437C7.46157 15.7495 7.33739 15.7254 7.22402 15.6732L6.38773 17.4899ZM5.35641 16.6724C5.62983 17.0234 5.98346 17.3038 6.38773 17.4899L7.22402 15.6732C7.11063 15.621 7.01124 15.5422 6.93428 15.4434L5.35641 16.6724ZM6.77245 15.2357C6.7286 15.23 6.6862 15.2156 6.64777 15.1933L5.64292 16.9225C5.91098 17.0783 6.20744 17.1791 6.51501 17.2191L6.77245 15.2357ZM6.90364 15.2265C6.8609 15.2383 6.8163 15.2414 6.77245 15.2357L6.51502 17.2191C6.82258 17.259 7.13496 17.2372 7.43393 17.1549L6.90364 15.2265ZM4.99359 16.1141C5.52878 16.6944 6.24829 17.0715 7.03 17.1811L7.30756 15.2004C6.98399 15.1551 6.6858 14.9989 6.46377 14.7582L4.99359 16.1141Z" fill="#2D3D38" mask="url(#path-1-outside-1_2130_24588)"/>
</svg>
