<svg width="16" height="15" viewBox="0 0 16 15" fill="none" xmlns="http://www.w3.org/2000/svg">
<path fillRule="evenodd" clipRule="evenodd" d="M8.58039 4.28092C8.58039 5.89175 7.27455 7.19759 5.66372 7.19759C4.05289 7.19759 2.74705 5.89175 2.74705 4.28092C2.74705 2.67009 4.05289 1.36426 5.66372 1.36426C7.27455 1.36426 8.58039 2.67009 8.58039 4.28092ZM10.9136 13.0318C10.9136 13.229 10.9027 13.4236 10.8815 13.6151C10.879 13.638 10.8805 13.6514 10.8819 13.6645C10.8834 13.6784 10.8848 13.6919 10.8815 13.7159C10.8815 13.7159 6.24691 13.7138 5.75687 13.7138C3.0735 13.7138 0.452009 13.6703 0.452009 13.6703L0.445616 13.6151C0.424444 13.4236 0.413574 13.229 0.413574 13.0318C0.413574 10.1323 2.76408 7.78181 5.66357 7.78181C8.56307 7.78181 10.9136 10.1323 10.9136 13.0318ZM13.7644 6.54951C13.7644 7.80237 12.7487 8.81802 11.4958 8.81802C10.243 8.81802 9.22731 7.80237 9.22731 6.54951C9.22731 5.29664 10.243 4.28099 11.4958 4.28099C12.7487 4.28099 13.7644 5.29664 13.7644 6.54951ZM15.5792 13.3543C15.5792 11.0991 13.751 9.27093 11.4959 9.27093C11.1359 9.27093 10.7868 9.31751 10.4543 9.40498C10.4543 9.40498 11.2791 10.6974 11.4956 11.5724C11.7121 12.4474 11.7873 13.614 11.7873 13.614H15.5792C15.589 13.5253 15.5871 13.5045 15.584 13.4699C15.5819 13.4463 15.5792 13.4163 15.5792 13.3543Z" fill="#6C7774"/>
</svg>
