<svg width="14" height="16" viewBox="0 0 14 16" fill="none" xmlns="http://www.w3.org/2000/svg">
<path d="M6.25 0.5H1.25C0.973858 0.5 0.75 0.723858 0.75 1V15C0.75 15.2761 0.973858 15.5 1.25 15.5H12.75C13.0261 15.5 13.25 15.2761 13.25 15V7C13.25 6.72386 13.0261 6.5 12.75 6.5H6.75V1C6.75 0.723858 6.52614 0.5 6.25 0.5Z" fill="#6C7774"/>
<path d="M8.25 4.5V1.62268C8.25 1.1898 8.76272 0.961449 9.08448 1.25103L12.2815 4.12835C12.6221 4.4349 12.4053 5 11.947 5H8.75C8.47386 5 8.25 4.77614 8.25 4.5Z" fill="#6C7774"/>
</svg>
