<svg width="17" height="17" viewBox="0 0 17 17" fill="none" xmlns="http://www.w3.org/2000/svg">
<path fillRule="evenodd" clipRule="evenodd" d="M13.125 7.625C13.125 10.6626 10.6626 13.125 7.625 13.125C4.58743 13.125 2.125 10.6626 2.125 7.625C2.125 4.58743 4.58743 2.125 7.625 2.125C10.6626 2.125 13.125 4.58743 13.125 7.625ZM12.0161 13.0768C10.8152 14.0452 9.28783 14.625 7.625 14.625C3.75901 14.625 0.625 11.491 0.625 7.625C0.625 3.75901 3.75901 0.625 7.625 0.625C11.491 0.625 14.625 3.75901 14.625 7.625C14.625 9.28783 14.0452 10.8152 13.0768 12.0161L16.1553 15.0947C16.4482 15.3876 16.4482 15.8624 16.1553 16.1553C15.8624 16.4482 15.3876 16.4482 15.0947 16.1553L12.0161 13.0768Z" fill="#02150F"/>
</svg>
