<svg width="17" height="16" viewBox="0 0 17 16" fill="none" xmlns="http://www.w3.org/2000/svg">
<path fill-rule="evenodd" clip-rule="evenodd" d="M13.2246 7.125C13.2246 10.1626 10.7622 12.625 7.72461 12.625C4.68704 12.625 2.22461 10.1626 2.22461 7.125C2.22461 4.08743 4.68704 1.625 7.72461 1.625C10.7622 1.625 13.2246 4.08743 13.2246 7.125ZM12.1158 12.5767C10.9149 13.5452 9.38747 14.125 7.72461 14.125C3.85862 14.125 0.724609 10.991 0.724609 7.125C0.724609 3.25901 3.85862 0.125 7.72461 0.125C11.5906 0.125 14.7246 3.25901 14.7246 7.125C14.7246 8.7878 14.1448 10.3152 13.1764 11.516L16.2551 14.5947C16.548 14.8876 16.548 15.3625 16.2551 15.6554C15.9622 15.9483 15.4873 15.9483 15.1944 15.6554L12.1158 12.5767Z" fill="white"/>
</svg>
