<svg width="25" height="27" viewBox="0 0 25 27" fill="none" xmlns="http://www.w3.org/2000/svg">
<path fillRule="evenodd" clipRule="evenodd" d="M22.9124 15.848C24.5126 14.959 24.5126 12.6576 22.9124 11.7686L3.46822 0.966262C1.74799 0.0105772 -0.309991 1.48257 0.0386245 3.41932L1.898 13.7492C1.90503 13.7883 1.90503 13.8283 1.898 13.8673L0.0386217 24.1972C-0.309992 26.134 1.74798 27.606 3.46822 26.6503L22.9124 15.848ZM21.9411 13.5169C22.1697 13.6439 22.1697 13.9727 21.9411 14.0997L2.49693 24.902C2.25118 25.0385 1.95719 24.8282 2.00699 24.5515L3.76077 14.8083H11.1914C11.7437 14.8083 12.1914 14.3606 12.1914 13.8083C12.1914 13.256 11.7437 12.8083 11.1914 12.8083H3.76078L2.00699 3.06501C1.95719 2.78833 2.25118 2.57805 2.49693 2.71458L21.9411 13.5169Z" fill="#32B744"/>
</svg>
