<svg width="28" height="30" viewBox="0 0 28 30" fill="none" xmlns="http://www.w3.org/2000/svg">
<path d="M17.3636 22.9064L9.69857 18.7259C8.96281 19.4563 8.02729 19.9524 7.00995 20.1519C5.99262 20.3513 4.93901 20.2451 3.98196 19.8466C3.0249 19.4481 2.20726 18.7751 1.63209 17.9126C1.05693 17.0501 0.75 16.0366 0.75 14.9999C0.75 13.9632 1.05693 12.9497 1.63209 12.0872C2.20726 11.2247 3.0249 10.5518 3.98196 10.1533C4.93901 9.75478 5.99262 9.64855 7.00995 9.84798C8.02729 10.0474 8.96281 10.5436 9.69857 11.2739L17.3636 7.09342C17.1007 5.86002 17.2906 4.57321 17.8985 3.4683C18.5064 2.36339 19.4917 1.51422 20.6742 1.07607C21.8568 0.637925 23.1575 0.640083 24.3386 1.08215C25.5197 1.52422 26.5021 2.37666 27.1064 3.48358C27.7106 4.5905 27.8962 5.87793 27.6292 7.11045C27.3623 8.34297 26.6606 9.4382 25.6524 10.1959C24.6443 10.9535 23.3971 11.323 22.139 11.2367C20.8809 11.1504 19.6958 10.6141 18.8006 9.72592L11.1356 13.9064C11.2885 14.6274 11.2885 15.3724 11.1356 16.0934L18.8006 20.2739C19.6958 19.3857 20.8809 18.8494 22.139 18.7631C23.3971 18.6768 24.6443 19.0463 25.6524 19.804C26.6606 20.5616 27.3623 21.6569 27.6292 22.8894C27.8962 24.1219 27.7106 25.4093 27.1064 26.5163C26.5021 27.6232 25.5197 28.4756 24.3386 28.9177C23.1575 29.3598 21.8568 29.3619 20.6742 28.9238C19.4917 28.4856 18.5064 27.6365 17.8985 26.5315C17.2906 25.4266 17.1007 24.1398 17.3636 22.9064Z" fill="white"/>
</svg>
