<svg width="40" height="40" viewBox="0 0 40 40" fill="none" xmlns="http://www.w3.org/2000/svg">
<rect x="0.789474" y="0.789474" width="38.4211" height="38.4211" rx="19.2105" fill="white"/>
<rect x="0.789474" y="0.789474" width="38.4211" height="38.4211" rx="19.2105" stroke="#E9E6E9" stroke-width="1.57895"/>
<g clip-path="url(#clip0_3308_36421)">
<path fillRule="evenodd" clipRule="evenodd" d="M19.9964 20.9337C20.2409 20.5052 20.3997 20.0344 20.5678 19.536L20.5683 19.5347L20.5683 19.5347C20.7428 19.0173 20.9233 18.4825 21.2101 17.99C21.5874 17.342 22.1431 16.8042 22.7922 16.4294V12.3593C22.7922 11.8492 22.3818 11.4349 21.8733 11.4285C21.8693 11.4284 21.8653 11.4284 21.8612 11.4284H18.1376C17.6234 11.4284 17.2066 11.8452 17.2066 12.3593V17.2073H12.3587C11.9028 17.2073 11.5236 17.5349 11.4434 17.9675C11.4359 18.0077 11.4311 18.0487 11.4289 18.0904C11.4281 18.1063 11.4277 18.1223 11.4277 18.1383V21.8619C11.4277 22.3761 11.8445 22.7929 12.3587 22.7929H17.1691C18.3298 22.6555 19.4157 21.951 19.9963 20.9337H19.9964ZM27.6392 17.2071H22.8004C22.3881 17.5039 22.0356 17.8832 21.7799 18.3222C21.5267 18.7573 21.3644 19.2381 21.1928 19.747L21.1928 19.747C21.022 20.2534 20.8453 20.777 20.5691 21.261C19.8798 22.4687 18.5852 23.3023 17.2056 23.4534V27.6408C17.2056 28.1549 17.6224 28.5717 18.1366 28.5717H21.8603C22.3744 28.5717 22.7912 28.1549 22.7912 27.6408V22.7928H27.6392C28.1533 22.7928 28.5701 22.376 28.5701 21.8618V18.1382C28.5701 17.624 28.1533 17.2072 27.6392 17.2072L27.6392 17.2071Z" fill="#32B744"/>
</g>
<defs>
<clipPath id="clip0_3308_36421">
<rect width="17.1431" height="17.1432" fill="white" transform="translate(11.4277 11.4284)"/>
</clipPath>
</defs>
</svg>
