<svg width="9" height="11" viewBox="0 0 9 11" fill="none" xmlns="http://www.w3.org/2000/svg">
<mask id="path-1-outside-1_2285_36697" maskUnits="userSpaceOnUse" x="-0.778015" y="-0.188988" width="10" height="11" fill="black">
<rect fill="white" x="-0.778015" y="-0.188988" width="10" height="11"/>
<path fill-rule="evenodd" clip-rule="evenodd" d="M4.27569 0.811012L4.27566 0.811093L4.27562 0.811012V0.811174C4.26311 0.837308 2.74637 4.01753 3.90168 7.20325C3.62385 6.61124 3.34119 6.24073 2.46302 5.80065C1.62056 5.40573 0.92911 4.7473 0.49286 3.92463L0.492972 3.92654L0.492333 3.92533L0.493468 3.93487C0.645229 6.45383 2.38322 7.45527 3.4497 7.83454C2.81472 7.70408 1.82069 7.5622 0.492146 7.55911C0.403577 7.5589 0.31352 7.55931 0.221985 7.56039C0.221985 7.56039 0.793913 8.86898 4.27562 8.28571V8.28574C7.75795 8.86877 8.32934 7.56043 8.32934 7.56043L8.32801 7.56042L8.32934 7.55961C7.65232 7.5519 7.05628 7.58032 6.54414 7.62689C5.08323 7.75915 4.30491 8.03959 4.27643 8.04999C4.72542 7.43717 5.29769 6.92536 5.95634 6.54758C7.0835 5.91852 7.9669 4.72233 8.05883 3.92533C7.62258 4.74801 6.93113 5.40641 6.08867 5.80134C5.20904 6.24155 4.9267 6.61244 4.64902 7.20494L4.65 7.20224L4.27569 0.811012ZM4.27562 8.05028L4.27593 8.05017L4.27824 8.04506L4.27603 8.04928L4.2757 8.05L4.27578 8.05019L4.27562 8.05028ZM3.11203 9.17513C3.08625 9.11798 3.06898 9.05737 3.06077 8.99521C4.25563 9.48088 5.52153 8.81527 5.52153 8.81527C5.51277 8.9085 5.49408 9.00052 5.46581 9.08978C5.36191 9.22129 5.2328 9.33067 5.08607 9.41149C4.93933 9.49231 4.77794 9.54293 4.61139 9.56038C4.836 9.60916 5.07074 9.56917 5.26662 9.44879C5.17048 9.62343 5.02547 9.76615 4.84942 9.85937C4.67337 9.95259 4.47395 9.99226 4.27568 9.97351C4.10179 9.98164 3.92848 9.94789 3.77031 9.87508C3.61214 9.80227 3.47372 9.69253 3.36666 9.55507C3.46031 9.60949 3.56385 9.64471 3.67122 9.65864C3.7786 9.67258 3.88768 9.66497 3.99209 9.63626C3.65436 9.58893 3.3434 9.42599 3.11203 9.17513Z"/>
</mask>
<path fill-rule="evenodd" clip-rule="evenodd" d="M4.27569 0.811012L4.27566 0.811093L4.27562 0.811012V0.811174C4.26311 0.837308 2.74637 4.01753 3.90168 7.20325C3.62385 6.61124 3.34119 6.24073 2.46302 5.80065C1.62056 5.40573 0.92911 4.7473 0.49286 3.92463L0.492972 3.92654L0.492333 3.92533L0.493468 3.93487C0.645229 6.45383 2.38322 7.45527 3.4497 7.83454C2.81472 7.70408 1.82069 7.5622 0.492146 7.55911C0.403577 7.5589 0.31352 7.55931 0.221985 7.56039C0.221985 7.56039 0.793913 8.86898 4.27562 8.28571V8.28574C7.75795 8.86877 8.32934 7.56043 8.32934 7.56043L8.32801 7.56042L8.32934 7.55961C7.65232 7.5519 7.05628 7.58032 6.54414 7.62689C5.08323 7.75915 4.30491 8.03959 4.27643 8.04999C4.72542 7.43717 5.29769 6.92536 5.95634 6.54758C7.0835 5.91852 7.9669 4.72233 8.05883 3.92533C7.62258 4.74801 6.93113 5.40641 6.08867 5.80134C5.20904 6.24155 4.9267 6.61244 4.64902 7.20494L4.65 7.20224L4.27569 0.811012ZM4.27562 8.05028L4.27593 8.05017L4.27824 8.04506L4.27603 8.04928L4.2757 8.05L4.27578 8.05019L4.27562 8.05028ZM3.11203 9.17513C3.08625 9.11798 3.06898 9.05737 3.06077 8.99521C4.25563 9.48088 5.52153 8.81527 5.52153 8.81527C5.51277 8.9085 5.49408 9.00052 5.46581 9.08978C5.36191 9.22129 5.2328 9.33067 5.08607 9.41149C4.93933 9.49231 4.77794 9.54293 4.61139 9.56038C4.836 9.60916 5.07074 9.56917 5.26662 9.44879C5.17048 9.62343 5.02547 9.76615 4.84942 9.85937C4.67337 9.95259 4.47395 9.99226 4.27568 9.97351C4.10179 9.98164 3.92848 9.94789 3.77031 9.87508C3.61214 9.80227 3.47372 9.69253 3.36666 9.55507C3.46031 9.60949 3.56385 9.64471 3.67122 9.65864C3.7786 9.67258 3.88768 9.66497 3.99209 9.63626C3.65436 9.58893 3.3434 9.42599 3.11203 9.17513Z" fill="#32B744"/>
<path d="M4.27566 0.811093L4.11886 0.886919C4.14801 0.947191 4.20912 0.98542 4.27607 0.98526C4.34302 0.9851 4.40395 0.946578 4.43281 0.886167L4.27566 0.811093ZM4.27569 0.811012L4.44956 0.80083C4.44492 0.721506 4.38717 0.655383 4.3092 0.640098C4.23122 0.624812 4.15279 0.66424 4.11854 0.735939L4.27569 0.811012ZM4.27562 0.811012L4.43241 0.735187C4.39706 0.662081 4.31588 0.623109 4.23672 0.641243C4.15757 0.659378 4.10145 0.729807 4.10145 0.811012H4.27562ZM4.27562 0.811174L4.43271 0.886371C4.44395 0.862896 4.44978 0.837201 4.44978 0.811174H4.27562ZM3.90168 7.20325L3.74401 7.27725C3.78357 7.36154 3.88243 7.39981 3.96843 7.36412C4.05443 7.32843 4.09716 7.23141 4.06541 7.14388L3.90168 7.20325ZM2.46302 5.80065L2.54108 5.64489L2.53695 5.64295L2.46302 5.80065ZM0.49286 3.92463L0.646732 3.84303C0.608361 3.77067 0.524759 3.73483 0.445891 3.75691C0.367022 3.779 0.314199 3.85306 0.318991 3.93482L0.49286 3.92463ZM0.492972 3.92654L0.339116 4.00816C0.377497 4.08051 0.461097 4.11634 0.539958 4.09425C0.618818 4.07216 0.671633 3.9981 0.666841 3.91635L0.492972 3.92654ZM0.492333 3.92533L0.646189 3.84371C0.606888 3.76963 0.520377 3.73407 0.440341 3.75911C0.360306 3.78414 0.309472 3.86265 0.319387 3.94592L0.492333 3.92533ZM0.493468 3.93487L0.667616 3.92438L0.666414 3.91428L0.493468 3.93487ZM3.4497 7.83454L3.41465 8.00515C3.50428 8.02356 3.59287 7.96949 3.61746 7.88136C3.64206 7.79323 3.59427 7.7011 3.50806 7.67044L3.4497 7.83454ZM0.492146 7.55911L0.492551 7.38494H0.492551L0.492146 7.55911ZM0.221985 7.56039L0.219945 7.38623C0.161545 7.38692 0.107375 7.41682 0.0756854 7.46588C0.0439955 7.51494 0.0390045 7.57662 0.062394 7.63014L0.221985 7.56039ZM4.27562 8.28571H4.44978C4.44978 8.23449 4.42724 8.18586 4.38814 8.15277C4.34904 8.11968 4.29736 8.10547 4.24684 8.11394L4.27562 8.28571ZM4.27562 8.28574H4.10145C4.10145 8.37083 4.16293 8.44347 4.24686 8.45752L4.27562 8.28574ZM8.32934 7.56043L8.48895 7.63014C8.51232 7.57663 8.50732 7.51497 8.47563 7.46592C8.44394 7.41687 8.38979 7.38697 8.3314 7.38628L8.32934 7.56043ZM8.32801 7.56042L8.23785 7.4114C8.1713 7.45166 8.13951 7.53118 8.15997 7.60622C8.18043 7.68127 8.24817 7.73365 8.32595 7.73457L8.32801 7.56042ZM8.32934 7.55961L8.41949 7.70863C8.48606 7.66836 8.51784 7.58882 8.49736 7.51377C8.47688 7.43871 8.40911 7.38634 8.33132 7.38546L8.32934 7.55961ZM6.54414 7.62689L6.55984 7.80035L6.55991 7.80034L6.54414 7.62689ZM4.27643 8.04999L4.13593 7.94705C4.09058 8.00895 4.09108 8.09324 4.13717 8.15459C4.18326 8.21595 4.26408 8.23991 4.33616 8.21359L4.27643 8.04999ZM5.95634 6.54758L5.87146 6.39548L5.86969 6.3965L5.95634 6.54758ZM8.05883 3.92533L8.23185 3.94529C8.24145 3.8621 8.19048 3.78385 8.11051 3.75901C8.03053 3.73416 7.9442 3.76975 7.90496 3.84374L8.05883 3.92533ZM6.08867 5.80134L6.01472 5.64359L6.01073 5.64559L6.08867 5.80134ZM4.64902 7.20494L4.48529 7.14555C4.45353 7.2331 4.49627 7.33015 4.5823 7.36582C4.66833 7.4015 4.7672 7.36319 4.80673 7.27885L4.64902 7.20494ZM4.65 7.20224L4.81373 7.26164C4.8218 7.23937 4.82525 7.2157 4.82387 7.19206L4.65 7.20224ZM4.27593 8.05017L4.33606 8.21362C4.37988 8.19751 4.41539 8.16448 4.43462 8.12194L4.27593 8.05017ZM4.27562 8.05028L4.18869 7.89936C4.11031 7.9445 4.07953 8.04214 4.11785 8.12408C4.15618 8.20601 4.25085 8.24497 4.33575 8.21374L4.27562 8.05028ZM4.27824 8.04506L4.43693 8.11684C4.47575 8.03102 4.4393 7.92988 4.35466 7.88856C4.27002 7.84723 4.16785 7.88068 4.12405 7.96407L4.27824 8.04506ZM4.27603 8.04928L4.12157 7.96815L4.11733 7.97752L4.27603 8.04928ZM4.2757 8.05L4.117 7.97824C4.09638 8.02385 4.09637 8.07612 4.11699 8.12173L4.2757 8.05ZM4.27578 8.05019L4.36271 8.20111C4.44034 8.1564 4.47139 8.06009 4.43449 7.97846L4.27578 8.05019ZM3.06077 8.99521L3.12635 8.83386C3.06889 8.8105 3.00333 8.81947 2.95425 8.85741C2.90517 8.89535 2.87998 8.95653 2.8881 9.01803L3.06077 8.99521ZM3.11203 9.17513L2.95326 9.24674C2.96095 9.26378 2.97133 9.27947 2.984 9.29321L3.11203 9.17513ZM5.52153 8.81527L5.69493 8.83157C5.70091 8.76794 5.67156 8.70614 5.61846 8.67057C5.56536 8.635 5.49704 8.63137 5.44047 8.66112L5.52153 8.81527ZM5.46581 9.08978L5.60247 9.19774C5.61553 9.18122 5.62548 9.16246 5.63184 9.14238L5.46581 9.08978ZM5.08607 9.41149L5.17009 9.56405L5.17009 9.56405L5.08607 9.41149ZM4.61139 9.56038L4.59324 9.38717C4.50816 9.39608 4.44216 9.46545 4.43748 9.55086C4.4328 9.63627 4.49084 9.71244 4.57443 9.73059L4.61139 9.56038ZM5.26662 9.44879L5.41919 9.53279C5.45732 9.46353 5.44402 9.37728 5.38679 9.32273C5.32957 9.26818 5.24278 9.25901 5.17543 9.30041L5.26662 9.44879ZM4.84942 9.85937L4.76791 9.70545H4.76791L4.84942 9.85937ZM4.27568 9.97351L4.29208 9.80012C4.28392 9.79935 4.27573 9.79915 4.26755 9.79954L4.27568 9.97351ZM3.36666 9.55507L3.45416 9.40448C3.38204 9.36257 3.29032 9.37769 3.23546 9.44053C3.18059 9.50336 3.17799 9.59628 3.22925 9.66209L3.36666 9.55507ZM3.67122 9.65864L3.69364 9.48593H3.69364L3.67122 9.65864ZM3.99209 9.63626L4.03827 9.80419C4.11792 9.78229 4.17122 9.70745 4.16589 9.62502C4.16056 9.54259 4.09806 9.47524 4.01626 9.46377L3.99209 9.63626ZM4.43281 0.886167L4.43285 0.886086L4.11854 0.735939L4.1185 0.736019L4.43281 0.886167ZM4.11882 0.886838L4.11886 0.886919L4.43245 0.735267L4.43241 0.735187L4.11882 0.886838ZM4.44978 0.811174V0.811012H4.10145V0.811174H4.44978ZM4.06541 7.14388C3.50228 5.59105 3.58887 4.0343 3.82158 2.85612C4.05413 1.67874 4.43022 0.891587 4.43271 0.886371L4.11852 0.735978C4.10851 0.756896 3.71997 1.57292 3.47985 2.78862C3.23989 4.00351 3.14577 5.62973 3.73794 7.26263L4.06541 7.14388ZM2.38499 5.95636C2.81377 6.17123 3.08559 6.36344 3.28251 6.56629C3.47859 6.76827 3.60895 6.98946 3.74401 7.27725L4.05935 7.12926C3.91657 6.82503 3.7667 6.56496 3.53245 6.32366C3.29904 6.08323 2.99045 5.87015 2.54105 5.64494L2.38499 5.95636ZM0.338989 4.00622C0.792915 4.86223 1.51241 5.54738 2.3891 5.95835L2.53695 5.64295C1.72871 5.26407 1.0653 4.63237 0.646732 3.84303L0.338989 4.00622ZM0.666841 3.91635L0.666729 3.91444L0.318991 3.93482L0.319103 3.93673L0.666841 3.91635ZM0.338476 4.00696L0.339116 4.00816L0.646829 3.84491L0.646189 3.84371L0.338476 4.00696ZM0.666414 3.91428L0.665278 3.90474L0.319387 3.94592L0.320522 3.95546L0.666414 3.91428ZM3.50806 7.67044C2.4734 7.30248 0.813068 6.34355 0.66732 3.9244L0.319616 3.94535C0.47739 6.56411 2.29305 7.60805 3.39135 7.99864L3.50806 7.67044ZM0.491741 7.73328C1.80801 7.73634 2.79044 7.8769 3.41465 8.00515L3.48475 7.66394C2.839 7.53127 1.83336 7.38806 0.492551 7.38494L0.491741 7.73328ZM0.224024 7.73454C0.314743 7.73348 0.403984 7.73307 0.491741 7.73328L0.492551 7.38494C0.403169 7.38474 0.312298 7.38515 0.219945 7.38623L0.224024 7.73454ZM4.24684 8.11394C2.52666 8.40211 1.55035 8.2185 1.01327 7.98234C0.745131 7.86444 0.583944 7.73243 0.491949 7.63571C0.445754 7.58714 0.416429 7.54686 0.399542 7.52079C0.391088 7.50774 0.385726 7.49821 0.382913 7.49294C0.381507 7.4903 0.380737 7.48873 0.380536 7.48832C0.380436 7.48811 0.380478 7.48819 0.380654 7.48857C0.380742 7.48877 0.380864 7.48903 0.381018 7.48938C0.381095 7.48955 0.38118 7.48974 0.381273 7.48995C0.381319 7.49005 0.381395 7.49023 0.381418 7.49028C0.381496 7.49045 0.381576 7.49064 0.221985 7.56039C0.062394 7.63014 0.0624781 7.63033 0.0625646 7.63053C0.0625964 7.6306 0.0626856 7.6308 0.0627496 7.63094C0.0628778 7.63123 0.0630158 7.63154 0.0631637 7.63187C0.0634595 7.63253 0.0637949 7.63327 0.0641711 7.63409C0.0649234 7.63573 0.065839 7.63768 0.0669271 7.63993C0.0691034 7.64443 0.0719701 7.65014 0.0756024 7.65694C0.0828675 7.67056 0.0931935 7.68857 0.107179 7.71016C0.135169 7.75337 0.177727 7.81078 0.239552 7.87578C0.363596 8.00619 0.562998 8.16487 0.873056 8.30121C1.49236 8.57353 2.54287 8.75258 4.30439 8.45748L4.24684 8.11394ZM4.44978 8.28574V8.28571H4.10145V8.28574H4.44978ZM8.32934 7.56043C8.16973 7.49073 8.16981 7.49054 8.16988 7.49037C8.16991 7.49031 8.16998 7.49014 8.17003 7.49004C8.17012 7.48983 8.17021 7.48964 8.17029 7.48946C8.17044 7.48912 8.17056 7.48885 8.17065 7.48866C8.17083 7.48828 8.17087 7.48819 8.17077 7.4884C8.17057 7.48881 8.1698 7.49038 8.1684 7.49302C8.16559 7.49828 8.16023 7.50781 8.15178 7.52085C8.13491 7.54691 8.10561 7.58718 8.05944 7.63573C7.96749 7.73242 7.80635 7.8644 7.53825 7.98229C7.00122 8.21842 6.02489 8.40202 4.30438 8.11397L4.24686 8.45752C6.00868 8.75249 7.05921 8.57344 7.67845 8.30116C7.98849 8.16484 8.18785 8.00618 8.31186 7.87577C8.37366 7.81078 8.41621 7.75338 8.44418 7.71017C8.45816 7.68858 8.46848 7.67056 8.47575 7.65695C8.47937 7.65014 8.48224 7.64444 8.48442 7.63993C8.4855 7.63768 8.48642 7.63573 8.48717 7.6341C8.48755 7.63328 8.48788 7.63254 8.48818 7.63188C8.48833 7.63155 8.48846 7.63124 8.48859 7.63095C8.48866 7.6308 8.48874 7.6306 8.48878 7.63053C8.48886 7.63033 8.48895 7.63014 8.32934 7.56043ZM8.32595 7.73457L8.32728 7.73459L8.3314 7.38628L8.33007 7.38626L8.32595 7.73457ZM8.23918 7.4106L8.23785 7.4114L8.41816 7.70943L8.41949 7.70863L8.23918 7.4106ZM6.55991 7.80034C7.06628 7.7543 7.65638 7.72612 8.32735 7.73377L8.33132 7.38546C7.64825 7.37768 7.04629 7.40635 6.52837 7.45344L6.55991 7.80034ZM4.33616 8.21359C4.35199 8.20781 5.11552 7.93111 6.55984 7.80035L6.52844 7.45343C5.05093 7.5872 4.25782 7.87136 4.21669 7.88638L4.33616 8.21359ZM5.86969 6.3965C5.18991 6.7864 4.59931 7.31461 4.13593 7.94705L4.41692 8.15292C4.85154 7.55972 5.40547 7.06432 6.043 6.69866L5.86969 6.3965ZM7.88581 3.90537C7.84504 4.25884 7.62227 4.72707 7.2586 5.19214C6.89781 5.65353 6.41234 6.09363 5.87146 6.39549L6.04122 6.69966C6.6275 6.37246 7.14732 5.89994 7.533 5.40672C7.9158 4.91718 8.18069 4.38881 8.23185 3.94529L7.88581 3.90537ZM6.1626 5.95904C7.03928 5.54807 7.75878 4.86294 8.21271 4.00693L7.90496 3.84374C7.48639 4.63308 6.82298 5.26476 6.01475 5.64364L6.1626 5.95904ZM4.80673 7.27885C4.94173 6.9908 5.07198 6.76943 5.26811 6.56732C5.46508 6.36435 5.73714 6.17202 6.16662 5.95709L6.01073 5.64559C5.56058 5.87086 5.25165 6.08409 5.01813 6.32474C4.78376 6.56626 4.63399 6.82659 4.49131 7.13103L4.80673 7.27885ZM4.48627 7.14285L4.48529 7.14555L4.81275 7.26434L4.81373 7.26164L4.48627 7.14285ZM4.10182 0.821195L4.47613 7.21243L4.82387 7.19206L4.44956 0.80083L4.10182 0.821195ZM4.2158 7.88671L4.21549 7.88683L4.33575 8.21374L4.33606 8.21362L4.2158 7.88671ZM4.11955 7.97329L4.11724 7.97839L4.43462 8.12194L4.43693 8.11684L4.11955 7.97329ZM4.43022 8.13027L4.43243 8.12606L4.12405 7.96407L4.12184 7.96829L4.43022 8.13027ZM4.4344 8.12177L4.43472 8.12104L4.11733 7.97752L4.117 7.97824L4.4344 8.12177ZM4.43449 7.97846L4.43441 7.97827L4.11699 8.12173L4.11707 8.12192L4.43449 7.97846ZM4.36254 8.20121L4.36271 8.20111L4.18886 7.89926L4.18869 7.89936L4.36254 8.20121ZM2.8881 9.01803C2.89855 9.09704 2.9205 9.17409 2.95326 9.24674L3.27079 9.10352C3.25201 9.06187 3.23942 9.0177 3.23344 8.97239L2.8881 9.01803ZM5.52153 8.81527C5.44047 8.66112 5.44052 8.66109 5.44056 8.66107C5.44057 8.66107 5.44061 8.66105 5.44062 8.66104C5.44065 8.66102 5.44067 8.66102 5.44066 8.66102C5.44065 8.66103 5.44056 8.66107 5.44039 8.66116C5.44006 8.66133 5.43943 8.66166 5.43851 8.66213C5.43666 8.66308 5.43363 8.66461 5.42946 8.66669C5.42112 8.67083 5.40823 8.67712 5.39111 8.68511C5.35687 8.7011 5.30581 8.72387 5.24051 8.74992C5.1097 8.80212 4.92293 8.86709 4.70068 8.91752C4.25376 9.01892 3.67836 9.05824 3.12635 8.83386L2.99519 9.15656C3.63803 9.41785 4.29302 9.3672 4.77776 9.25722C5.02134 9.20195 5.22572 9.13087 5.36962 9.07345C5.44166 9.0447 5.49883 9.01925 5.53848 9.00074C5.55832 8.99148 5.57379 8.98394 5.58458 8.97857C5.58997 8.97589 5.5942 8.97375 5.59721 8.97221C5.59872 8.97144 5.59992 8.97082 5.60082 8.97035C5.60127 8.97012 5.60164 8.96992 5.60193 8.96977C5.60208 8.96969 5.60221 8.96963 5.60232 8.96957C5.60237 8.96954 5.60244 8.96951 5.60246 8.96949C5.60253 8.96946 5.60258 8.96943 5.52153 8.81527ZM5.63184 9.14238C5.66386 9.04132 5.68501 8.93713 5.69493 8.83157L5.34812 8.79898C5.34052 8.87987 5.32431 8.95972 5.29977 9.03717L5.63184 9.14238ZM5.17009 9.56405C5.33718 9.47202 5.48418 9.34747 5.60247 9.19774L5.32914 8.9818C5.23963 9.09511 5.12842 9.18932 5.00204 9.25893L5.17009 9.56405ZM4.62954 9.7336C4.81922 9.71373 5.00301 9.65607 5.17009 9.56405L5.00204 9.25893C4.87566 9.32854 4.73667 9.37214 4.59324 9.38717L4.62954 9.7336ZM5.17543 9.30041C5.01783 9.39726 4.829 9.42941 4.64834 9.39018L4.57443 9.73059C4.84299 9.7889 5.12364 9.74109 5.35781 9.59718L5.17543 9.30041ZM4.93092 10.0133C5.137 9.90417 5.3067 9.73714 5.41919 9.53279L5.11404 9.3648C5.03426 9.50973 4.91394 9.62813 4.76791 9.70545L4.93092 10.0133ZM4.25929 10.1469C4.49139 10.1688 4.72484 10.1224 4.93092 10.0133L4.76791 9.70545C4.6219 9.78277 4.45651 9.81566 4.29208 9.80012L4.25929 10.1469ZM3.69749 10.0333C3.88099 10.1178 4.08206 10.1569 4.28382 10.1475L4.26755 9.79954C4.12152 9.80636 3.97598 9.77802 3.84314 9.71687L3.69749 10.0333ZM3.22925 9.66209C3.35342 9.82152 3.51398 9.94882 3.69749 10.0333L3.84314 9.71687C3.7103 9.65573 3.59401 9.56354 3.50406 9.44805L3.22925 9.66209ZM3.69364 9.48593C3.60923 9.47497 3.52782 9.44728 3.45416 9.40448L3.27915 9.70566C3.3928 9.7717 3.51846 9.81444 3.64881 9.83136L3.69364 9.48593ZM3.94591 9.46832C3.86381 9.4909 3.77806 9.49688 3.69364 9.48593L3.6488 9.83136C3.77915 9.84828 3.91155 9.83904 4.03827 9.80419L3.94591 9.46832ZM2.984 9.29321C3.24264 9.57364 3.59029 9.75582 3.96792 9.80874L4.01626 9.46377C3.71843 9.42204 3.44415 9.27834 3.24006 9.05705L2.984 9.29321Z" fill="#32B744" mask="url(#path-1-outside-1_2285_36697)"/>
</svg>
