<svg width="18" height="18" viewBox="0 0 18 18" fill="none" xmlns="http://www.w3.org/2000/svg">
<path fillRule="evenodd" clipRule="evenodd" d="M9 18C13.9706 18 18 13.9706 18 9C18 4.02944 13.9706 0 9 0C4.02944 0 0 4.02944 0 9C0 13.9706 4.02944 18 9 18ZM8.43212 9.34055C8.17559 9.5884 8.00303 9.94811 7.86235 10.3561H10.3333C10.3884 10.3034 10.4465 10.2427 10.5081 10.1784C10.6869 9.99154 10.895 9.77409 11.1443 9.63226C11.525 9.42253 11.8539 9.18421 12.1311 8.91729C12.4083 8.65037 12.6214 8.34532 12.7704 8.00213C12.9235 7.65895 13 7.27001 13 6.83531C13 6.19088 12.8304 5.63416 12.4911 5.16514C12.1559 4.69231 11.6863 4.32816 11.0822 4.07268C10.4823 3.81719 9.78717 3.68945 8.9969 3.68945C8.27282 3.68945 7.61081 3.81147 7.01086 4.05552C6.41505 4.29956 5.93509 4.66562 5.57099 5.15371C5.21102 5.64179 5.02069 6.24808 5 6.97258H7.20947C7.23015 6.61414 7.32532 6.31862 7.49496 6.08602C7.66874 5.84961 7.88596 5.6742 8.14663 5.55981C8.41143 5.4416 8.69072 5.38249 8.98448 5.38249C9.30308 5.38249 9.59064 5.4435 9.84717 5.56553C10.1078 5.68755 10.3147 5.85914 10.4678 6.0803C10.6209 6.30147 10.6974 6.56267 10.6974 6.8639C10.6974 7.13083 10.6395 7.37296 10.5237 7.59031C10.4078 7.80385 10.2485 7.99832 10.0458 8.17372C9.84717 8.34532 9.62167 8.50356 9.36928 8.64846C9.00104 8.85818 8.68865 9.08888 8.43212 9.34055ZM8.68013 14.1835C8.30775 14.1835 7.98709 14.0615 7.71815 13.8175C7.4492 13.5734 7.31473 13.276 7.31473 12.9252C7.31473 12.582 7.4492 12.2884 7.71815 12.0444C7.98709 11.8003 8.30775 11.6783 8.68013 11.6783C9.04838 11.6783 9.36697 11.8003 9.63591 12.0444C9.90899 12.2884 10.0455 12.582 10.0455 12.9252C10.0455 13.1578 9.9814 13.3694 9.85313 13.5601C9.72901 13.7507 9.5635 13.9033 9.35662 14.0177C9.15388 14.1282 8.92839 14.1835 8.68013 14.1835Z" fill="#6C7774"/>
</svg>
