<svg width="16" height="18" viewBox="0 0 16 18" fill="none" xmlns="http://www.w3.org/2000/svg">
<path fillRule="evenodd" clipRule="evenodd" d="M3.25 7.25V1.25H10.75L14.75 5.25V16.75H7.25V14.75H11.25V12.25C11.25 9.48858 9.01142 7.25 6.25 7.25H3.25ZM9.5 13C9.5 10.8226 7.8494 8.74938 5.5 8.75C3.08854 8.75064 1.25 10.7076 1.25 13H5.5H9.5Z" fill="#6C7774"/>
<path d="M3.25 1.25V0.75H2.75V1.25H3.25ZM3.25 7.25H2.75V7.75H3.25V7.25ZM10.75 1.25L11.1036 0.896447L10.9571 0.75H10.75V1.25ZM14.75 5.25H15.25V5.04289L15.1036 4.89645L14.75 5.25ZM14.75 16.75V17.25H15.25V16.75H14.75ZM7.25 16.75H6.75V17.25H7.25V16.75ZM7.25 14.75V14.25H6.75V14.75H7.25ZM11.25 14.75V15.25H11.75V14.75H11.25ZM5.5 8.75L5.49987 8.25L5.5 8.75ZM9.5 13V13.5H10V13H9.5ZM1.25 13H0.75V13.5H1.25V13ZM2.75 1.25V7.25H3.75V1.25H2.75ZM10.75 0.75H3.25V1.75H10.75V0.75ZM15.1036 4.89645L11.1036 0.896447L10.3964 1.60355L14.3964 5.60355L15.1036 4.89645ZM15.25 16.75V5.25H14.25V16.75H15.25ZM7.25 17.25H14.75V16.25H7.25V17.25ZM6.75 14.75V16.75H7.75V14.75H6.75ZM11.25 14.25H7.25V15.25H11.25V14.25ZM10.75 12.25V14.75H11.75V12.25H10.75ZM6.25 7.75C8.73528 7.75 10.75 9.76472 10.75 12.25H11.75C11.75 9.21243 9.28757 6.75 6.25 6.75V7.75ZM3.25 7.75H6.25V6.75H3.25V7.75ZM5.50013 9.25C7.52182 9.24946 9 11.0443 9 13H10C10 10.6009 8.17698 8.24929 5.49987 8.25L5.50013 9.25ZM1.75 13C1.75 10.9747 3.37368 9.25056 5.50013 9.25L5.49987 8.25C2.80341 8.25071 0.75 10.4405 0.75 13H1.75ZM5.5 12.5H1.25V13.5H5.5V12.5ZM9.5 12.5H5.5V13.5H9.5V12.5Z" fill="#6C7774"/>
</svg>
