<svg width="30" height="30" viewBox="0 0 30 30" fill="none" xmlns="http://www.w3.org/2000/svg">
<path d="M15.1786 1.5C15.1786 1.5 9.82527 12.6434 15.1786 22.8222V1.5Z" fill="#1C6525"/>
<path d="M15.1787 1.5C15.1787 1.5 20.532 12.6434 15.1787 22.8222V1.5Z" fill="#32B744"/>
<path d="M15.1787 22.823C15.1787 22.823 25.69 21.468 26.321 10.6714C25.0361 13.0945 22.9995 15.0339 20.5181 16.1971C16.8814 18.0179 16.7123 19.4344 15.1787 22.823Z" fill="#32B744"/>
<path d="M20.1285 18.3967C23.4484 16.5438 26.0504 13.0205 26.3212 10.673C25.0362 13.0962 22.9996 15.0355 20.5182 16.1987C16.8799 18.0195 16.7109 19.4377 15.1772 22.8263C16.5002 21.0193 18.1869 19.5103 20.1285 18.3967Z" fill="#1C6525"/>
<path d="M15.1784 22.823C15.1784 22.823 4.66714 21.468 4.03613 10.6714C5.32107 13.0945 7.35768 15.0339 9.83907 16.1971C13.4725 18.0179 13.6448 19.4344 15.1784 22.823Z" fill="#1C6525"/>
<path d="M10.2274 18.3967C6.90742 16.5438 4.30545 13.0205 4.03467 10.673C5.3196 13.0962 7.35621 15.0355 9.83761 16.1987C13.4759 18.0195 13.645 19.4377 15.1786 22.8263C13.8562 21.0188 12.1694 19.5097 10.2274 18.3967Z" fill="#32B744"/>
<path d="M3.23877 21.3784C3.23877 21.3784 4.92336 25.2328 15.1786 23.5147V22.8212C15.1786 22.8212 11.0266 21.2872 3.23877 21.3784Z" fill="#1C6525"/>
<path d="M15.1787 22.8228V23.5163C25.4356 25.2336 27.1186 21.38 27.1186 21.38C19.3283 21.2871 15.1787 22.8228 15.1787 22.8228Z" fill="#32B744"/>
<path d="M3.23877 21.3784C5.41323 22.6988 10.7386 23.186 15.1368 23.186H15.1762V22.8253C15.1762 22.8253 11.0266 21.2871 3.23877 21.3784Z" fill="#32B744"/>
<path d="M15.1787 22.8229V23.1836C19.5769 23.1836 24.9433 22.6972 27.1186 21.376C19.3283 21.2872 15.1787 22.8229 15.1787 22.8229Z" fill="#1C6525"/>
<path d="M11.6001 25.605C11.6243 25.7881 11.6752 25.9666 11.7511 26.1349C12.4325 26.8738 13.3485 27.3538 14.3432 27.4932C14.0357 27.5777 13.7144 27.6002 13.3981 27.5591C13.0819 27.5181 12.7769 27.4143 12.5011 27.254C12.8164 27.6589 13.2241 27.9822 13.69 28.1966C14.1559 28.4111 14.6663 28.5105 15.1785 28.4865C15.7625 28.5417 16.3499 28.4249 16.8684 28.1503C17.3869 27.8757 17.8141 27.4554 18.0972 26.941C17.5203 27.2956 16.8289 27.4133 16.1673 27.2697C16.6579 27.2183 17.1332 27.0692 17.5654 26.8311C17.9976 26.5931 18.3779 26.2709 18.6839 25.8835C18.7672 25.6206 18.8222 25.3496 18.848 25.075C18.848 25.075 15.1194 27.0355 11.6001 25.605Z" fill="#181818"/>
</svg>
