<svg width="46" height="46" viewBox="0 0 46 46" fill="none" xmlns="http://www.w3.org/2000/svg">
<path d="M0.479167 23C0.479167 10.5621 10.5621 0.479167 23 0.479167C35.4379 0.479167 45.5208 10.5621 45.5208 23C45.5208 35.4379 35.4379 45.5208 23 45.5208C10.5621 45.5208 0.479167 35.4379 0.479167 23Z" fill="#FAFBFC"/>
<path d="M14.6147 23H23.0002M31.3856 23H23.0002M23.0002 23V31.3854M23.0002 23V14.6146" stroke="#09090B" stroke-width="1.4375" stroke-linecap="round" stroke-linejoin="round"/>
<path d="M0.479167 23C0.479167 10.5621 10.5621 0.479167 23 0.479167C35.4379 0.479167 45.5208 10.5621 45.5208 23C45.5208 35.4379 35.4379 45.5208 23 45.5208C10.5621 45.5208 0.479167 35.4379 0.479167 23Z" stroke="#EAEBF0" stroke-width="0.958333"/>
</svg>
