<svg width="22" height="26" viewBox="0 0 22 26" fill="none" xmlns="http://www.w3.org/2000/svg">
<path d="M20.8312 19.9314C20.4537 20.8034 20.0069 21.6061 19.4893 22.3441C18.7836 23.3502 18.2059 24.0466 17.7606 24.4333C17.0704 25.0681 16.3308 25.3932 15.5389 25.4116C14.9704 25.4116 14.2848 25.2499 13.4867 24.9217C12.686 24.5951 11.9502 24.4333 11.2774 24.4333C10.5717 24.4333 9.81494 24.5951 9.00546 24.9217C8.19475 25.2499 7.54165 25.4209 7.04231 25.4378C6.28291 25.4702 5.52597 25.1359 4.77041 24.4333C4.28818 24.0127 3.68499 23.2917 2.96241 22.2702C2.18713 21.1794 1.54975 19.9145 1.05041 18.4724C0.515639 16.9147 0.247559 15.4064 0.247559 13.9461C0.247559 12.2734 0.609005 10.8307 1.33298 9.62169C1.90195 8.65059 2.65889 7.88456 3.60626 7.32221C4.55364 6.75985 5.57727 6.47328 6.67964 6.45495C7.28282 6.45495 8.07381 6.64153 9.05677 7.00821C10.037 7.37613 10.6663 7.56271 10.9423 7.56271C11.1486 7.56271 11.8477 7.34454 13.033 6.90961C14.1538 6.50625 15.0998 6.33924 15.8748 6.40503C17.9747 6.57451 19.5524 7.40232 20.6016 8.89371C18.7235 10.0317 17.7945 11.6255 17.813 13.6702C17.8299 15.2628 18.4077 16.5881 19.5432 17.6404C20.0578 18.1288 20.6324 18.5063 21.2718 18.7743C21.1332 19.1765 20.9868 19.5616 20.8312 19.9314ZM16.015 0.979323C16.015 2.22761 15.5589 3.39313 14.6499 4.47192C13.553 5.7544 12.2261 6.49547 10.7873 6.37853C10.7689 6.22878 10.7583 6.07116 10.7583 5.90554C10.7583 4.70719 11.28 3.42471 12.2064 2.37612C12.6689 1.84519 13.2572 1.40374 13.9705 1.05158C14.6823 0.704678 15.3556 0.512833 15.9888 0.47998C16.0073 0.646857 16.015 0.813743 16.015 0.979306V0.979323Z" fill="#02150F"/>
</svg>
