<svg width="24" height="24" viewBox="0 0 24 24" fill="none" xmlns="http://www.w3.org/2000/svg">
<path fill-rule="evenodd" clip-rule="evenodd" d="M17.7482 7.46156C18.083 7.12682 18.083 6.58411 17.7482 6.24937C17.4135 5.91464 16.8708 5.91464 16.536 6.24937L11.9993 10.7861L7.4625 6.24937C7.12777 5.91464 6.58505 5.91464 6.25032 6.24937C5.91558 6.58411 5.91558 7.12682 6.25032 7.46156L10.7871 11.9983L6.25032 16.5351C5.91558 16.8698 5.91558 17.4125 6.25032 17.7473C6.58505 18.082 7.12777 18.082 7.4625 17.7473L11.9993 13.2105L16.536 17.7473C16.8708 18.082 17.4135 18.082 17.7482 17.7473C18.083 17.4125 18.083 16.8698 17.7482 16.5351L13.2115 11.9983L17.7482 7.46156Z" fill="black"/>
</svg>
