<svg width="26" height="25" viewBox="0 0 26 25" fill="none" xmlns="http://www.w3.org/2000/svg">
<g clip-path="url(#clip0_1494_5074)">
<path d="M24.9934 12.767C24.9934 11.9186 24.9246 11.0657 24.7779 10.2311H13.0063V15.0369H19.7474C19.4676 16.5869 18.5688 17.958 17.2527 18.8293V21.9476H21.2744C23.636 19.7739 24.9934 16.5639 24.9934 12.767Z" fill="#4285F4"/>
<path d="M13.0064 24.9603C16.3724 24.9603 19.2109 23.8551 21.2791 21.9474L17.2574 18.8292C16.1385 19.5904 14.694 20.0215 13.011 20.0215C9.75518 20.0215 6.99458 17.8249 6.00407 14.8717H1.854V18.0863C3.9726 22.3005 8.28775 24.9603 13.0064 24.9603Z" fill="#34A853"/>
<path d="M5.9999 14.8722C5.47713 13.3222 5.47713 11.6438 5.9999 10.0939V6.87927H1.85442C0.0843348 10.4057 0.0843348 14.5603 1.85442 18.0867L5.9999 14.8722Z" fill="#FBBC04"/>
<path d="M13.0064 4.93952C14.7857 4.91201 16.5053 5.58152 17.7939 6.81049L21.357 3.2474C19.1008 1.1288 16.1064 -0.0359667 13.0064 0.000718942C8.28775 0.000718942 3.9726 2.66043 1.854 6.87928L5.99948 10.0939C6.98541 7.13608 9.75059 4.93952 13.0064 4.93952Z" fill="#EA4335"/>
</g>
<defs>
<clipPath id="clip0_1494_5074">
<rect width="24.96" height="24.96" fill="white" transform="translate(0.279785)"/>
</clipPath>
</defs>
</svg>
