<svg width="20" height="20" viewBox="0 0 20 20" fill="none" xmlns="http://www.w3.org/2000/svg">
<circle cx="9.68457" cy="10" r="9.375" fill="#FCEDA5"/>
<g filter="url(#filter0_i_2176_60666)">
<circle cx="9.68457" cy="10" r="7.03125" fill="#F3CF49"/>
</g>
<path d="M9.74411 5.4668C9.74411 5.4668 8.07865 8.93363 9.74411 12.1004V5.4668Z" fill="#FEF5CD"/>
<path d="M9.74414 5.4668C9.74414 5.4668 11.4096 8.93363 9.74414 12.1004V5.4668Z" fill="#FEF5CD"/>
<path d="M9.74414 12.1008C9.74414 12.1008 13.0143 11.6793 13.2106 8.32031C12.8109 9.07418 12.1773 9.67753 11.4053 10.0394C10.2739 10.6059 10.2213 11.0466 9.74414 12.1008Z" fill="#FEF5CD"/>
<path d="M11.2835 10.7237C12.3164 10.1473 13.1259 9.05113 13.2102 8.3208C12.8104 9.07467 12.1768 9.678 11.4048 10.0399C10.2729 10.6064 10.2203 11.0476 9.74316 12.1018C10.1548 11.5396 10.6795 11.0702 11.2835 10.7237Z" fill="#FEF5CD"/>
<path d="M9.74431 12.1008C9.74431 12.1008 6.47414 11.6793 6.27783 8.32031C6.67759 9.07418 7.3112 9.67753 8.08319 10.0394C9.21358 10.6059 9.26719 11.0466 9.74431 12.1008Z" fill="#FEF5CD"/>
<path d="M8.20348 10.7237C7.1706 10.1473 6.3611 9.05113 6.27686 8.3208C6.67661 9.07467 7.31022 9.678 8.08221 10.0399C9.21414 10.6064 9.26673 11.0476 9.74385 12.1018C9.33245 11.5395 8.80766 11.07 8.20348 10.7237Z" fill="#FEF5CD"/>
<path d="M6.02881 11.6511C6.02881 11.6511 6.5529 12.8503 9.74343 12.3158V12.1C9.74343 12.1 8.4517 11.6227 6.02881 11.6511Z" fill="#FEF5CD"/>
<path d="M9.74414 12.1005V12.3163C12.9352 12.8506 13.4588 11.6516 13.4588 11.6516C11.0351 11.6228 9.74414 12.1005 9.74414 12.1005Z" fill="#FEF5CD"/>
<path d="M6.02881 11.6511C6.70531 12.0619 8.36209 12.2135 9.73041 12.2135H9.74267V12.1013C9.74267 12.1013 8.4517 11.6227 6.02881 11.6511Z" fill="#FEF5CD"/>
<path d="M9.74414 12.1007V12.2129C11.1125 12.2129 12.782 12.0616 13.4588 11.6506C11.0351 11.623 9.74414 12.1007 9.74414 12.1007Z" fill="#FEF5CD"/>
<path d="M8.62988 12.9662C8.63741 13.0231 8.65323 13.0787 8.67685 13.131C8.88887 13.3609 9.17382 13.5102 9.4833 13.5536C9.38762 13.5799 9.28767 13.5869 9.18927 13.5741C9.09088 13.5613 8.996 13.5291 8.91018 13.4792C9.00829 13.6051 9.13513 13.7057 9.28007 13.7724C9.42501 13.8392 9.58382 13.8701 9.74317 13.8626C9.92485 13.8798 10.1076 13.8435 10.2689 13.758C10.4302 13.6726 10.5631 13.5418 10.6512 13.3818C10.4717 13.4921 10.2566 13.5288 10.0508 13.4841C10.2034 13.4681 10.3513 13.4217 10.4858 13.3476C10.6202 13.2736 10.7385 13.1733 10.8337 13.0528C10.8597 12.971 10.8768 12.8867 10.8848 12.8013C10.8848 12.8013 9.72479 13.4112 8.62988 12.9662Z" fill="#FEF5CD"/>
<defs>
<filter id="filter0_i_2176_60666" x="2.65332" y="2.96875" width="14.0625" height="14.0625" filterUnits="userSpaceOnUse" color-interpolation-filters="sRGB">
<feFlood flood-opacity="0" result="BackgroundImageFix"/>
<feBlend mode="normal" in="SourceGraphic" in2="BackgroundImageFix" result="shape"/>
<feColorMatrix in="SourceAlpha" type="matrix" values="0 0 0 0 0 0 0 0 0 0 0 0 0 0 0 0 0 0 127 0" result="hardAlpha"/>
<feOffset dy="1.17187"/>
<feComposite in2="hardAlpha" operator="arithmetic" k2="-1" k3="1"/>
<feColorMatrix type="matrix" values="0 0 0 0 0.941176 0 0 0 0 0.745098 0 0 0 0 0.270588 0 0 0 1 0"/>
<feBlend mode="normal" in2="shape" result="effect1_innerShadow_2176_60666"/>
</filter>
</defs>
</svg>
