<svg width="25" height="28" viewBox="0 0 25 28" fill="none" xmlns="http://www.w3.org/2000/svg">
<path d="M12.1786 0.5C12.1786 0.5 6.82527 11.6434 12.1786 21.8222V0.5Z" fill="#1C6525"/>
<path d="M12.1787 0.5C12.1787 0.5 17.532 11.6434 12.1787 21.8222V0.5Z" fill="#32B744"/>
<path d="M12.1787 21.823C12.1787 21.823 22.69 20.468 23.321 9.67139C22.0361 12.0945 19.9995 14.0339 17.5181 15.1971C13.8814 17.0179 13.7123 18.4344 12.1787 21.823Z" fill="#32B744"/>
<path d="M17.1285 17.3966C20.4484 15.5438 23.0504 12.0205 23.3212 9.67297C22.0362 12.0961 19.9996 14.0354 17.5182 15.1986C13.8799 17.0194 13.7109 18.4377 12.1772 21.8262C13.5002 20.0193 15.1869 18.5103 17.1285 17.3966Z" fill="#1C6525"/>
<path d="M12.1789 21.823C12.1789 21.823 1.66763 20.468 1.03662 9.67139C2.32156 12.0945 4.35816 14.0339 6.83956 15.1971C10.473 17.0179 10.6453 18.4344 12.1789 21.823Z" fill="#1C6525"/>
<path d="M7.22737 17.3966C3.90742 15.5438 1.30545 12.0205 1.03467 9.67297C2.3196 12.0961 4.35621 14.0354 6.83761 15.1986C10.4759 17.0194 10.645 18.4377 12.1786 21.8262C10.8562 20.0187 9.16939 18.5096 7.22737 17.3966Z" fill="#32B744"/>
<path d="M0.23877 20.3784C0.23877 20.3784 1.92336 24.2329 12.1786 22.5148V21.8213C12.1786 21.8213 8.02663 20.2872 0.23877 20.3784Z" fill="#1C6525"/>
<path d="M12.1787 21.8228V22.5164C22.4356 24.2337 24.1186 20.38 24.1186 20.38C16.3283 20.2872 12.1787 21.8228 12.1787 21.8228Z" fill="#32B744"/>
<path d="M0.23877 20.3784C2.41323 21.6988 7.73862 22.1861 12.1368 22.1861H12.1762V21.8254C12.1762 21.8254 8.02663 20.2872 0.23877 20.3784Z" fill="#32B744"/>
<path d="M12.1787 21.823V22.1836C16.5769 22.1836 21.9433 21.6973 24.1186 20.376C16.3283 20.2873 12.1787 21.823 12.1787 21.823Z" fill="#1C6525"/>
<path d="M8.6001 24.6052C8.62429 24.7883 8.67515 24.9668 8.75107 25.1351C9.43255 25.874 10.3485 26.3539 11.3432 26.4933C11.0357 26.5779 10.7144 26.6003 10.3981 26.5593C10.0819 26.5182 9.7769 26.4145 9.50106 26.2542C9.81639 26.6591 10.2241 26.9823 10.69 27.1968C11.1559 27.4113 11.6663 27.5107 12.1785 27.4867C12.7625 27.5419 13.3499 27.4251 13.8684 27.1505C14.3869 26.8759 14.8141 26.4556 15.0972 25.9412C14.5203 26.2958 13.8289 26.4135 13.1673 26.2699C13.6579 26.2185 14.1332 26.0694 14.5654 25.8313C14.9976 25.5933 15.3779 25.2711 15.6839 24.8837C15.7672 24.6208 15.8222 24.3498 15.848 24.0752C15.848 24.0752 12.1194 26.0357 8.6001 24.6052Z" fill="white"/>
</svg>
