<svg width="112" height="14" viewBox="0 0 112 14" fill="none" xmlns="http://www.w3.org/2000/svg">
<path d="M3.66936 8.23956C3.29091 8.09278 2.92678 7.90498 2.58241 7.67897C2.26779 7.47164 1.98534 7.21075 1.74565 6.90616C1.51054 6.6032 1.32786 6.25586 1.20658 5.88113C1.07135 5.44286 1.00651 4.98224 1.01494 4.51973C1.00502 3.93443 1.10639 3.35329 1.31263 2.8132C1.50256 2.32791 1.78864 1.8949 2.15015 1.54549C2.52896 1.18801 2.97234 0.921927 3.45139 0.764664C4.00513 0.582084 4.58104 0.493005 5.15931 0.500428C5.70797 0.498617 6.25533 0.558981 6.79263 0.680593C7.36325 0.815752 7.92521 0.99149 8.47494 1.20672C8.42258 1.63959 8.34192 2.06783 8.23358 2.48806C8.12296 2.94019 7.97609 3.38074 7.7947 3.80459C7.50725 3.67086 7.17078 3.53312 6.78238 3.38737C6.31536 3.22927 5.82791 3.15572 5.33924 3.16957C5.1695 3.16844 5.0001 3.18669 4.83381 3.22402C4.68278 3.25651 4.5374 3.31489 4.40299 3.397C4.27719 3.47536 4.17171 3.58752 4.09651 3.72292C4.01484 3.88055 3.97484 4.05992 3.98095 4.24103C3.97059 4.38963 3.99403 4.53876 4.04917 4.67502C4.10431 4.81127 4.18944 4.93043 4.29694 5.02186C4.52691 5.20288 4.7781 5.34912 5.04375 5.45668L5.84028 5.80264C6.30499 6.00871 6.72241 6.21774 7.09252 6.42969C7.44422 6.62766 7.76513 6.88523 8.04339 7.19288C8.31434 7.49896 8.52344 7.86404 8.65709 8.26439C8.97386 9.32607 8.94176 10.4756 8.56637 11.5141C8.36364 12.0273 8.05404 12.4815 7.66231 12.8403C7.23033 13.2301 6.73108 13.5207 6.19431 13.6947C5.54593 13.9048 4.8721 14.0056 4.196 13.9934C3.58658 14.0014 2.97801 13.941 2.37982 13.8132C1.80041 13.6755 1.23178 13.488 0.679199 13.2526C0.729589 12.7964 0.807285 12.3444 0.911794 11.8993C1.02151 11.4215 1.1539 10.934 1.30897 10.437C2.13972 10.8718 3.04202 11.1189 3.96193 11.1634C4.41522 11.1881 4.86716 11.0913 5.27853 10.8814C5.43455 10.7869 5.56226 10.645 5.64624 10.4728C5.73021 10.3005 5.76687 10.1054 5.75178 9.91085C5.75707 9.74722 5.72665 9.58457 5.66305 9.43639C5.59944 9.2882 5.50449 9.15872 5.38605 9.05875C5.27224 8.95986 5.14707 8.87775 5.01374 8.81451C4.8755 8.74884 4.7336 8.6848 4.5917 8.62393L3.66936 8.23956Z" fill="white"/>
<path d="M11.2173 0.72229H18.2165C18.2611 0.988162 18.2948 1.23638 18.316 1.46622C18.3372 1.68355 18.3484 1.90193 18.3496 2.1205C18.3423 2.60211 18.2977 3.08217 18.2165 3.55556H14.1541V5.55361H17.3541C17.4456 6.01962 17.4947 6.49445 17.5004 6.97107C17.4959 7.44698 17.4468 7.92116 17.3541 8.38615H14.1533V10.9648H18.3167C18.4093 11.4181 18.4583 11.8808 18.463 12.3454C18.4604 12.828 18.4114 13.309 18.3167 13.7804H11.2217V0.72708L11.2173 0.72229Z" fill="white"/>
<path d="M23.0922 8.23958C22.7137 8.0928 22.3496 7.905 22.0053 7.67899C21.6907 7.47165 21.4082 7.21076 21.1685 6.90618C20.9334 6.60322 20.7507 6.25588 20.6294 5.88116C20.4942 5.44288 20.4294 4.98226 20.4378 4.51975C20.4279 3.93446 20.5292 3.35331 20.7355 2.81322C20.9259 2.33003 21.2116 1.89896 21.5723 1.55109C21.9507 1.19314 22.3939 0.926557 22.8728 0.768692C23.4265 0.586112 24.0024 0.497034 24.5807 0.504457C25.1294 0.502634 25.6767 0.562998 26.214 0.684622C26.7846 0.819769 27.3466 0.995508 27.8963 1.21075C27.844 1.64362 27.7633 2.07185 27.655 2.49209C27.5444 2.94423 27.3975 3.38478 27.2161 3.80862C26.9286 3.67489 26.5922 3.53715 26.2038 3.3914C25.7368 3.23329 25.2493 3.15968 24.7606 3.17355C24.5909 3.17241 24.4215 3.19071 24.2552 3.22805C24.1042 3.26053 23.9588 3.31891 23.8244 3.40103C23.6986 3.47941 23.5931 3.59157 23.5179 3.72695C23.4362 3.88458 23.3962 4.06395 23.4023 4.24506C23.392 4.39366 23.4154 4.54279 23.4706 4.67905C23.5257 4.8153 23.6108 4.93446 23.7183 5.02589C23.9483 5.2069 24.1995 5.35314 24.4651 5.46071L25.2617 5.80667C25.7264 6.01274 26.1438 6.22177 26.5139 6.43372C26.8656 6.63168 27.1866 6.88925 27.4648 7.19691C27.7358 7.50299 27.9448 7.86803 28.0785 8.26837C28.3952 9.33006 28.3631 10.4796 27.9878 11.5181C27.7851 12.0314 27.4755 12.4855 27.0837 12.8443C26.6517 13.2341 26.1525 13.5247 25.6157 13.6987C24.9673 13.9089 24.2935 14.0096 23.6174 13.9975C23.008 14.0055 22.3994 13.9451 21.8012 13.8173C21.2218 13.6795 20.6532 13.492 20.1006 13.2567C20.151 12.8005 20.2287 12.3484 20.3332 11.9033C20.4429 11.4255 20.5753 10.938 20.7304 10.441C21.5611 10.8758 22.4634 11.1229 23.3833 11.1674C23.8366 11.1922 24.2886 11.0954 24.6999 10.8855C24.8559 10.7909 24.9837 10.649 25.0676 10.4768C25.1516 10.3046 25.1883 10.1094 25.1732 9.91488C25.1785 9.75125 25.148 9.5886 25.0844 9.44042C25.0208 9.29223 24.9259 9.16275 24.8074 9.06278C24.6936 8.9639 24.5685 8.88179 24.4351 8.81854C24.2969 8.75287 24.155 8.68883 24.0131 8.62796L23.0922 8.23958Z" fill="white"/>
<path d="M30.6377 0.759158C30.9354 0.710308 31.2067 0.673432 31.4496 0.650209C31.6924 0.626985 31.9089 0.613403 32.0969 0.613403C32.2849 0.613403 32.5204 0.625383 32.7691 0.650209C33.0178 0.675034 33.2855 0.710308 33.5737 0.759158V5.57048H36.5083V0.759158C36.806 0.710308 37.0737 0.673432 37.3128 0.650209C37.552 0.626985 37.7685 0.613403 37.9675 0.613403C38.1664 0.613403 38.3895 0.625383 38.6397 0.650209C38.8899 0.675034 39.1554 0.710308 39.4443 0.759158V13.7244C38.9614 13.8211 38.4722 13.8747 37.9814 13.8846C37.4864 13.8764 36.9929 13.8228 36.5061 13.7244V8.42218H33.5715V13.7244C33.0886 13.8211 32.5994 13.8747 32.1086 13.8846C31.6136 13.8764 31.1201 13.8228 30.6333 13.7244V0.759158H30.6377Z" fill="white"/>
<path d="M42.0964 0.759069C42.5168 0.685393 42.9754 0.624509 43.4723 0.57646C43.9692 0.528411 44.5497 0.504414 45.2139 0.504414C45.8064 0.501017 46.3978 0.558936 46.9803 0.677394C47.4863 0.775476 47.9721 0.972101 48.4147 1.25797C48.8183 1.52343 49.1524 1.89859 49.3846 2.34707C49.6383 2.87517 49.7612 3.46692 49.7408 4.06323C49.7474 4.605 49.6278 5.13969 49.3933 5.61683C49.1875 6.05108 48.8857 6.42217 48.5156 6.69635C48.7752 6.80805 49.0225 6.95118 49.2529 7.12316C49.4943 7.30174 49.7071 7.52283 49.8827 7.77744C50.0752 8.06079 50.2235 8.37713 50.3215 8.7136C50.6067 9.78544 50.5239 10.9344 50.0889 11.9441C49.8308 12.4558 49.4519 12.8823 48.9918 13.179C48.4794 13.5004 47.9172 13.7157 47.3336 13.814C46.6431 13.9386 45.9443 13.9989 45.2446 13.9942C44.6468 13.9942 44.1104 13.9702 43.6354 13.9222C43.1604 13.8741 42.6462 13.8132 42.0928 13.7395L42.0964 0.759069ZM45.4304 5.71532C45.8226 5.74054 46.212 5.62837 46.5422 5.39502C46.6851 5.26107 46.7962 5.09105 46.8657 4.89964C46.9353 4.70822 46.9614 4.50115 46.9415 4.29629C46.9484 4.07456 46.8998 3.85497 46.8011 3.66121C46.7132 3.49854 46.5911 3.36125 46.4449 3.2608C46.2972 3.1625 46.1343 3.09465 45.9643 3.0606C45.7956 3.02489 45.6242 3.00666 45.4523 3.00615H45.2109C45.1302 3.00521 45.0495 3.01113 44.9695 3.02379V5.70974H45.4325L45.4304 5.71532ZM44.9659 11.3435C45.0441 11.3555 45.14 11.3651 45.2585 11.3707C45.377 11.3763 45.5262 11.3803 45.7142 11.3803C45.9287 11.38 46.1426 11.3559 46.3527 11.3083C46.5588 11.2629 46.7566 11.1804 46.9379 11.064C47.1141 10.9503 47.2597 10.7876 47.3599 10.5923C47.4719 10.3606 47.5264 10.1008 47.5179 9.83878C47.5407 9.60429 47.5039 9.36746 47.4116 9.15439C47.3193 8.94131 47.1752 8.76021 46.9949 8.6311C46.5797 8.39012 46.1135 8.27436 45.6439 8.2956H44.9644L44.9659 11.3435Z" fill="white"/>
<path d="M52.5942 0.759114C52.9151 0.710531 53.1918 0.677412 53.4244 0.659794C53.657 0.642175 53.8787 0.632568 54.0878 0.632568C54.2758 0.632568 54.4836 0.642175 54.7103 0.659794C54.9371 0.677412 55.2106 0.711866 55.5317 0.759114V7.80632C55.5275 8.32165 55.5495 8.83685 55.5976 9.3495C55.6257 9.70653 55.7073 10.0561 55.8389 10.3842C55.9377 10.6305 56.1103 10.8325 56.3283 10.9568C56.5893 11.0832 56.8733 11.1424 57.1585 11.1297C57.4458 11.1426 57.732 11.0834 57.9952 10.9568C58.2172 10.8354 58.3935 10.6328 58.4934 10.3842C58.6242 10.0563 58.7029 9.70639 58.726 9.3495C58.765 8.92614 58.7845 8.41174 58.7845 7.80632V0.759114C59.1158 0.710264 59.3945 0.679013 59.6212 0.659794C59.848 0.640574 60.0557 0.632568 60.2437 0.632568C60.4317 0.632568 60.6585 0.642175 60.8911 0.659794C61.1237 0.677412 61.403 0.711866 61.7212 0.759114V8.18513C61.7287 8.99593 61.6591 9.80537 61.5135 10.6004C61.397 11.259 61.1506 11.8819 60.7915 12.4255C60.4304 12.9436 59.9457 13.3426 59.3908 13.5786C57.9434 14.1119 56.3764 14.1119 54.929 13.5786C54.3739 13.3431 53.8891 12.944 53.5283 12.4255C53.1692 11.8819 52.9228 11.259 52.8063 10.6004C52.6608 9.80537 52.5911 8.99593 52.5986 8.18513V0.759114H52.5942Z" fill="white"/>
<path d="M64.3032 0.759047C64.47 0.735823 64.6792 0.708566 64.933 0.678935C65.1868 0.649305 65.4633 0.620495 65.7632 0.598873C66.0631 0.577251 66.3681 0.554013 66.6834 0.534794C66.9986 0.515574 67.3058 0.507568 67.6035 0.507568C69.6925 0.507568 71.2791 1.07963 72.3631 2.22373C73.4471 3.36784 73.989 5.07171 73.989 7.33536C73.989 9.63585 73.4363 11.3216 72.3309 12.3925C71.2254 13.4635 69.5892 13.9993 67.4221 13.9998C66.8687 13.9998 66.3349 13.9731 65.821 13.9197C65.307 13.8663 64.8011 13.8028 64.3032 13.7291V0.759047ZM67.24 11.144C67.3283 11.1564 67.4172 11.1624 67.5062 11.1617H67.8222C68.2337 11.1651 68.6437 11.1069 69.0408 10.9887C69.4114 10.8802 69.751 10.6711 70.0283 10.3809C70.3282 10.0492 70.5525 9.6448 70.6829 9.20046C70.8593 8.5839 70.9408 7.93955 70.9243 7.29372C70.94 6.6474 70.8562 6.0028 70.6763 5.38698C70.5416 4.93678 70.3181 4.52451 70.0217 4.17935C69.7566 3.88609 69.4302 3.66808 69.0708 3.54427C68.7009 3.41589 68.3149 3.3516 67.9268 3.3537C67.7074 3.3537 67.5457 3.35367 67.4462 3.36328C67.3468 3.37289 67.2795 3.37291 67.2473 3.37291V11.1409L67.24 11.144Z" fill="white"/>
<path d="M76.3281 0.759047C76.4949 0.735823 76.7041 0.708566 76.9579 0.678935C77.2117 0.649305 77.4882 0.620495 77.7881 0.598873C78.088 0.577251 78.393 0.554013 78.7083 0.534794C79.0235 0.515574 79.3307 0.507568 79.6284 0.507568C81.7174 0.507568 83.304 1.07963 84.388 2.22373C85.472 3.36784 86.0139 5.07171 86.0139 7.33536C86.0139 9.63585 85.4612 11.3216 84.3558 12.3925C83.2503 13.4635 81.6141 13.9993 79.447 13.9998C78.8936 13.9998 78.3598 13.9731 77.8459 13.9197C77.3319 13.8663 76.826 13.8028 76.3281 13.7291V0.759047ZM79.2627 11.144C79.351 11.1564 79.4399 11.1623 79.529 11.1617H79.8449C80.2564 11.1651 80.6664 11.1069 81.0635 10.9887C81.4341 10.8802 81.7737 10.6711 82.051 10.3809C82.3509 10.0492 82.5752 9.6448 82.7056 9.20046C82.882 8.5839 82.9635 7.93955 82.947 7.29372C82.9625 6.6482 82.8787 6.00443 82.699 5.38937C82.5643 4.93918 82.3408 4.52691 82.0444 4.18174C81.7793 3.88849 81.4529 3.67047 81.0935 3.54667C80.7236 3.41829 80.3376 3.354 79.9495 3.35609C79.7301 3.35609 79.5684 3.35611 79.469 3.36572C79.3695 3.37533 79.3022 3.3753 79.27 3.3753V11.1433L79.2627 11.144Z" fill="white"/>
<path d="M88.3528 0.759158C88.6505 0.710308 88.9219 0.673432 89.1647 0.650209C89.4076 0.626985 89.624 0.613403 89.812 0.613403C90 0.613403 90.2341 0.625383 90.4842 0.650209C90.7344 0.675034 90.9999 0.710308 91.2888 0.759158V13.7244C90.806 13.8211 90.3167 13.8747 89.8259 13.8846C89.3309 13.8764 88.8374 13.8228 88.3506 13.7244V0.759158H88.3528Z" fill="white"/>
<path d="M93.9409 0.72229H100.94C100.985 0.988162 101.018 1.23638 101.04 1.46622C101.061 1.68355 101.072 1.90193 101.073 2.1205C101.066 2.60211 101.021 3.08217 100.94 3.55556H96.8777V5.55361H100.078C100.169 6.01962 100.218 6.49445 100.224 6.97107C100.22 7.44698 100.17 7.92116 100.078 8.38615H96.877V10.9648H101.04C101.133 11.4181 101.182 11.8808 101.187 12.3454C101.184 12.828 101.135 13.309 101.04 13.7804H93.9453V0.72708L93.9409 0.72229Z" fill="white"/>
<path d="M105.816 8.2396C105.437 8.09284 105.073 7.90504 104.729 7.67902C104.414 7.4717 104.132 7.21082 103.892 6.9062C103.657 6.60325 103.474 6.25591 103.353 5.88118C103.218 5.44291 103.153 4.98229 103.161 4.51977C103.151 3.93448 103.253 3.35334 103.459 2.81324C103.649 2.33004 103.935 1.89897 104.296 1.55111C104.674 1.19364 105.118 0.927613 105.597 0.770328C106.151 0.587747 106.727 0.49862 107.305 0.506043C107.853 0.504221 108.401 0.564634 108.938 0.686257C109.509 0.821405 110.071 0.997143 110.62 1.21238C110.568 1.64525 110.487 2.07343 110.379 2.49368C110.268 2.94579 110.122 3.38638 109.94 3.81026C109.653 3.67652 109.316 3.53878 108.928 3.39303C108.461 3.23492 107.973 3.16132 107.485 3.17518C107.315 3.17405 107.146 3.1923 106.979 3.22963C106.828 3.26212 106.683 3.3205 106.549 3.40261C106.423 3.481 106.317 3.59321 106.242 3.72858C106.16 3.88621 106.12 4.06559 106.126 4.24669C106.116 4.39529 106.14 4.54438 106.195 4.68063C106.25 4.81689 106.335 4.93605 106.442 5.02747C106.672 5.20847 106.924 5.35476 107.189 5.46234L107.986 5.8083C108.45 6.01438 108.868 6.22341 109.238 6.43536C109.59 6.63335 109.911 6.89087 110.189 7.19849C110.46 7.50458 110.669 7.86966 110.803 8.27C111.119 9.33171 111.087 10.4812 110.712 11.5198C110.509 12.033 110.2 12.4871 109.808 12.8459C109.376 13.2357 108.877 13.5263 108.34 13.7004C107.691 13.9105 107.018 14.0112 106.341 13.9991C105.732 14.0071 105.124 13.9467 104.525 13.8189C103.946 13.6811 103.377 13.4937 102.825 13.2583C102.875 12.8021 102.953 12.35 103.057 11.9049C103.167 11.4271 103.3 10.9397 103.456 10.4426C104.287 10.8775 105.189 11.1245 106.109 11.169C106.562 11.1938 107.014 11.097 107.425 10.8871C107.582 10.7926 107.709 10.6506 107.793 10.4784C107.877 10.3062 107.914 10.111 107.899 9.91651C107.904 9.75289 107.874 9.59023 107.81 9.44205C107.746 9.29388 107.651 9.16443 107.533 9.06442C107.419 8.96555 107.294 8.88344 107.161 8.82018C107.022 8.75451 106.881 8.69046 106.739 8.6296L105.816 8.2396Z" fill="white"/>
</svg>
