<svg width="22" height="23" viewBox="0 0 22 23" fill="none" xmlns="http://www.w3.org/2000/svg">
<rect x="1.29922" y="1.50018" width="19.8" height="19.8" rx="9.9" fill="#EEF5F2"/>
<g clip-path="url(#clip0_651_250298)">
<mask id="path-2-outside-1_651_250298" maskUnits="userSpaceOnUse" x="6.22198" y="5.81101" width="10" height="11" fill="black">
<rect fill="white" x="6.22198" y="5.81101" width="10" height="11"/>
<path fillRule="evenodd" clipRule="evenodd" d="M11.2757 6.81101L11.2757 6.81109L11.2756 6.81101V6.81117C11.2631 6.83731 9.74637 10.0175 10.9017 13.2033C10.6239 12.6112 10.3412 12.2407 9.46302 11.8007C8.62056 11.4057 7.92911 10.7473 7.49286 9.92463L7.49297 9.92654L7.49233 9.92533L7.49347 9.93487C7.64523 12.4538 9.38322 13.4553 10.4497 13.8345C9.81472 13.7041 8.82069 13.5622 7.49215 13.5591C7.40358 13.5589 7.31352 13.5593 7.22198 13.5604C7.22198 13.5604 7.79391 14.869 11.2756 14.2857V14.2857C14.7579 14.8688 15.3293 13.5604 15.3293 13.5604L15.328 13.5604L15.3293 13.5596C14.6523 13.5519 14.0563 13.5803 13.5441 13.6269C12.0832 13.7592 11.3049 14.0396 11.2764 14.05C11.7254 13.4372 12.2977 12.9254 12.9563 12.5476C14.0835 11.9185 14.9669 10.7223 15.0588 9.92533C14.6226 10.748 13.9311 11.4064 13.0887 11.8013C12.209 12.2415 11.9267 12.6124 11.649 13.2049L11.65 13.2022L11.2757 6.81101ZM11.2756 14.0503L11.2759 14.0502L11.2782 14.0451L11.276 14.0493L11.2757 14.05L11.2758 14.0502L11.2756 14.0503ZM10.112 15.1751C10.0863 15.118 10.069 15.0574 10.0608 14.9952C11.2556 15.4809 12.5215 14.8153 12.5215 14.8153C12.5128 14.9085 12.4941 15.0005 12.4658 15.0898C12.3619 15.2213 12.2328 15.3307 12.0861 15.4115C11.9393 15.4923 11.7779 15.5429 11.6114 15.5604C11.836 15.6092 12.0707 15.5692 12.2666 15.4488C12.1705 15.6234 12.0255 15.7661 11.8494 15.8594C11.6734 15.9526 11.474 15.9923 11.2757 15.9735C11.1018 15.9816 10.9285 15.9479 10.7703 15.8751C10.6121 15.8023 10.4737 15.6925 10.3667 15.5551C10.4603 15.6095 10.5638 15.6447 10.6712 15.6586C10.7786 15.6726 10.8877 15.665 10.9921 15.6363C10.6544 15.5889 10.3434 15.426 10.112 15.1751Z"/>
</mask>
<path fillRule="evenodd" clipRule="evenodd" d="M11.2757 6.81101L11.2757 6.81109L11.2756 6.81101V6.81117C11.2631 6.83731 9.74637 10.0175 10.9017 13.2033C10.6239 12.6112 10.3412 12.2407 9.46302 11.8007C8.62056 11.4057 7.92911 10.7473 7.49286 9.92463L7.49297 9.92654L7.49233 9.92533L7.49347 9.93487C7.64523 12.4538 9.38322 13.4553 10.4497 13.8345C9.81472 13.7041 8.82069 13.5622 7.49215 13.5591C7.40358 13.5589 7.31352 13.5593 7.22198 13.5604C7.22198 13.5604 7.79391 14.869 11.2756 14.2857V14.2857C14.7579 14.8688 15.3293 13.5604 15.3293 13.5604L15.328 13.5604L15.3293 13.5596C14.6523 13.5519 14.0563 13.5803 13.5441 13.6269C12.0832 13.7592 11.3049 14.0396 11.2764 14.05C11.7254 13.4372 12.2977 12.9254 12.9563 12.5476C14.0835 11.9185 14.9669 10.7223 15.0588 9.92533C14.6226 10.748 13.9311 11.4064 13.0887 11.8013C12.209 12.2415 11.9267 12.6124 11.649 13.2049L11.65 13.2022L11.2757 6.81101ZM11.2756 14.0503L11.2759 14.0502L11.2782 14.0451L11.276 14.0493L11.2757 14.05L11.2758 14.0502L11.2756 14.0503ZM10.112 15.1751C10.0863 15.118 10.069 15.0574 10.0608 14.9952C11.2556 15.4809 12.5215 14.8153 12.5215 14.8153C12.5128 14.9085 12.4941 15.0005 12.4658 15.0898C12.3619 15.2213 12.2328 15.3307 12.0861 15.4115C11.9393 15.4923 11.7779 15.5429 11.6114 15.5604C11.836 15.6092 12.0707 15.5692 12.2666 15.4488C12.1705 15.6234 12.0255 15.7661 11.8494 15.8594C11.6734 15.9526 11.474 15.9923 11.2757 15.9735C11.1018 15.9816 10.9285 15.9479 10.7703 15.8751C10.6121 15.8023 10.4737 15.6925 10.3667 15.5551C10.4603 15.6095 10.5638 15.6447 10.6712 15.6586C10.7786 15.6726 10.8877 15.665 10.9921 15.6363C10.6544 15.5889 10.3434 15.426 10.112 15.1751Z" fill="#32B744"/>
<path d="M11.2757 6.81109L11.1189 6.88692C11.148 6.94719 11.2091 6.98542 11.2761 6.98526C11.343 6.9851 11.404 6.94658 11.4328 6.88617L11.2757 6.81109ZM11.2757 6.81101L11.4496 6.80083C11.4449 6.72151 11.3872 6.65538 11.3092 6.6401C11.2312 6.62481 11.1528 6.66424 11.1185 6.73594L11.2757 6.81101ZM11.2756 6.81101L11.4324 6.73519C11.3971 6.66208 11.3159 6.62311 11.2367 6.64124C11.1576 6.65938 11.1014 6.72981 11.1014 6.81101H11.2756ZM11.2756 6.81117L11.4327 6.88637C11.444 6.8629 11.4498 6.8372 11.4498 6.81117H11.2756ZM10.9017 13.2033L10.744 13.2772C10.7836 13.3615 10.8824 13.3998 10.9684 13.3641C11.0544 13.3284 11.0972 13.2314 11.0654 13.1439L10.9017 13.2033ZM9.46302 11.8007L9.54108 11.6449L9.53695 11.643L9.46302 11.8007ZM7.49286 9.92463L7.64673 9.84303C7.60836 9.77067 7.52476 9.73483 7.44589 9.75691C7.36702 9.779 7.3142 9.85306 7.31899 9.93482L7.49286 9.92463ZM7.49297 9.92654L7.33912 10.0082C7.3775 10.0805 7.4611 10.1163 7.53996 10.0942C7.61882 10.0722 7.67163 9.9981 7.66684 9.91635L7.49297 9.92654ZM7.49233 9.92533L7.64619 9.84371C7.60689 9.76963 7.52038 9.73407 7.44034 9.75911C7.36031 9.78414 7.30947 9.86265 7.31939 9.94592L7.49233 9.92533ZM7.49347 9.93487L7.66762 9.92438L7.66641 9.91428L7.49347 9.93487ZM10.4497 13.8345L10.4147 14.0051C10.5043 14.0236 10.5929 13.9695 10.6175 13.8814C10.6421 13.7932 10.5943 13.7011 10.5081 13.6704L10.4497 13.8345ZM7.49215 13.5591L7.49255 13.3849H7.49255L7.49215 13.5591ZM7.22198 13.5604L7.21995 13.3862C7.16155 13.3869 7.10738 13.4168 7.07569 13.4659C7.044 13.5149 7.039 13.5766 7.06239 13.6301L7.22198 13.5604ZM11.2756 14.2857H11.4498C11.4498 14.2345 11.4272 14.1859 11.3881 14.1528C11.349 14.1197 11.2974 14.1055 11.2468 14.1139L11.2756 14.2857ZM11.2756 14.2857H11.1014C11.1014 14.3708 11.1629 14.4435 11.2469 14.4575L11.2756 14.2857ZM15.3293 13.5604L15.4889 13.6301C15.5123 13.5766 15.5073 13.515 15.4756 13.4659C15.4439 13.4169 15.3898 13.387 15.3314 13.3863L15.3293 13.5604ZM15.328 13.5604L15.2378 13.4114C15.1713 13.4517 15.1395 13.5312 15.16 13.6062C15.1804 13.6813 15.2482 13.7337 15.3259 13.7346L15.328 13.5604ZM15.3293 13.5596L15.4195 13.7086C15.4861 13.6684 15.5178 13.5888 15.4974 13.5138C15.4769 13.4387 15.4091 13.3863 15.3313 13.3855L15.3293 13.5596ZM13.5441 13.6269L13.5598 13.8003L13.5599 13.8003L13.5441 13.6269ZM11.2764 14.05L11.1359 13.947C11.0906 14.009 11.0911 14.0932 11.1372 14.1546C11.1833 14.2159 11.2641 14.2399 11.3362 14.2136L11.2764 14.05ZM12.9563 12.5476L12.8715 12.3955L12.8697 12.3965L12.9563 12.5476ZM15.0588 9.92533L15.2319 9.94529C15.2415 9.8621 15.1905 9.78385 15.1105 9.75901C15.0305 9.73416 14.9442 9.76975 14.905 9.84374L15.0588 9.92533ZM13.0887 11.8013L13.0147 11.6436L13.0107 11.6456L13.0887 11.8013ZM11.649 13.2049L11.4853 13.1456C11.4535 13.2331 11.4963 13.3301 11.5823 13.3658C11.6683 13.4015 11.7672 13.3632 11.8067 13.2789L11.649 13.2049ZM11.65 13.2022L11.8137 13.2616C11.8218 13.2394 11.8253 13.2157 11.8239 13.1921L11.65 13.2022ZM11.2759 14.0502L11.3361 14.2136C11.3799 14.1975 11.4154 14.1645 11.4346 14.1219L11.2759 14.0502ZM11.2756 14.0503L11.1887 13.8994C11.1103 13.9445 11.0795 14.0421 11.1179 14.1241C11.1562 14.206 11.2509 14.245 11.3357 14.2137L11.2756 14.0503ZM11.2782 14.0451L11.4369 14.1168C11.4757 14.031 11.4393 13.9299 11.3547 13.8886C11.27 13.8472 11.1679 13.8807 11.1241 13.9641L11.2782 14.0451ZM11.276 14.0493L11.1216 13.9681L11.1173 13.9775L11.276 14.0493ZM11.2757 14.05L11.117 13.9782C11.0964 14.0238 11.0964 14.0761 11.117 14.1217L11.2757 14.05ZM11.2758 14.0502L11.3627 14.2011C11.4403 14.1564 11.4714 14.0601 11.4345 13.9785L11.2758 14.0502ZM10.0608 14.9952L10.1264 14.8339C10.0689 14.8105 10.0033 14.8195 9.95425 14.8574C9.90517 14.8953 9.87998 14.9565 9.8881 15.018L10.0608 14.9952ZM10.112 15.1751L9.95326 15.2467C9.96095 15.2638 9.97133 15.2795 9.984 15.2932L10.112 15.1751ZM12.5215 14.8153L12.6949 14.8316C12.7009 14.7679 12.6716 14.7061 12.6185 14.6706C12.5654 14.635 12.497 14.6314 12.4405 14.6611L12.5215 14.8153ZM12.4658 15.0898L12.6025 15.1977C12.6155 15.1812 12.6255 15.1625 12.6318 15.1424L12.4658 15.0898ZM12.0861 15.4115L12.1701 15.564L12.1701 15.564L12.0861 15.4115ZM11.6114 15.5604L11.5932 15.3872C11.5082 15.3961 11.4422 15.4655 11.4375 15.5509C11.4328 15.6363 11.4908 15.7124 11.5744 15.7306L11.6114 15.5604ZM12.2666 15.4488L12.4192 15.5328C12.4573 15.4635 12.444 15.3773 12.3868 15.3227C12.3296 15.2682 12.2428 15.259 12.1754 15.3004L12.2666 15.4488ZM11.8494 15.8594L11.7679 15.7054H11.7679L11.8494 15.8594ZM11.2757 15.9735L11.2921 15.8001C11.2839 15.7993 11.2757 15.7992 11.2676 15.7995L11.2757 15.9735ZM10.3667 15.5551L10.4542 15.4045C10.382 15.3626 10.2903 15.3777 10.2355 15.4405C10.1806 15.5034 10.178 15.5963 10.2292 15.6621L10.3667 15.5551ZM10.6712 15.6586L10.6936 15.4859H10.6936L10.6712 15.6586ZM10.9921 15.6363L11.0383 15.8042C11.1179 15.7823 11.1712 15.7074 11.1659 15.625C11.1606 15.5426 11.0981 15.4752 11.0163 15.4638L10.9921 15.6363ZM11.4328 6.88617L11.4329 6.88609L11.1185 6.73594L11.1185 6.73602L11.4328 6.88617ZM11.1188 6.88684L11.1189 6.88692L11.4325 6.73527L11.4324 6.73519L11.1188 6.88684ZM11.4498 6.81117V6.81101H11.1014V6.81117H11.4498ZM11.0654 13.1439C10.5023 11.5911 10.5889 10.0343 10.8216 8.85612C11.0541 7.67874 11.4302 6.89159 11.4327 6.88637L11.1185 6.73598C11.1085 6.7569 10.72 7.57292 10.4799 8.78862C10.2399 10.0035 10.1458 11.6297 10.7379 13.2626L11.0654 13.1439ZM9.38499 11.9564C9.81377 12.1712 10.0856 12.3634 10.2825 12.5663C10.4786 12.7683 10.609 12.9895 10.744 13.2772L11.0593 13.1293C10.9166 12.825 10.7667 12.565 10.5324 12.3237C10.299 12.0832 9.99045 11.8701 9.54105 11.6449L9.38499 11.9564ZM7.33899 10.0062C7.79291 10.8622 8.51241 11.5474 9.3891 11.9584L9.53695 11.643C8.72871 11.2641 8.0653 10.6324 7.64673 9.84303L7.33899 10.0062ZM7.66684 9.91635L7.66673 9.91444L7.31899 9.93482L7.3191 9.93673L7.66684 9.91635ZM7.33848 10.007L7.33912 10.0082L7.64683 9.84491L7.64619 9.84371L7.33848 10.007ZM7.66641 9.91428L7.66528 9.90474L7.31939 9.94592L7.32052 9.95546L7.66641 9.91428ZM10.5081 13.6704C9.4734 13.3025 7.81307 12.3436 7.66732 9.9244L7.31962 9.94535C7.47739 12.5641 9.29305 13.6081 10.3913 13.9986L10.5081 13.6704ZM7.49174 13.7333C8.80801 13.7363 9.79044 13.8769 10.4147 14.0051L10.4848 13.6639C9.839 13.5313 8.83336 13.3881 7.49255 13.3849L7.49174 13.7333ZM7.22402 13.7345C7.31474 13.7335 7.40398 13.7331 7.49174 13.7333L7.49255 13.3849C7.40317 13.3847 7.3123 13.3851 7.21995 13.3862L7.22402 13.7345ZM11.2468 14.1139C9.52666 14.4021 8.55035 14.2185 8.01327 13.9823C7.74513 13.8644 7.58394 13.7324 7.49195 13.6357C7.44575 13.5871 7.41643 13.5469 7.39954 13.5208C7.39109 13.5077 7.38573 13.4982 7.38291 13.4929C7.38151 13.4903 7.38074 13.4887 7.38054 13.4883C7.38044 13.4881 7.38048 13.4882 7.38065 13.4886C7.38074 13.4888 7.38086 13.489 7.38102 13.4894C7.38109 13.4895 7.38118 13.4897 7.38127 13.4899C7.38132 13.4901 7.3814 13.4902 7.38142 13.4903C7.3815 13.4905 7.38158 13.4906 7.22198 13.5604C7.06239 13.6301 7.06248 13.6303 7.06256 13.6305C7.0626 13.6306 7.06269 13.6308 7.06275 13.6309C7.06288 13.6312 7.06302 13.6315 7.06316 13.6319C7.06346 13.6325 7.06379 13.6333 7.06417 13.6341C7.06492 13.6357 7.06584 13.6377 7.06693 13.6399C7.0691 13.6444 7.07197 13.6501 7.0756 13.6569C7.08287 13.6706 7.09319 13.6886 7.10718 13.7102C7.13517 13.7534 7.17773 13.8108 7.23955 13.8758C7.3636 14.0062 7.563 14.1649 7.87306 14.3012C8.49236 14.5735 9.54287 14.7526 11.3044 14.4575L11.2468 14.1139ZM11.4498 14.2857V14.2857H11.1014V14.2857H11.4498ZM15.3293 13.5604C15.1697 13.4907 15.1698 13.4905 15.1699 13.4904C15.1699 13.4903 15.17 13.4901 15.17 13.49C15.1701 13.4898 15.1702 13.4896 15.1703 13.4895C15.1704 13.4891 15.1706 13.4889 15.1706 13.4887C15.1708 13.4883 15.1709 13.4882 15.1708 13.4884C15.1706 13.4888 15.1698 13.4904 15.1684 13.493C15.1656 13.4983 15.1602 13.5078 15.1518 13.5209C15.1349 13.5469 15.1056 13.5872 15.0594 13.6357C14.9675 13.7324 14.8064 13.8644 14.5382 13.9823C14.0012 14.2184 13.0249 14.402 11.3044 14.114L11.2469 14.4575C13.0087 14.7525 14.0592 14.5734 14.6785 14.3012C14.9885 14.1648 15.1878 14.0062 15.3119 13.8758C15.3737 13.8108 15.4162 13.7534 15.4442 13.7102C15.4582 13.6886 15.4685 13.6706 15.4757 13.6569C15.4794 13.6501 15.4822 13.6444 15.4844 13.6399C15.4855 13.6377 15.4864 13.6357 15.4872 13.6341C15.4875 13.6333 15.4879 13.6325 15.4882 13.6319C15.4883 13.6315 15.4885 13.6312 15.4886 13.6309C15.4887 13.6308 15.4887 13.6306 15.4888 13.6305C15.4889 13.6303 15.4889 13.6301 15.3293 13.5604ZM15.3259 13.7346L15.3273 13.7346L15.3314 13.3863L15.3301 13.3863L15.3259 13.7346ZM15.2392 13.4106L15.2378 13.4114L15.4182 13.7094L15.4195 13.7086L15.2392 13.4106ZM13.5599 13.8003C14.0663 13.7543 14.6564 13.7261 15.3274 13.7338L15.3313 13.3855C14.6483 13.3777 14.0463 13.4063 13.5284 13.4534L13.5599 13.8003ZM11.3362 14.2136C11.352 14.2078 12.1155 13.9311 13.5598 13.8003L13.5284 13.4534C12.0509 13.5872 11.2578 13.8714 11.2167 13.8864L11.3362 14.2136ZM12.8697 12.3965C12.1899 12.7864 11.5993 13.3146 11.1359 13.947L11.4169 14.1529C11.8515 13.5597 12.4055 13.0643 13.043 12.6987L12.8697 12.3965ZM14.8858 9.90537C14.845 10.2588 14.6223 10.7271 14.2586 11.1921C13.8978 11.6535 13.4123 12.0936 12.8715 12.3955L13.0412 12.6997C13.6275 12.3725 14.1473 11.8999 14.533 11.4067C14.9158 10.9172 15.1807 10.3888 15.2319 9.94529L14.8858 9.90537ZM13.1626 11.959C14.0393 11.5481 14.7588 10.8629 15.2127 10.0069L14.905 9.84374C14.4864 10.6331 13.823 11.2648 13.0147 11.6436L13.1626 11.959ZM11.8067 13.2789C11.9417 12.9908 12.072 12.7694 12.2681 12.5673C12.4651 12.3643 12.7371 12.172 13.1666 11.9571L13.0107 11.6456C12.5606 11.8709 12.2517 12.0841 12.0181 12.3247C11.7838 12.5663 11.634 12.8266 11.4913 13.131L11.8067 13.2789ZM11.4863 13.1428L11.4853 13.1456L11.8127 13.2643L11.8137 13.2616L11.4863 13.1428ZM11.1018 6.82119L11.4761 13.2124L11.8239 13.1921L11.4496 6.80083L11.1018 6.82119ZM11.2158 13.8867L11.2155 13.8868L11.3357 14.2137L11.3361 14.2136L11.2158 13.8867ZM11.1196 13.9733L11.1172 13.9784L11.4346 14.1219L11.4369 14.1168L11.1196 13.9733ZM11.4302 14.1303L11.4324 14.1261L11.1241 13.9641L11.1218 13.9683L11.4302 14.1303ZM11.4344 14.1218L11.4347 14.121L11.1173 13.9775L11.117 13.9782L11.4344 14.1218ZM11.4345 13.9785L11.4344 13.9783L11.117 14.1217L11.1171 14.1219L11.4345 13.9785ZM11.3625 14.2012L11.3627 14.2011L11.1889 13.8993L11.1887 13.8994L11.3625 14.2012ZM9.8881 15.018C9.89855 15.097 9.9205 15.1741 9.95326 15.2467L10.2708 15.1035C10.252 15.0619 10.2394 15.0177 10.2334 14.9724L9.8881 15.018ZM12.5215 14.8153C12.4405 14.6611 12.4405 14.6611 12.4406 14.6611C12.4406 14.6611 12.4406 14.661 12.4406 14.661C12.4407 14.661 12.4407 14.661 12.4407 14.661C12.4406 14.661 12.4406 14.6611 12.4404 14.6612C12.4401 14.6613 12.4394 14.6617 12.4385 14.6621C12.4367 14.6631 12.4336 14.6646 12.4295 14.6667C12.4211 14.6708 12.4082 14.6771 12.3911 14.6851C12.3569 14.7011 12.3058 14.7239 12.2405 14.7499C12.1097 14.8021 11.9229 14.8671 11.7007 14.9175C11.2538 15.0189 10.6784 15.0582 10.1264 14.8339L9.99519 15.1566C10.638 15.4179 11.293 15.3672 11.7778 15.2572C12.0213 15.202 12.2257 15.1309 12.3696 15.0734C12.4417 15.0447 12.4988 15.0193 12.5385 15.0007C12.5583 14.9915 12.5738 14.9839 12.5846 14.9786C12.59 14.9759 12.5942 14.9738 12.5972 14.9722C12.5987 14.9714 12.5999 14.9708 12.6008 14.9704C12.6013 14.9701 12.6016 14.9699 12.6019 14.9698C12.6021 14.9697 12.6022 14.9696 12.6023 14.9696C12.6024 14.9695 12.6024 14.9695 12.6025 14.9695C12.6025 14.9695 12.6026 14.9694 12.5215 14.8153ZM12.6318 15.1424C12.6639 15.0413 12.685 14.9371 12.6949 14.8316L12.3481 14.799C12.3405 14.8799 12.3243 14.9597 12.2998 15.0372L12.6318 15.1424ZM12.1701 15.564C12.3372 15.472 12.4842 15.3475 12.6025 15.1977L12.3291 14.9818C12.2396 15.0951 12.1284 15.1893 12.002 15.2589L12.1701 15.564ZM11.6295 15.7336C11.8192 15.7137 12.003 15.6561 12.1701 15.564L12.002 15.2589C11.8757 15.3285 11.7367 15.3721 11.5932 15.3872L11.6295 15.7336ZM12.1754 15.3004C12.0178 15.3973 11.829 15.4294 11.6483 15.3902L11.5744 15.7306C11.843 15.7889 12.1236 15.7411 12.3578 15.5972L12.1754 15.3004ZM11.9309 16.0133C12.137 15.9042 12.3067 15.7371 12.4192 15.5328L12.114 15.3648C12.0343 15.5097 11.9139 15.6281 11.7679 15.7054L11.9309 16.0133ZM11.2593 16.1469C11.4914 16.1688 11.7248 16.1224 11.9309 16.0133L11.7679 15.7054C11.6219 15.7828 11.4565 15.8157 11.2921 15.8001L11.2593 16.1469ZM10.6975 16.0333C10.881 16.1178 11.0821 16.1569 11.2838 16.1475L11.2676 15.7995C11.1215 15.8064 10.976 15.778 10.8431 15.7169L10.6975 16.0333ZM10.2292 15.6621C10.3534 15.8215 10.514 15.9488 10.6975 16.0333L10.8431 15.7169C10.7103 15.6557 10.594 15.5635 10.5041 15.4481L10.2292 15.6621ZM10.6936 15.4859C10.6092 15.475 10.5278 15.4473 10.4542 15.4045L10.2791 15.7057C10.3928 15.7717 10.5185 15.8144 10.6488 15.8314L10.6936 15.4859ZM10.9459 15.4683C10.8638 15.4909 10.7781 15.4969 10.6936 15.4859L10.6488 15.8314C10.7791 15.8483 10.9115 15.839 11.0383 15.8042L10.9459 15.4683ZM9.984 15.2932C10.2426 15.5736 10.5903 15.7558 10.9679 15.8087L11.0163 15.4638C10.7184 15.422 10.4442 15.2783 10.2401 15.057L9.984 15.2932Z" fill="#32B744" mask="url(#path-2-outside-1_651_250298)"/>
</g>
<rect x="1.29922" y="1.50018" width="19.8" height="19.8" rx="9.9" stroke="white" stroke-width="1.8"/>
<defs>
<clipPath id="clip0_651_250298">
<rect width="11" height="11" fill="white" transform="translate(6 6.19998)"/>
</clipPath>
</defs>
</svg>
