<svg width="198" height="40" viewBox="0 0 198 40" fill="none" xmlns="http://www.w3.org/2000/svg">
<path d="M20.2382 2C20.2382 2 13.1005 16.8579 20.2382 30.4295V2Z" fill="#1C6525"/>
<path d="M20.2383 2C20.2383 2 27.376 16.8579 20.2383 30.4295V2Z" fill="#32B744"/>
<path d="M20.2383 30.4305C20.2383 30.4305 34.2533 28.6239 35.0947 14.2284C33.3814 17.4592 30.6659 20.045 27.3574 21.596C22.5085 24.0237 22.2831 25.9124 20.2383 30.4305Z" fill="#32B744"/>
<path d="M26.8375 24.5288C31.2641 22.0583 34.7333 17.3606 35.0944 14.2306C33.3811 17.4614 30.6657 20.0472 27.3571 21.5981C22.506 24.0259 22.2807 25.9168 20.2358 30.4349C21.9998 28.0256 24.2487 26.0136 26.8375 24.5288Z" fill="#1C6525"/>
<path d="M20.2382 30.4305C20.2382 30.4305 6.22318 28.6239 5.38184 14.2284C7.09508 17.4592 9.81056 20.045 13.1191 21.596C17.9636 24.0237 18.1934 25.9124 20.2382 30.4305Z" fill="#1C6525"/>
<path d="M13.6363 24.5288C9.20973 22.0583 5.74044 17.3606 5.37939 14.2306C7.09264 17.4614 9.80812 20.0472 13.1166 21.5981C17.9678 24.0259 18.1931 25.9168 20.2379 30.4349C18.4748 28.0249 16.2257 26.0128 13.6363 24.5288Z" fill="#32B744"/>
<path d="M4.31836 28.5045C4.31836 28.5045 6.56448 33.6438 20.2382 31.353V30.4283C20.2382 30.4283 14.7022 28.3829 4.31836 28.5045Z" fill="#1C6525"/>
<path d="M20.2383 30.4305V31.3552C33.9142 33.6449 36.1581 28.5067 36.1581 28.5067C25.771 28.3829 20.2383 30.4305 20.2383 30.4305Z" fill="#32B744"/>
<path d="M4.31836 28.5045C7.21764 30.265 14.3182 30.9147 20.1824 30.9147H20.2349V30.4338C20.2349 30.4338 14.7022 28.3829 4.31836 28.5045Z" fill="#32B744"/>
<path d="M20.2383 30.4305V30.9114C26.1025 30.9114 33.2577 30.2629 36.1581 28.5013C25.771 28.383 20.2383 30.4305 20.2383 30.4305Z" fill="#1C6525"/>
<path d="M15.4668 34.1401C15.4991 34.3843 15.5669 34.6223 15.6681 34.8467C16.5767 35.8319 17.798 36.4718 19.1243 36.6577C18.7142 36.7704 18.2859 36.8003 17.8642 36.7456C17.4425 36.6909 17.0359 36.5526 16.6681 36.3388C17.0885 36.8787 17.6321 37.3097 18.2533 37.5956C18.8745 37.8816 19.5551 38.0141 20.238 37.9822C21.0167 38.0558 21.7998 37.9 22.4912 37.5339C23.1826 37.1678 23.7521 36.6073 24.1296 35.9215C23.3604 36.3942 22.4385 36.5512 21.5564 36.3597C22.2105 36.2912 22.8443 36.0924 23.4206 35.775C23.9968 35.4576 24.5039 35.028 24.9119 34.5115C25.0229 34.161 25.0963 33.7996 25.1307 33.4335C25.1307 33.4335 20.1593 36.0475 15.4668 34.1401Z" fill="white"/>
<path d="M46.2257 24.3194C45.7211 24.1237 45.2355 23.8733 44.7764 23.572C44.3569 23.2955 43.9803 22.9477 43.6607 22.5415C43.3472 22.1376 43.1036 21.6745 42.9419 21.1748C42.7616 20.5905 42.6752 19.9763 42.6864 19.3596C42.6732 18.5792 42.8084 17.8044 43.0833 17.0843C43.3366 16.4372 43.718 15.8599 44.2 15.394C44.7051 14.9173 45.2963 14.5626 45.935 14.3529C46.6733 14.1094 47.4412 13.9907 48.2122 14.0006C48.9438 13.9982 49.6736 14.0786 50.39 14.2408C51.1508 14.421 51.9001 14.6553 52.6331 14.9423C52.5633 15.5195 52.4557 16.0904 52.3113 16.6507C52.1638 17.2536 51.968 17.841 51.7261 18.4061C51.3428 18.2278 50.8942 18.0442 50.3763 17.8498C49.7537 17.639 49.1037 17.541 48.4522 17.5594C48.2258 17.5579 48 17.5822 47.7782 17.632C47.5769 17.6753 47.383 17.7532 47.2038 17.8627C47.0361 17.9671 46.8954 18.1167 46.7952 18.2972C46.6863 18.5074 46.633 18.7466 46.6411 18.988C46.6273 19.1862 46.6585 19.385 46.7321 19.5667C46.8056 19.7484 46.9191 19.9072 47.0624 20.0291C47.369 20.2705 47.704 20.4655 48.0582 20.6089L49.1202 21.0702C49.7398 21.345 50.2964 21.6237 50.7899 21.9063C51.2588 22.1702 51.6867 22.5136 52.0577 22.9238C52.419 23.3319 52.6978 23.8187 52.876 24.3525C53.2983 25.7681 53.2555 27.3008 52.755 28.6855C52.4847 29.3698 52.0719 29.9753 51.5496 30.4537C50.9736 30.9735 50.3079 31.3609 49.5922 31.5929C48.7277 31.8731 47.8293 32.0074 46.9278 31.9913C46.1153 32.0019 45.3038 31.9214 44.5063 31.751C43.7337 31.5673 42.9755 31.3173 42.2388 31.0035C42.306 30.3952 42.4096 29.7925 42.5489 29.1991C42.6952 28.562 42.8717 27.912 43.0785 27.2493C44.1861 27.8291 45.3892 28.1585 46.6157 28.2178C47.2201 28.2508 47.8227 28.1218 48.3712 27.8419C48.5792 27.7159 48.7495 27.5266 48.8615 27.297C48.9735 27.0674 49.0223 26.8072 49.0022 26.5478C49.0093 26.3296 48.9687 26.1128 48.8839 25.9152C48.7991 25.7176 48.6725 25.545 48.5146 25.4117C48.3628 25.2798 48.1959 25.1703 48.0182 25.086C47.8338 24.9985 47.6446 24.9131 47.4554 24.8319L46.2257 24.3194Z" fill="white"/>
<path d="M56.2896 14.2964H65.6218C65.6813 14.6509 65.7262 14.9818 65.7545 15.2883C65.7828 15.5781 65.7977 15.8692 65.7993 16.1607C65.7896 16.8028 65.7302 17.4429 65.6218 18.0741H60.2052V20.7381H64.472C64.594 21.3595 64.6594 21.9926 64.6671 22.6281C64.661 23.2626 64.5956 23.8949 64.472 24.5149H60.2043V27.953H65.7555C65.8789 28.5575 65.9443 29.1745 65.9505 29.7938C65.947 30.4374 65.8816 31.0787 65.7555 31.7073H56.2954V14.3028L56.2896 14.2964Z" fill="white"/>
<path d="M72.1226 24.3194C71.618 24.1237 71.1325 23.8733 70.6734 23.572C70.2539 23.2955 69.8773 22.9477 69.5577 22.5416C69.2442 22.1376 69.0006 21.6745 68.8389 21.1749C68.6586 20.5905 68.5721 19.9763 68.5834 19.3597C68.5702 18.5793 68.7053 17.8044 68.9803 17.0843C69.2342 16.44 69.6152 15.8653 70.096 15.4014C70.6007 14.9242 71.1915 14.5687 71.83 14.3583C72.5684 14.1148 73.3362 13.996 74.1073 14.0059C74.8388 14.0035 75.5686 14.084 76.285 14.2462C77.0459 14.4264 77.7951 14.6607 78.5281 14.9477C78.4583 15.5248 78.3508 16.0958 78.2063 16.6561C78.0589 17.259 77.863 17.8464 77.6211 18.4115C77.2379 18.2332 76.7893 18.0495 76.2714 17.8552C75.6487 17.6444 74.9987 17.5462 74.3472 17.5647C74.1209 17.5632 73.895 17.5876 73.6733 17.6374C73.4719 17.6807 73.2781 17.7586 73.0989 17.868C72.9311 17.9726 72.7905 18.1221 72.6902 18.3026C72.5813 18.5128 72.528 18.7519 72.5361 18.9934C72.5223 19.1915 72.5536 19.3904 72.6271 19.5721C72.7006 19.7537 72.8141 19.9126 72.9574 20.0345C73.2641 20.2759 73.599 20.4709 73.9532 20.6143L75.0152 21.0756C75.6349 21.3503 76.1914 21.629 76.6849 21.9116C77.1539 22.1756 77.5817 22.519 77.9527 22.9292C78.314 23.3373 78.5928 23.824 78.771 24.3578C79.1933 25.7734 79.1505 27.3061 78.65 28.6908C78.3798 29.3752 77.967 29.9807 77.4446 30.4591C76.8687 30.9788 76.203 31.3663 75.4873 31.5983C74.6228 31.8785 73.7243 32.0128 72.8229 31.9966C72.0103 32.0073 71.1989 31.9268 70.4013 31.7563C69.6287 31.5726 68.8706 31.3227 68.1338 31.0089C68.201 30.4006 68.3046 29.7978 68.4439 29.2044C68.5902 28.5673 68.7668 27.9174 68.9735 27.2547C70.0812 27.8345 71.2842 28.1639 72.5108 28.2232C73.1151 28.2562 73.7177 28.1271 74.2662 27.8473C74.4743 27.7212 74.6446 27.532 74.7565 27.3024C74.8685 27.0727 74.9174 26.8125 74.8973 26.5532C74.9043 26.335 74.8637 26.1181 74.7789 25.9206C74.6941 25.723 74.5675 25.5503 74.4096 25.417C74.2578 25.2852 74.0909 25.1757 73.9132 25.0914C73.7289 25.0038 73.5397 24.9184 73.3505 24.8373L72.1226 24.3194Z" fill="white"/>
<path d="M82.1836 14.3455C82.5805 14.2803 82.9423 14.2312 83.2661 14.2002C83.5899 14.1692 83.8786 14.1511 84.1292 14.1511C84.3799 14.1511 84.6939 14.1671 85.0255 14.2002C85.3571 14.2333 85.714 14.2803 86.0982 14.3455V20.7606H90.011V14.3455C90.4079 14.2803 90.7649 14.2312 91.0838 14.2002C91.4027 14.1692 91.6914 14.1511 91.9567 14.1511C92.2219 14.1511 92.5194 14.1671 92.8529 14.2002C93.1865 14.2333 93.5405 14.2803 93.9257 14.3455V31.6324C93.2819 31.7614 92.6296 31.8328 91.9752 31.846C91.3152 31.8351 90.6572 31.7637 90.0081 31.6324V24.5628H86.0953V31.6324C85.4515 31.7614 84.7992 31.8328 84.1448 31.846C83.4848 31.8351 82.8268 31.7637 82.1777 31.6324V14.3455H82.1836Z" fill="white"/>
<path d="M97.4619 14.3455C98.0224 14.2472 98.6338 14.1661 99.2964 14.102C99.9589 14.0379 100.733 14.0059 101.618 14.0059C102.408 14.0014 103.197 14.0786 103.974 14.2366C104.648 14.3673 105.296 14.6295 105.886 15.0107C106.424 15.3646 106.87 15.8648 107.179 16.4628C107.518 17.1669 107.682 17.9559 107.654 18.751C107.663 19.4734 107.504 20.1863 107.191 20.8225C106.917 21.4015 106.514 21.8963 106.021 22.2618C106.367 22.4108 106.697 22.6016 107.004 22.8309C107.326 23.069 107.61 23.3638 107.844 23.7033C108.1 24.0811 108.298 24.5029 108.429 24.9515C108.809 26.3806 108.699 27.9126 108.119 29.2589C107.774 29.9411 107.269 30.5097 106.656 30.9053C105.972 31.3339 105.223 31.6209 104.445 31.7521C103.524 31.9182 102.592 31.9985 101.659 31.9923C100.862 31.9923 100.147 31.9603 99.5139 31.8963C98.8806 31.8322 98.195 31.751 97.457 31.6528L97.4619 14.3455ZM101.907 20.9538C102.43 20.9874 102.949 20.8379 103.39 20.5267C103.58 20.3481 103.728 20.1214 103.821 19.8662C103.914 19.611 103.948 19.3349 103.922 19.0618C103.931 18.7661 103.866 18.4733 103.735 18.215C103.618 17.9981 103.455 17.815 103.26 17.6811C103.063 17.55 102.846 17.4596 102.619 17.4142C102.394 17.3666 102.166 17.3423 101.936 17.3416H101.615C101.507 17.3403 101.399 17.3482 101.293 17.3651V20.9464H101.91L101.907 20.9538ZM101.288 28.458C101.392 28.474 101.52 28.4869 101.678 28.4943C101.836 28.5018 102.035 28.5072 102.286 28.5072C102.572 28.5067 102.857 28.4745 103.137 28.411C103.412 28.3506 103.675 28.2406 103.917 28.0854C104.152 27.9338 104.346 27.7168 104.48 27.4565C104.629 27.1475 104.702 26.8011 104.691 26.4517C104.721 26.1391 104.672 25.8233 104.549 25.5392C104.426 25.2551 104.234 25.0137 103.993 24.8415C103.44 24.5202 102.818 24.3658 102.192 24.3942H101.286L101.288 28.458Z" fill="white"/>
<path d="M111.459 14.3455C111.887 14.2807 112.256 14.2365 112.566 14.2131C112.876 14.1896 113.172 14.1768 113.45 14.1768C113.701 14.1768 113.978 14.1896 114.28 14.2131C114.583 14.2365 114.947 14.2825 115.376 14.3455V23.7418C115.37 24.4289 115.399 25.1158 115.463 25.7993C115.501 26.2754 115.61 26.7414 115.785 27.1789C115.917 27.5073 116.147 27.7767 116.438 27.9424C116.786 28.1109 117.164 28.1898 117.545 28.173C117.928 28.1901 118.309 28.1112 118.66 27.9424C118.956 27.7806 119.191 27.5104 119.324 27.1789C119.499 26.7418 119.604 26.2752 119.635 25.7993C119.687 25.2348 119.713 24.549 119.713 23.7418V14.3455C120.154 14.2804 120.526 14.2387 120.828 14.2131C121.131 14.1874 121.408 14.1768 121.658 14.1768C121.909 14.1768 122.211 14.1896 122.521 14.2131C122.832 14.2365 123.204 14.2825 123.628 14.3455V24.2468C123.638 25.3279 123.545 26.4072 123.351 27.4672C123.196 28.3454 122.867 29.1758 122.389 29.9006C121.907 30.5914 121.261 31.1235 120.521 31.4382C118.591 32.1492 116.502 32.1492 114.572 31.4382C113.832 31.1241 113.185 30.5919 112.704 29.9006C112.226 29.1758 111.897 28.3454 111.742 27.4672C111.548 26.4072 111.455 25.3279 111.465 24.2468V14.3455H111.459Z" fill="white"/>
<path d="M127.071 14.3454C127.293 14.3145 127.572 14.2781 127.911 14.2386C128.249 14.1991 128.618 14.1607 129.017 14.1319C129.417 14.103 129.824 14.0721 130.244 14.0464C130.665 14.0208 131.074 14.0101 131.471 14.0101C134.257 14.0101 136.372 14.7729 137.817 16.2983C139.263 17.8238 139.985 20.0957 139.985 23.1139C139.985 26.1812 139.248 28.4288 137.774 29.8568C136.3 31.2847 134.119 31.9991 131.229 31.9998C130.491 31.9998 129.78 31.9641 129.094 31.893C128.409 31.8218 127.735 31.7371 127.071 31.6389V14.3454ZM130.986 28.1921C131.104 28.2086 131.223 28.2165 131.341 28.2156H131.763C132.311 28.2202 132.858 28.1426 133.388 27.985C133.882 27.8403 134.334 27.5615 134.704 27.1745C135.104 26.7323 135.403 26.1931 135.577 25.6006C135.812 24.7786 135.921 23.9194 135.899 23.0583C135.92 22.1966 135.808 21.3371 135.568 20.516C135.389 19.9157 135.091 19.3661 134.695 18.9058C134.342 18.5148 133.907 18.2241 133.428 18.0591C132.934 17.8879 132.42 17.8022 131.902 17.805C131.61 17.805 131.394 17.8049 131.261 17.8177C131.129 17.8306 131.039 17.8306 130.996 17.8306V28.1879L130.986 28.1921Z" fill="white"/>
<path d="M143.104 14.3454C143.326 14.3145 143.605 14.2781 143.944 14.2386C144.282 14.1991 144.651 14.1607 145.051 14.1319C145.451 14.103 145.857 14.0721 146.278 14.0464C146.698 14.0208 147.107 14.0101 147.504 14.0101C150.29 14.0101 152.405 14.7729 153.85 16.2983C155.296 17.8238 156.018 20.0957 156.018 23.1139C156.018 26.1812 155.281 28.4288 153.808 29.8568C152.334 31.2847 150.152 31.9991 147.263 31.9998C146.525 31.9998 145.813 31.9641 145.128 31.893C144.442 31.8218 143.768 31.7371 143.104 31.6389V14.3454ZM147.017 28.1921C147.134 28.2086 147.253 28.2165 147.372 28.2156H147.793C148.342 28.2202 148.888 28.1426 149.418 27.985C149.912 27.8403 150.365 27.5615 150.734 27.1745C151.134 26.7323 151.433 26.1931 151.607 25.6006C151.842 24.7786 151.951 23.9194 151.929 23.0583C151.95 22.1976 151.838 21.3393 151.599 20.5192C151.419 19.9189 151.121 19.3693 150.726 18.909C150.372 18.518 149.937 18.2273 149.458 18.0623C148.965 17.8911 148.45 17.8054 147.933 17.8082C147.64 17.8082 147.424 17.8082 147.292 17.821C147.159 17.8338 147.069 17.8338 147.027 17.8338V28.1911L147.017 28.1921Z" fill="white"/>
<path d="M159.137 14.3455C159.534 14.2803 159.896 14.2312 160.219 14.2002C160.543 14.1692 160.832 14.1511 161.082 14.1511C161.333 14.1511 161.645 14.1671 161.979 14.2002C162.312 14.2333 162.666 14.2803 163.051 14.3455V31.6324C162.408 31.7614 161.755 31.8328 161.101 31.846C160.441 31.8351 159.783 31.7637 159.134 31.6324V14.3455H159.137Z" fill="white"/>
<path d="M166.587 14.2964H175.92C175.979 14.6509 176.024 14.9818 176.052 15.2883C176.081 15.5781 176.096 15.8692 176.097 16.1607C176.087 16.8028 176.028 17.4429 175.92 18.0741H170.503V20.7381H174.77C174.892 21.3595 174.957 21.9926 174.965 22.6281C174.959 23.2626 174.893 23.8949 174.77 24.5149H170.502V27.953H176.053C176.177 28.5575 176.242 29.1745 176.248 29.7938C176.245 30.4374 176.179 31.0787 176.053 31.7073H166.593V14.3028L166.587 14.2964Z" fill="white"/>
<path d="M182.421 24.3194C181.916 24.1237 181.431 23.8733 180.972 23.572C180.552 23.2956 180.176 22.9477 179.856 22.5416C179.542 22.1376 179.299 21.6745 179.137 21.1749C178.957 20.5905 178.87 19.9763 178.882 19.3597C178.868 18.5793 179.004 17.8044 179.279 17.0843C179.532 16.44 179.913 15.8653 180.394 15.4014C180.899 14.9248 181.491 14.5701 182.129 14.3604C182.868 14.117 183.636 13.9981 184.407 14.008C185.138 14.0056 185.868 14.0861 186.584 14.2483C187.345 14.4285 188.094 14.6628 188.827 14.9498C188.758 15.527 188.65 16.0979 188.506 16.6582C188.358 17.261 188.162 17.8485 187.92 18.4136C187.537 18.2353 187.089 18.0517 186.571 17.8573C185.948 17.6465 185.298 17.5484 184.646 17.5669C184.42 17.5654 184.194 17.5897 183.973 17.6395C183.771 17.6828 183.577 17.7606 183.398 17.8701C183.23 17.9746 183.09 18.1242 182.99 18.3047C182.881 18.5149 182.827 18.7541 182.835 18.9955C182.822 19.1937 182.853 19.3925 182.926 19.5741C183 19.7558 183.113 19.9147 183.257 20.0366C183.563 20.2779 183.898 20.473 184.252 20.6164L185.315 21.0777C185.934 21.3525 186.491 21.6312 186.984 21.9138C187.453 22.1778 187.881 22.5211 188.252 22.9313C188.613 23.3394 188.892 23.8262 189.07 24.36C189.492 25.7756 189.45 27.3082 188.949 28.693C188.679 29.3772 188.266 29.9827 187.744 30.4611C187.168 30.9809 186.502 31.3684 185.787 31.6005C184.922 31.8806 184.024 32.0149 183.122 31.9987C182.31 32.0094 181.498 31.9289 180.701 31.7585C179.928 31.5748 179.17 31.3249 178.433 31.011C178.5 30.4027 178.604 29.7999 178.743 29.2065C178.89 28.5694 179.067 27.9195 179.275 27.2568C180.382 27.8366 181.585 28.166 182.812 28.2252C183.416 28.2583 184.019 28.1293 184.567 27.8494C184.776 27.7234 184.946 27.5342 185.058 27.3045C185.17 27.0749 185.219 26.8147 185.199 26.5553C185.205 26.3371 185.165 26.1203 185.08 25.9227C184.995 25.7251 184.869 25.5525 184.711 25.4192C184.559 25.2874 184.392 25.1779 184.214 25.0935C184.03 25.006 183.841 24.9206 183.652 24.8394L182.421 24.3194Z" fill="white"/>
</svg>
