<svg width="21" height="22" viewBox="0 0 21 22" fill="none" xmlns="http://www.w3.org/2000/svg">
<path d="M14.7202 11L8.76094 5.0494C8.60101 4.8862 8.38308 4.79281 8.15461 4.78955C7.92489 4.78955 7.70458 4.88081 7.54214 5.04325C7.3797 5.20569 7.28844 5.426 7.28844 5.65572C7.28778 5.76972 7.30963 5.88272 7.35274 5.98826C7.39584 6.09379 7.45935 6.18977 7.53963 6.27071L12.2689 11L7.53963 15.7293C7.45935 15.8103 7.39584 15.9063 7.35274 16.0118C7.30963 16.1173 7.28778 16.2303 7.28844 16.3443C7.28844 16.574 7.3797 16.7944 7.54214 16.9568C7.70458 17.1192 7.92489 17.2105 8.15461 17.2105C8.38308 17.2072 8.60101 17.1138 8.76094 16.9506L14.7202 11Z" fill="#BFBFBF"/>
</svg>
