<svg width="12" height="18" viewBox="0 0 12 18" fill="none" xmlns="http://www.w3.org/2000/svg">
<path d="M7.20573 0.860421C7.73571 1.08632 8.09766 1.62194 8.09766 2.26261L8.09816 7.33855C8.09817 7.42139 8.16533 7.48854 8.24816 7.48854H10.5745C11.2389 7.48854 11.6966 7.93692 11.8849 8.40755C12.0731 8.87768 12.0477 9.4815 11.6721 9.96366L6.4234 16.7009C6.00239 17.2413 5.3404 17.3722 4.79379 17.1392C4.26381 16.9133 3.90186 16.3777 3.90186 15.737L3.90136 10.6611C3.90135 10.5782 3.8342 10.5111 3.75136 10.5111H1.42502C0.760661 10.5111 0.302955 10.0627 0.114604 9.59207C-0.0735491 9.12194 -0.0481923 8.51812 0.327435 8.03596L5.57612 1.29876C5.99713 0.758363 6.65912 0.627435 7.20573 0.860421Z" fill="#02150F"/>
</svg>
