<svg width="16" height="16" viewBox="0 0 16 16" fill="none" xmlns="http://www.w3.org/2000/svg">
<path fill-rule="evenodd" clip-rule="evenodd" d="M3.19161 10.4749C3.19161 9.85604 3.43744 9.26255 3.87503 8.82496L5.11246 7.58752C5.34027 7.35972 5.34027 6.99037 5.11246 6.76257C4.88466 6.53476 4.51531 6.53476 4.28751 6.76257L3.05007 8C2.39369 8.65638 2.02494 9.54662 2.02494 10.4749C2.02494 11.4031 2.39369 12.2934 3.05007 12.9498C3.70645 13.6061 4.59669 13.9749 5.52494 13.9749C5.98457 13.9749 6.4397 13.8843 6.86434 13.7085C7.28898 13.5326 7.67481 13.2748 7.99982 12.9498L9.23725 11.7123C9.46506 11.4845 9.46506 11.1152 9.23725 10.8874C9.00945 10.6595 8.6401 10.6596 8.4123 10.8874L7.17486 12.1248C6.95819 12.3415 6.70096 12.5133 6.41787 12.6306C6.13478 12.7479 5.83136 12.8082 5.52494 12.8082C4.9061 12.8082 4.31261 12.5624 3.87503 12.1248C3.43744 11.6872 3.19161 11.0937 3.19161 10.4749ZM6.76238 4.28769C6.53457 4.5155 6.53457 4.88484 6.76238 5.11265C6.99019 5.34046 7.35953 5.34046 7.58734 5.11265L8.82477 3.87521C9.04144 3.65854 9.29867 3.48667 9.58176 3.36941C9.86486 3.25215 10.1683 3.1918 10.4747 3.1918C10.7811 3.1918 11.0845 3.25215 11.3676 3.36941C11.6507 3.48667 11.9079 3.65854 12.1246 3.87521C12.3413 4.09188 12.5131 4.34911 12.6304 4.6322C12.7477 4.91529 12.808 5.21871 12.808 5.52513C12.808 5.83155 12.7477 6.13496 12.6304 6.41806C12.5131 6.70115 12.3413 6.95838 12.1246 7.17505L10.8872 8.41248C10.6594 8.64029 10.6594 9.00963 10.8872 9.23744C11.115 9.46525 11.4843 9.46525 11.7121 9.23744L12.9496 8C13.2746 7.675 13.5324 7.28916 13.7083 6.86452C13.8842 6.43988 13.9747 5.98476 13.9747 5.52513C13.9747 5.0655 13.8842 4.61038 13.7083 4.18574C13.5324 3.7611 13.2746 3.37526 12.9496 3.05026C12.6246 2.72525 12.2387 2.46744 11.8141 2.29155C11.3894 2.11566 10.9343 2.02513 10.4747 2.02513C10.0151 2.02513 9.55994 2.11566 9.1353 2.29155C8.71066 2.46744 8.32482 2.72525 7.99982 3.05026L6.76238 4.28769ZM5.93742 9.23744C5.70962 9.46525 5.70962 9.83459 5.93742 10.0624C6.16523 10.2902 6.53457 10.2902 6.76238 10.0624L10.0622 6.76257C10.29 6.53476 10.29 6.16541 10.0622 5.93761C9.83441 5.7098 9.46506 5.7098 9.23725 5.93761L5.93742 9.23744Z" fill="black"/>
</svg>
