<svg width="38" height="38" viewBox="0 0 38 38" fill="none" xmlns="http://www.w3.org/2000/svg">
<g clip-path="url(#clip0_1778_26264)">
<path d="M17.1668 10.75H20.8335C22.7784 10.75 24.6437 11.5226 26.0189 12.8979C27.3942 14.2732 28.1668 16.1384 28.1668 18.0833C28.1668 20.0283 27.3942 21.8935 26.0189 23.2688C24.6437 24.6441 22.7784 25.4167 20.8335 25.4167V28.625C16.2502 26.7917 9.8335 24.0417 9.8335 18.0833C9.8335 16.1384 10.6061 14.2732 11.9814 12.8979C13.3566 11.5226 15.2219 10.75 17.1668 10.75ZM19.0002 23.5833H20.8335C21.5558 23.5833 22.271 23.4411 22.9383 23.1647C23.6055 22.8883 24.2119 22.4831 24.7226 21.9724C25.2333 21.4617 25.6384 20.8554 25.9148 20.1881C26.1912 19.5208 26.3335 18.8056 26.3335 18.0833C26.3335 17.3611 26.1912 16.6459 25.9148 15.9786C25.6384 15.3113 25.2333 14.705 24.7226 14.1942C24.2119 13.6835 23.6055 13.2784 22.9383 13.002C22.271 12.7256 21.5558 12.5833 20.8335 12.5833H17.1668C15.7081 12.5833 14.3092 13.1628 13.2777 14.1942C12.2463 15.2257 11.6668 16.6246 11.6668 18.0833C11.6668 21.3925 13.9237 23.5522 19.0002 25.8567V23.5833Z" fill="#02150F"/>
</g>
<rect x="0.5" y="0.5" width="37" height="37" rx="18.5" stroke="#E9E6E9"/>
<defs>
<clipPath id="clip0_1778_26264">
<rect width="22" height="22" fill="white" transform="translate(8 8)"/>
</clipPath>
</defs>
</svg>
