<svg width="18" height="18" viewBox="0 0 18 18" fill="none" xmlns="http://www.w3.org/2000/svg">
<path fillRule="evenodd" clipRule="evenodd" d="M0.9375 9C0.9375 4.5472 4.5472 0.9375 9 0.9375C13.4528 0.9375 17.0625 4.5472 17.0625 9C17.0625 13.4528 13.4528 17.0625 9 17.0625C4.5472 17.0625 0.9375 13.4528 0.9375 9ZM9.30103 6.22347L11.491 5.49349C12.1556 5.27193 12.488 5.16115 12.6634 5.33658C12.8389 5.51201 12.7281 5.84435 12.5065 6.50902L11.7765 8.69897C11.399 9.83162 11.2102 10.3979 10.8041 10.8041C10.3979 11.2102 9.83162 11.399 8.69898 11.7765L6.50903 12.5065C5.84435 12.7281 5.51201 12.8389 5.33658 12.6634C5.16115 12.488 5.27193 12.1556 5.49349 11.491L6.22347 9.30103C6.60102 8.16838 6.78979 7.60206 7.19593 7.19593C7.60206 6.78979 8.16838 6.60102 9.30103 6.22347ZM9.53103 8.46897C9.82299 8.76094 9.82299 9.23431 9.53103 9.52628L9.52628 9.53103C9.23431 9.82299 8.76094 9.82299 8.46897 9.53103C8.17701 9.23906 8.17701 8.76569 8.46897 8.47372L8.47372 8.46897C8.76569 8.17701 9.23906 8.17701 9.53103 8.46897Z" fill="#02150F"/>
</svg>
