<svg width="56" height="56" viewBox="0 0 56 56" fill="none" xmlns="http://www.w3.org/2000/svg">
<rect width="56" height="56" rx="12" fill="#F1F1F1"/>
<rect x="13.7895" y="13.7895" width="28.421" height="28.421" rx="14.2105" fill="#908C95"/>
<g clip-path="url(#clip0_1818_43954)">
<path d="M31.3764 22.6611C30.7747 22.6611 30.2869 23.1489 30.2869 23.7507V27.0191C30.2869 27.6215 29.7992 28.1087 29.1975 28.1087V22.6611C29.1975 22.0594 28.7097 21.5716 28.108 21.5716C27.5063 21.5716 27.0184 22.0594 27.0184 22.6611V30.2876C26.4167 30.2876 25.9291 29.8004 25.9291 29.1982V25.9297C25.9291 25.3278 25.4413 24.84 24.8395 24.84C24.2378 24.84 23.75 25.3278 23.75 25.9296V29.198C23.75 31.0035 25.2141 32.4665 27.0184 32.4665V34.6454H29.1975V30.2874C31.0019 30.2874 32.466 28.8246 32.466 27.019V23.7505C32.466 23.1488 31.9782 22.6611 31.3764 22.6611Z" fill="white"/>
</g>
<rect x="13.7895" y="13.7895" width="28.421" height="28.421" rx="14.2105" stroke="white" stroke-width="1.57895"/>
<defs>
<clipPath id="clip0_1818_43954">
<rect width="13.0738" height="13.0739" fill="white" transform="translate(21.5703 21.5714)"/>
</clipPath>
</defs>
</svg>
