<svg width="24" height="25" viewBox="0 0 24 25" fill="none" xmlns="http://www.w3.org/2000/svg">
<path fill-rule="evenodd" clip-rule="evenodd" d="M3 12.25C3 7.27944 7.02943 3.25 12 3.25C16.9705 3.25 21 7.27944 21 12.25C21 17.2206 16.9705 21.25 12 21.25C7.02943 21.25 3 17.2206 3 12.25ZM12 1.25C5.92487 1.25 1 6.17487 1 12.25C1 18.3251 5.92487 23.25 12 23.25C18.0751 23.25 23 18.3251 23 12.25C23 6.17487 18.0751 1.25 12 1.25ZM10 10.25C10 11.3546 9.32843 12.25 8.5 12.25C7.67157 12.25 7 11.3546 7 10.25C7 9.14543 7.67157 8.25 8.5 8.25C9.32843 8.25 10 9.14543 10 10.25ZM15.5 12.25C16.3284 12.25 17 11.3546 17 10.25C17 9.14543 16.3284 8.25 15.5 8.25C14.6716 8.25 14 9.14543 14 10.25C14 11.3546 14.6716 12.25 15.5 12.25ZM12 18.25C9.79086 18.25 8 15.9837 8 14.4216C8 12.8595 16 12.8595 16 14.4216C16 15.9837 14.2091 18.25 12 18.25Z" fill="#02150F"/>
</svg>
