<svg width="87" height="15" viewBox="0 0 87 15" fill="none" xmlns="http://www.w3.org/2000/svg">
<path fillRule="evenodd" clipRule="evenodd" d="M15.552 5.65009C15.552 5.81547 15.4305 5.97165 15.309 6.09108L11.9163 9.34333L12.7201 13.9369C12.7295 14.0012 12.7295 14.0563 12.7295 14.1206C12.7295 14.3596 12.6173 14.58 12.3462 14.58C12.2154 14.58 12.0846 14.534 11.9724 14.4698L7.776 12.3016L3.57957 14.4698C3.45807 14.534 3.33657 14.58 3.20573 14.58C2.93469 14.58 2.81319 14.3596 2.81319 14.1206C2.81319 14.0563 2.82254 14.0012 2.83188 13.9369L3.63565 9.34333L0.233654 6.09108C0.1215 5.97165 0 5.81547 0 5.65009C0 5.37448 0.289731 5.26424 0.523385 5.22748L5.21516 4.55682L7.31804 0.376673C7.40216 0.202117 7.56104 0 7.776 0C7.99096 0 8.14985 0.202117 8.23396 0.376673L10.3368 4.55682L15.0286 5.22748C15.2529 5.26424 15.552 5.37448 15.552 5.65009Z" fill="#02150F"/>
<path fillRule="evenodd" clipRule="evenodd" d="M33.2639 5.65009C33.2639 5.81547 33.1424 5.97165 33.0209 6.09108L29.6282 9.34333L30.432 13.9369C30.4414 14.0012 30.4414 14.0563 30.4414 14.1206C30.4414 14.3596 30.3293 14.58 30.0582 14.58C29.9273 14.58 29.7965 14.534 29.6843 14.4698L25.4879 12.3016L21.2915 14.4698C21.17 14.534 21.0485 14.58 20.9176 14.58C20.6466 14.58 20.5251 14.3596 20.5251 14.1206C20.5251 14.0563 20.5345 14.0012 20.5438 13.9369L21.3476 9.34333L17.9456 6.09108C17.8334 5.97165 17.7119 5.81547 17.7119 5.65009C17.7119 5.37448 18.0016 5.26424 18.2353 5.22748L22.9271 4.55682L25.03 0.376673C25.1141 0.202117 25.273 0 25.4879 0C25.7029 0 25.8618 0.202117 25.9459 0.376673L28.0487 4.55682L32.7405 5.22748C32.9648 5.26424 33.2639 5.37448 33.2639 5.65009Z" fill="#02150F"/>
<path fillRule="evenodd" clipRule="evenodd" d="M50.9758 5.65009C50.9758 5.81547 50.8543 5.97165 50.7328 6.09108L47.3402 9.34333L48.1439 13.9369C48.1533 14.0012 48.1533 14.0563 48.1533 14.1206C48.1533 14.3596 48.0412 14.58 47.7701 14.58C47.6392 14.58 47.5084 14.534 47.3962 14.4698L43.1998 12.3016L39.0034 14.4698C38.8819 14.534 38.7604 14.58 38.6296 14.58C38.3585 14.58 38.237 14.3596 38.237 14.1206C38.237 14.0563 38.2464 14.0012 38.2557 13.9369L39.0595 9.34333L35.6575 6.09108C35.5453 5.97165 35.4238 5.81547 35.4238 5.65009C35.4238 5.37448 35.7136 5.26424 35.9472 5.22748L40.639 4.55682L42.7419 0.376673C42.826 0.202117 42.9849 0 43.1998 0C43.4148 0 43.5737 0.202117 43.6578 0.376673L45.7607 4.55682L50.4524 5.22748C50.6767 5.26424 50.9758 5.37448 50.9758 5.65009Z" fill="#02150F"/>
<path fillRule="evenodd" clipRule="evenodd" d="M68.6877 5.65009C68.6877 5.81547 68.5662 5.97165 68.4447 6.09108L65.0521 9.34333L65.8558 13.9369C65.8652 14.0012 65.8652 14.0563 65.8652 14.1206C65.8652 14.3596 65.7531 14.58 65.482 14.58C65.3512 14.58 65.2203 14.534 65.1082 14.4698L60.9117 12.3016L56.7153 14.4698C56.5938 14.534 56.4723 14.58 56.3415 14.58C56.0704 14.58 55.9489 14.3596 55.9489 14.1206C55.9489 14.0563 55.9583 14.0012 55.9676 13.9369L56.7714 9.34333L53.3694 6.09108C53.2572 5.97165 53.1357 5.81547 53.1357 5.65009C53.1357 5.37448 53.4255 5.26424 53.6591 5.22748L58.3509 4.55682L60.4538 0.376673C60.5379 0.202117 60.6968 0 60.9117 0C61.1267 0 61.2856 0.202117 61.3697 0.376673L63.4726 4.55682L68.1643 5.22748C68.3887 5.26424 68.6877 5.37448 68.6877 5.65009Z" fill="#02150F"/>
<path fillRule="evenodd" clipRule="evenodd" d="M86.3997 5.65009C86.3997 5.81547 86.2782 5.97165 86.1567 6.09108L82.764 9.34333L83.5677 13.9369C83.5772 14.0012 83.5772 14.0563 83.5772 14.1206C83.5772 14.3596 83.465 14.58 83.1939 14.58C83.0631 14.58 82.9322 14.534 82.8201 14.4698L78.6237 12.3016L74.4272 14.4698C74.3057 14.534 74.1842 14.58 74.0534 14.58C73.7823 14.58 73.6608 14.3596 73.6608 14.1206C73.6608 14.0563 73.6702 14.0012 73.6795 13.9369L74.4833 9.34333L71.0813 6.09108C70.9692 5.97165 70.8477 5.81547 70.8477 5.65009C70.8477 5.37448 71.1374 5.26424 71.371 5.22748L76.0628 4.55682L78.1657 0.376673C78.2498 0.202117 78.4087 0 78.6237 0C78.8386 0 78.9975 0.202117 79.0816 0.376673L81.1845 4.55682L85.8762 5.22748C86.1006 5.26424 86.3997 5.37448 86.3997 5.65009Z" fill="#E9E6E9"/>
</svg>
