<svg width="18" height="18" viewBox="0 0 18 18" fill="none" xmlns="http://www.w3.org/2000/svg">
<g clip-path="url(#clip0_1516_36123)">
<path fillRule="evenodd" clipRule="evenodd" d="M8.99636 9.93373C9.2409 9.50524 9.39971 9.03445 9.56781 8.53602L9.56826 8.53469L9.56826 8.53468C9.74281 8.01733 9.92327 7.48249 10.2101 6.98997C10.5874 6.34204 11.1431 5.80421 11.7922 5.42945V1.35933C11.7922 0.84923 11.3818 0.434924 10.8733 0.428482C10.8693 0.428431 10.8653 0.428406 10.8612 0.428406H7.13759C6.62337 0.428406 6.2066 0.845213 6.2066 1.35933V6.20729H1.35873C0.902849 6.20729 0.523552 6.53489 0.44336 6.96754C0.435925 7.00766 0.431061 7.04867 0.428946 7.09041C0.428141 7.10628 0.427734 7.12226 0.427734 7.13832V10.8619C0.427734 11.3761 0.844514 11.7929 1.35873 11.7929H6.1691C7.32976 11.6555 8.41574 10.951 8.99635 9.93373H8.99636ZM16.6392 6.20714H11.8004C11.3881 6.50391 11.0356 6.88321 10.7799 7.32217C10.5267 7.75729 10.3644 8.23809 10.1928 8.74696L10.1928 8.74701C10.022 9.2534 9.84532 9.777 9.56907 10.261C8.87982 11.4687 7.58523 12.3023 6.20564 12.4534V16.6408C6.20564 17.1549 6.62244 17.5717 7.13659 17.5717H10.8603C11.3744 17.5717 11.7912 17.1549 11.7912 16.6408V11.7928H16.6392C17.1533 11.7928 17.5701 11.376 17.5701 10.8618V7.13815C17.5701 6.62396 17.1533 6.20716 16.6392 6.20716L16.6392 6.20714Z" fill="#32B744"/>
</g>
<defs>
<clipPath id="clip0_1516_36123">
<rect width="17.1431" height="17.1432" fill="white" transform="translate(0.427734 0.428406)"/>
</clipPath>
</defs>
</svg>
