<svg width="16" height="14" viewBox="0 0 16 14" fill="none" xmlns="http://www.w3.org/2000/svg">
<path d="M14.0352 1.7207C15.8809 3.30273 15.9688 6.11523 14.3281 7.81445L8.64453 13.6738C8.46875 13.8496 8.23438 13.9375 7.9707 13.9375C7.73633 13.9375 7.50195 13.8496 7.32617 13.6738L1.64258 7.81445C0.00195312 6.11523 0.0898438 3.30273 1.93555 1.7207C3.81055 0.138672 6.21289 0.871094 7.41406 2.10156L8 2.7168L8.55664 2.10156C10.0508 0.578125 12.4238 0.373047 14.0352 1.7207ZM13.6543 7.16992C14.7676 5.99805 15.002 3.80078 13.4199 2.45312C11.8086 1.07617 9.9043 2.07227 9.23047 2.77539L8 4.06445L6.74023 2.77539C6.03711 2.07227 4.16211 1.07617 2.55078 2.45312C0.96875 3.80078 1.20312 5.99805 2.31641 7.16992L8 13.0293L13.6543 7.16992Z" fill="#BFBFBF"/>
</svg>
