<svg width="56" height="56" viewBox="0 0 56 56" fill="none" xmlns="http://www.w3.org/2000/svg">
<rect width="56" height="56" rx="12" fill="#FFF0E3"/>
<rect x="13.7895" y="13.7895" width="28.421" height="28.421" rx="14.2105" fill="#FEA051"/>
<g clip-path="url(#clip0_1818_82485)">
<path d="M33.7281 29.6571C33.3675 29.4128 32.9428 29.482 32.5666 29.6991C32.1904 29.9163 30.0307 31.7629 30.0307 31.7629L27.9047 31.7633C27.8058 31.7633 27.6987 31.6521 27.6987 31.5536C27.6987 31.4378 27.7996 31.3476 27.9047 31.3476H29.2054C29.6607 31.3476 30.1703 31.0509 30.1703 30.5236C30.1703 29.9632 29.6607 29.6995 29.2054 29.6995C28.3394 29.6995 27.7627 29.7578 27.3773 29.5516C27.0477 29.3827 26.6678 29.2871 26.2624 29.2871C25.5818 29.2871 24.9724 29.5586 24.5546 29.9867L22.3359 32.1712L24.808 34.6433L25.632 33.8193H29.8045C30.2198 33.8193 30.6207 33.6668 30.9309 33.3912L33.7561 30.222C33.9287 30.0687 33.9188 29.7869 33.7281 29.6571Z" fill="white"/>
<path d="M26.4766 27.1241C26.4766 27.1978 26.5159 27.2662 26.5804 27.3029C26.6171 27.3239 27.5066 27.8152 28.3965 27.8052C28.1458 28.1933 28.0348 28.5931 28.0288 28.6152C28.0095 28.6865 28.0296 28.7627 28.082 28.815C28.1339 28.8675 28.2103 28.8877 28.282 28.8681C28.309 28.8607 28.9161 28.6918 29.3617 28.2967V26.1971C29.3617 26.0838 29.4544 25.9911 29.5677 25.9911C29.606 25.9911 29.64 26.0044 29.6707 26.0228C29.6111 26.0588 29.5685 26.1221 29.5685 26.1971V28.8752C29.5685 28.9501 29.6111 29.0134 29.6715 29.0492C29.6713 29.0494 29.6711 29.0496 29.6709 29.0496C29.6723 29.0505 29.674 29.0509 29.6752 29.0517C29.6865 29.0581 29.6977 29.0637 29.7104 29.068C29.7302 29.0756 29.7508 29.0812 29.7735 29.0812C29.7737 29.0812 29.7737 29.0812 29.7739 29.0812C29.7741 29.081 29.7743 29.0812 29.7745 29.0812C29.8878 29.0812 29.9805 28.9885 29.9805 28.8752V28.08C30.0197 28.1267 30.0563 28.1735 30.1035 28.2205C30.5526 28.6702 31.2357 28.8599 31.2643 28.8679C31.2823 28.8727 31.3004 28.8752 31.3185 28.8752C31.3725 28.8752 31.4252 28.8539 31.4642 28.8148C31.5165 28.7625 31.5367 28.6862 31.5173 28.615C31.5113 28.5931 31.4003 28.1931 31.1496 27.8049C32.0348 27.813 32.9293 27.3237 32.9657 27.3027C33.03 27.266 33.0696 27.1976 33.0696 27.1239C33.0696 27.0501 33.0302 26.982 32.9657 26.9453C32.9361 26.9284 32.3473 26.5959 31.6487 26.4811C31.7075 26.429 31.7645 26.3748 31.8206 26.319C32.6817 25.4581 33.0469 24.1436 33.0622 24.0882C33.0815 24.0169 33.0613 23.9407 33.009 23.8883C32.9567 23.8358 32.8811 23.8162 32.809 23.8352C32.7583 23.849 31.6461 24.1584 30.7984 24.8749C30.8017 24.8014 30.8031 24.727 30.8031 24.652C30.8031 23.1723 29.9867 21.7265 29.9521 21.6657C29.8781 21.5374 29.668 21.5374 29.594 21.6657C29.5594 21.7265 28.743 23.1725 28.743 24.652C28.743 24.727 28.7447 24.8014 28.7478 24.8749C27.9001 24.1586 26.7878 23.8492 26.7372 23.8352C26.6651 23.8162 26.5895 23.8358 26.5371 23.8883C26.4848 23.9407 26.4646 24.0169 26.484 24.0882C26.4992 24.1436 26.8647 25.4581 27.7256 26.319C27.7816 26.3748 27.8387 26.429 27.8974 26.4811C27.1988 26.5959 26.6103 26.9284 26.5804 26.9453C26.5161 26.982 26.4766 27.0503 26.4766 27.1241Z" fill="white"/>
</g>
<rect x="13.7895" y="13.7895" width="28.421" height="28.421" rx="14.2105" stroke="white" stroke-width="1.57895"/>
<defs>
<clipPath id="clip0_1818_82485">
<rect width="13.0738" height="13.0739" fill="white" transform="translate(21.5703 21.5714)"/>
</clipPath>
</defs>
</svg>
