<svg width="18" height="19" viewBox="0 0 18 19" fill="none" xmlns="http://www.w3.org/2000/svg">
<g clip-path="url(#clip0_651_253230)">
<path d="M10.59 11.09C10.384 11.3111 10.1356 11.4884 9.85961 11.6113C9.58362 11.7343 9.28568 11.8004 8.98357 11.8058C8.68146 11.8111 8.38137 11.7555 8.10121 11.6424C7.82104 11.5292 7.56654 11.3608 7.35288 11.1471C7.13923 10.9335 6.97079 10.679 6.85763 10.3988C6.74447 10.1186 6.68889 9.81854 6.69423 9.51643C6.69956 9.21433 6.76568 8.91639 6.88866 8.64039C7.01163 8.36439 7.18894 8.11599 7.41 7.91M0.75 1.25L17.25 17.75M7.5 3.49991C12.375 3.1262 15.75 6.48952 17.25 9.47913C16.8386 10.3553 16.5061 10.8472 15.75 11.7213M13.455 13.955C12.1729 14.9323 10.6118 15.4736 9 15.5C5.93333 15.5 3.63437 13.4528 2.25261 11.75C1.26885 10.5377 0.75 9.5 0.75 9.5C1.17776 8.70283 1.68142 7.95184 2.25261 7.25683C2.92715 6.43607 3.69587 5.6934 4.545 5.045L13.455 13.955Z" stroke="#02150F" stroke-width="1.5" stroke-linecap="round" stroke-linejoin="round"/>
</g>
<defs>
<clipPath id="clip0_651_253230">
<rect width="18" height="18" fill="white" transform="translate(0 0.5)"/>
</clipPath>
</defs>
</svg>
