<svg width="16" height="15" viewBox="0 0 16 15" fill="none" xmlns="http://www.w3.org/2000/svg">
<rect x="-0.615385" y="-0.365385" width="15.2308" height="15.2308" rx="7.61538" fill="#32B744"/>
<g clip-path="url(#clip0_1516_24086)">
<path fillRule="evenodd" clipRule="evenodd" d="M6.45529 8.61454C5.40204 5.70713 6.79603 2.80542 6.79603 2.80542V9.38581L6.63202 9.01458L6.63837 9.02927L6.79603 9.3864L6.79617 9.3867L6.79603 9.38669V9.38743L6.79614 9.38766L6.79603 9.38751V9.60044C3.63078 10.1307 3.11084 8.94107 3.11084 8.94107L3.12641 8.94089C3.20419 8.94005 3.28078 8.93973 3.3562 8.93991C4.56278 8.9427 5.46588 9.07141 6.04326 9.18991C5.07421 8.84476 3.49802 7.93503 3.35826 5.65029L3.35661 5.63664L3.35755 5.63841L3.35742 5.63623C3.75401 6.38412 4.3826 6.98268 5.14848 7.34171C5.9457 7.74122 6.20306 8.07766 6.45529 8.61454ZM6.7963 9.38642L6.79603 9.38583V9.38581L6.7963 9.38642ZM6.79643 9.38671L6.7963 9.38642L6.79655 9.38586V2.80542C6.79655 2.80542 8.18998 5.70596 7.13793 8.61279C7.30468 8.2579 7.47406 7.99051 7.8013 7.73443C7.9679 7.60396 8.17546 7.47642 8.44452 7.34171C9.00838 7.07738 9.49782 6.68322 9.87506 6.19522C10.0101 6.0205 10.1307 5.83376 10.2353 5.63664L10.2356 5.63623C10.1015 7.93112 8.52102 8.84391 7.54997 9.18983C8.16577 9.06325 9.15189 8.92504 10.4818 8.94019L10.4796 8.94149L10.4818 8.94151C10.4818 8.94151 9.96231 10.1309 6.79655 9.60089V9.4981V9.38683L6.79678 9.38623L6.79643 9.38671ZM6.79643 9.38671L6.79644 9.38674L6.79641 9.38673L6.79643 9.38671ZM5.738 10.4092C5.71457 10.3572 5.69887 10.3021 5.69141 10.2456C6.77764 10.6871 7.92846 10.082 7.92846 10.082C7.92049 10.1668 7.90351 10.2504 7.8778 10.3316C7.78335 10.4511 7.66598 10.5506 7.53258 10.624C7.39919 10.6975 7.25247 10.7435 7.10106 10.7594C7.30525 10.8037 7.51865 10.7674 7.69672 10.658C7.60932 10.8167 7.4775 10.9465 7.31745 11.0312C7.15741 11.116 6.97612 11.152 6.79587 11.135C6.63779 11.1424 6.48024 11.1117 6.33644 11.0455C6.19265 10.9793 6.06681 10.8795 5.96948 10.7546C6.05462 10.804 6.14875 10.8361 6.24636 10.8487C6.34398 10.8614 6.44314 10.8545 6.53806 10.8284C6.23103 10.7854 5.94834 10.6372 5.738 10.4092Z" fill="white"/>
</g>
<rect x="-0.615385" y="-0.365385" width="15.2308" height="15.2308" rx="7.61538" stroke="white" stroke-width="1.23077"/>
<defs>
<clipPath id="clip0_1516_24086">
<rect width="10" height="10" fill="white" transform="translate(2 2.25)"/>
</clipPath>
</defs>
</svg>
