<svg width="56" height="56" viewBox="0 0 56 56" fill="none" xmlns="http://www.w3.org/2000/svg">
<rect width="56" height="56" rx="12" fill="#EEF5F2"/>
<rect x="13" y="13" width="30" height="30" rx="15" fill="#32B744"/>
<g clip-path="url(#clip0_1818_69863)">
<path fillRule="evenodd" clipRule="evenodd" d="M27.9968 28.7004C28.1802 28.3791 28.2993 28.026 28.4254 27.6521L28.4257 27.6511C28.5566 27.2631 28.692 26.862 28.9071 26.4926C29.1901 26.0067 29.6068 25.6033 30.0936 25.3222V22.2696C30.0936 21.884 29.781 21.5714 29.3954 21.5714H26.6027C26.217 21.5714 25.9045 21.884 25.9045 22.2696V25.9056H22.2686C21.9335 25.9056 21.6537 26.1415 21.5859 26.4563C21.5794 26.4869 21.5748 26.5182 21.5723 26.5501C21.571 26.5679 21.5703 26.5858 21.5703 26.6039V29.3966C21.5703 29.7822 21.8829 30.0948 22.2686 30.0948H25.8763C26.7468 29.9917 27.5613 29.4633 27.9968 28.7004H27.9968ZM33.7293 25.9057H30.1002C29.791 26.1283 29.5266 26.4127 29.3349 26.742C29.145 27.0683 29.0233 27.4289 28.8946 27.8106L28.8946 27.8106C28.7664 28.1904 28.6339 28.5831 28.4268 28.9461C27.9098 29.8519 26.9389 30.4771 25.9042 30.5904V33.7309C25.9042 34.1165 26.2168 34.4291 26.6024 34.4291H29.3951C29.7808 34.4291 30.0934 34.1165 30.0934 33.7309V30.0949H33.7293C34.1149 30.0949 34.4275 29.7823 34.4275 29.3967V26.6039C34.4275 26.2183 34.1149 25.9057 33.7293 25.9057L33.7293 25.9057Z" fill="white"/>
</g>
<defs>
<clipPath id="clip0_1818_69863">
<rect width="12.8573" height="12.8574" fill="white" transform="translate(21.5703 21.5714)"/>
</clipPath>
</defs>
</svg>
