<svg width="12" height="13" viewBox="0 0 12 13" fill="none" xmlns="http://www.w3.org/2000/svg">
<path fill-rule="evenodd" clip-rule="evenodd" d="M12 5.23464C12 5.36224 11.9062 5.48275 11.8125 5.5749L9.1947 8.08436L9.81487 11.6288C9.82215 11.6784 9.82215 11.7209 9.82215 11.7705C9.82215 11.9549 9.7356 12.125 9.52642 12.125C9.42548 12.125 9.32452 12.0895 9.23798 12.0399L6 10.367L2.76202 12.0399C2.66827 12.0895 2.57452 12.125 2.47356 12.125C2.26442 12.125 2.17067 11.9549 2.17067 11.7705C2.17067 11.7209 2.17789 11.6784 2.1851 11.6288L2.80528 8.08436L0.180289 5.5749C0.09375 5.48275 0 5.36224 0 5.23464C0 5.02198 0.223558 4.93691 0.403847 4.90855L4.02404 4.39107L5.64664 1.16564C5.71154 1.03095 5.83414 0.875 6 0.875C6.16586 0.875 6.28847 1.03095 6.35336 1.16564L7.97595 4.39107L11.5961 4.90855C11.7692 4.93691 12 5.02198 12 5.23464Z" fill="#02150F"/>
</svg>
