<svg width="16" height="16" viewBox="0 0 16 16" fill="none" xmlns="http://www.w3.org/2000/svg">
<path fill-rule="evenodd" clip-rule="evenodd" d="M8.04289 0.3125H8.04288H7.95712H7.95711C6.31409 0.31249 5.02358 0.312482 4.01602 0.447945C2.98353 0.586761 2.16433 0.877036 1.52069 1.52068C0.877037 2.16433 0.586761 2.98352 0.447946 4.01602C0.312483 5.02358 0.31249 6.31409 0.3125 7.95711V7.95712V8.04288V8.04289C0.31249 9.68591 0.312483 10.9764 0.447946 11.984C0.586761 13.0165 0.877037 13.8357 1.52069 14.4793C2.16433 15.123 2.98353 15.4132 4.01602 15.5521C5.02357 15.6875 6.31405 15.6875 7.95705 15.6875H7.95712H8.04288H8.04295C9.68595 15.6875 10.9764 15.6875 11.984 15.5521C13.0165 15.4132 13.8357 15.123 14.4793 14.4793C15.123 13.8357 15.4132 13.0165 15.5521 11.984C15.6875 10.9764 15.6875 9.68595 15.6875 8.04295V8.04288V7.95712V7.95705C15.6875 6.31405 15.6875 5.02357 15.5521 4.01602C15.4132 2.98352 15.123 2.16433 14.4793 1.52068C13.8357 0.877036 13.0165 0.586761 11.984 0.447945C10.9764 0.312482 9.68591 0.31249 8.04289 0.3125ZM8.96305 4.43438C8.75138 4.00541 8.41984 3.6875 7.99894 3.6875C7.57852 3.6875 7.24595 4.00483 7.03229 4.43344L7.03201 4.434L6.32608 5.85752L6.325 5.85972C6.30353 5.90392 6.25259 5.96617 6.17632 6.02319C6.1002 6.0801 6.02658 6.11107 5.97971 6.1192L5.9793 6.11927L4.70089 6.33342C4.23841 6.41114 3.85178 6.63796 3.72677 7.03268C3.60212 7.42626 3.78562 7.83551 4.11584 8.16845L5.11054 9.17138C5.14994 9.2111 5.19407 9.28593 5.22175 9.38342C5.24924 9.48024 5.25168 9.56844 5.23921 9.62543L5.23904 9.62621L4.95472 10.8657C4.83639 11.3813 4.87745 11.892 5.24113 12.1596C5.60634 12.4283 6.10475 12.3114 6.55757 12.0404L7.75459 11.326L7.75534 11.3255C7.80899 11.2943 7.8973 11.2703 8.00094 11.2703C8.10534 11.2703 8.19184 11.2947 8.24221 11.3247L9.4416 12.0406C9.89494 12.3106 10.394 12.4296 10.7592 12.1612C11.1231 11.8937 11.1622 11.382 11.0442 10.866L10.7598 9.62621L10.7597 9.62543C10.7472 9.56844 10.7496 9.48024 10.7771 9.38342C10.8048 9.28593 10.8489 9.2111 10.8883 9.17138L11.8823 8.16918L11.8826 8.16886C12.215 7.8359 12.3991 7.42629 12.2734 7.03214C12.1477 6.63766 11.7603 6.41111 11.2981 6.33345L10.0187 6.11911C9.9695 6.11085 9.89478 6.07954 9.81848 6.02277C9.7421 5.96595 9.69129 5.90383 9.66986 5.85972L8.96305 4.43438Z" fill="#6C7774"/>
</svg>
