<svg width="19" height="19" viewBox="0 0 19 19" fill="none" xmlns="http://www.w3.org/2000/svg">
<path fill-rule="evenodd" clip-rule="evenodd" d="M13.484 1.94795C12.4764 1.81248 11.1859 1.81249 9.54288 1.8125H9.45712C7.81409 1.81249 6.52358 1.81248 5.51602 1.94795C4.48352 2.08676 3.66433 2.37704 3.02068 3.02068C2.37704 3.66433 2.08676 4.48352 1.94795 5.51602C1.81248 6.52358 1.81249 7.81409 1.8125 9.45712V9.54288C1.81249 11.1859 1.81248 12.4764 1.94795 13.484C2.08676 14.5165 2.37704 15.3357 3.02068 15.9793C3.66433 16.623 4.48352 16.9132 5.51602 17.0521C6.52357 17.1875 7.81405 17.1875 9.45705 17.1875H9.45712H9.54288H9.54295C11.1859 17.1875 12.4764 17.1875 13.484 17.0521C14.5165 16.9132 15.3357 16.623 15.9793 15.9793C16.623 15.3357 16.9132 14.5165 17.0521 13.484C17.1875 12.4764 17.1875 11.1859 17.1875 9.54295V9.54288V9.45712V9.45705C17.1875 7.81405 17.1875 6.52357 17.0521 5.51602C16.9132 4.48352 16.623 3.66433 15.9793 3.02068C15.3357 2.37704 14.5165 2.08676 13.484 1.94795ZM10.463 5.93438C10.2514 5.50541 9.91984 5.1875 9.49894 5.1875C9.07852 5.1875 8.74595 5.50483 8.53229 5.93344L8.53201 5.934L7.82608 7.35752L7.825 7.35972C7.80353 7.40392 7.75259 7.46617 7.67632 7.52319C7.6002 7.5801 7.52658 7.61107 7.47971 7.6192L7.4793 7.61927L6.20089 7.83342C5.73841 7.91114 5.35178 8.13796 5.22677 8.53268C5.10212 8.92626 5.28562 9.33551 5.61584 9.66845L6.61054 10.6714C6.64994 10.7111 6.69407 10.7859 6.72175 10.8834C6.74924 10.9802 6.75168 11.0684 6.73921 11.1254L6.73904 11.1262L6.45472 12.3657C6.33639 12.8813 6.37745 13.392 6.74113 13.6596C7.10633 13.9283 7.60475 13.8114 8.05757 13.5405L9.25459 12.826L9.25534 12.8255C9.30899 12.7943 9.3973 12.7703 9.50094 12.7703C9.60534 12.7703 9.69184 12.7947 9.74221 12.8247L10.9416 13.5406C11.3949 13.8106 11.894 13.9296 12.2592 13.6612C12.6231 13.3937 12.6622 12.882 12.5442 12.366L12.2598 11.1262L12.2597 11.1254C12.2472 11.0684 12.2496 10.9802 12.2771 10.8834C12.3048 10.7859 12.3489 10.7111 12.3883 10.6714L13.3823 9.66918L13.3826 9.66886C13.715 9.3359 13.8991 8.92629 13.7734 8.53214C13.6477 8.13766 13.2603 7.91111 12.7981 7.83345L11.5187 7.61911C11.4695 7.61085 11.3948 7.57954 11.3185 7.52277C11.2421 7.46595 11.1913 7.40383 11.1699 7.35972L10.463 5.93438Z" fill="#006835"/>
</svg>
