<svg width="16" height="16" viewBox="0 0 16 16" fill="none" xmlns="http://www.w3.org/2000/svg">
<rect x="1" y="1" width="14" height="14" rx="7" fill="#32B744"/>
<g clip-path="url(#clip0_1516_24048)">
<path fill-rule="evenodd" clip-rule="evenodd" d="M7.99902 8.32686C8.08461 8.17689 8.14019 8.01211 8.19903 7.83767L8.19919 7.83719C8.26028 7.65612 8.32344 7.46893 8.42382 7.29655C8.55588 7.06977 8.75037 6.88153 8.97755 6.75036V5.32582C8.97755 5.14588 8.83167 5 8.65173 5H7.34845C7.16847 5 7.0226 5.14588 7.0226 5.32582V7.02261H5.32585C5.14587 7.02261 5 7.16849 5 7.34847V8.65173C5 8.83168 5.14587 8.97758 5.32585 8.97758H7.00948C7.41571 8.92947 7.7958 8.6829 7.99902 8.32686H7.99902ZM10.6742 7.0226H8.98057C8.83627 7.12647 8.7129 7.25923 8.62342 7.41286C8.53478 7.56516 8.47799 7.73343 8.41793 7.91154L8.41793 7.91155C8.35813 8.08879 8.29631 8.27205 8.19962 8.44147C7.95838 8.86416 7.50528 9.15591 7.02242 9.20879V10.6744C7.02242 10.8543 7.1683 11.0002 7.34825 11.0002H8.65153C8.8315 11.0002 8.97738 10.8543 8.97738 10.6744V8.97758H10.6741C10.8541 8.97758 11 8.8317 11 8.65173V7.34846C11 7.16849 10.8541 7.02261 10.6741 7.02261L10.6742 7.0226Z" fill="white"/>
</g>
<rect x="1" y="1" width="14" height="14" rx="7" stroke="white" stroke-width="2"/>
<defs>
<clipPath id="clip0_1516_24048">
<rect width="6.00007" height="6.00012" fill="white" transform="translate(5 5)"/>
</clipPath>
</defs>
</svg>
