<svg width="32" height="32" viewBox="0 0 32 32" fill="none" xmlns="http://www.w3.org/2000/svg">
<path fillRule="evenodd" clipRule="evenodd" d="M1.66699 15.9998C1.66699 23.9159 8.08424 30.3332 16.0003 30.3332C23.9164 30.3332 30.3337 23.9159 30.3337 15.9998C30.3337 8.08376 23.9164 1.6665 16.0003 1.6665C8.08424 1.6665 1.66699 8.08376 1.66699 15.9998ZM22.2346 11.017C22.7775 11.5146 22.8141 12.358 22.3165 12.9008L14.9832 20.9008C14.7375 21.1689 14.3929 21.325 14.0293 21.3329C13.6657 21.3408 13.3147 21.1998 13.0575 20.9427L9.72418 17.6093C9.20348 17.0886 9.20348 16.2444 9.72418 15.7237C10.2449 15.203 11.0891 15.203 11.6098 15.7237L13.9584 18.0723L20.3508 11.0989C20.8484 10.5561 21.6918 10.5194 22.2346 11.017Z" fill="#006835"/>
</svg>
