<svg width="22" height="22" viewBox="0 0 22 22" fill="none" xmlns="http://www.w3.org/2000/svg">
<path fill-rule="evenodd" clip-rule="evenodd" d="M12.9239 0.524261C10.6095 -0.0154237 8.18048 0.243051 6.03168 1.25772C3.88286 2.27239 2.14057 3.98365 1.08827 6.11342C0.0359565 8.2432 -0.264395 10.6661 0.236114 12.9882C0.736622 15.3102 2.0085 17.3946 3.84475 18.9026C5.68098 20.4105 7.97359 21.2533 10.3498 21.2942C11.0431 21.3061 11.5336 21.3186 11.9817 21.3301H11.9817C12.8916 21.3534 13.627 21.3722 15.5313 21.3722C16.1338 21.3722 16.6222 20.8837 16.6222 20.2812C16.6222 19.6788 16.1338 19.1903 15.5313 19.1903C13.6536 19.1903 12.9533 19.1724 12.0585 19.1494C11.6086 19.1379 11.1097 19.1251 10.3873 19.1127C8.50298 19.0803 6.68518 18.4119 5.22942 17.2165C3.77367 16.021 2.76561 14.3687 2.36895 12.5285C1.97229 10.6882 2.2103 8.76794 3.04434 7.0799C3.8784 5.39184 5.25952 4.03516 6.96329 3.23064C8.66709 2.42611 10.5932 2.22112 12.4284 2.64907C14.2637 3.07702 15.8999 4.11268 17.0711 5.58746C18.2423 7.06219 18.8797 8.88932 18.8798 10.7717V10.7718V11.715C18.8798 12.1759 18.6966 12.6181 18.3702 12.9442C18.0438 13.2704 17.6008 13.4538 17.1388 13.4538C16.6767 13.4538 16.2338 13.2704 15.9074 12.9442C15.5809 12.6181 15.3977 12.1759 15.3977 11.715V6.99874C15.3977 6.39625 14.9093 5.90784 14.3068 5.90784C13.8227 5.90784 13.4122 6.22321 13.2696 6.65973C12.5112 6.12189 11.5783 5.80362 10.5307 5.80362C7.78143 5.80362 5.55274 8.03232 5.55274 10.7816C5.55274 13.5308 7.78143 15.7595 10.5307 15.7595C11.9912 15.7595 13.229 15.1415 14.0819 14.1721C14.1701 14.2818 14.2647 14.3872 14.3652 14.4876C15.1009 15.2228 16.0986 15.6356 17.1388 15.6356C18.1789 15.6356 19.1766 15.2228 19.9124 14.4876C20.6482 13.7524 21.0617 12.7551 21.0617 11.715V10.7717V10.7717C21.0615 8.39634 20.2572 6.09103 18.7797 4.23056C17.3021 2.37011 15.2383 1.06395 12.9239 0.524261ZM7.73455 10.7816C7.73455 9.2373 8.98642 7.98544 10.5307 7.98544C12.009 7.98544 13.1505 9.17058 13.1505 10.7829C13.1505 12.3943 12.01 13.5777 10.5307 13.5777C8.98642 13.5777 7.73455 12.3258 7.73455 10.7816Z" fill="#02150F"/>
</svg>
