<svg width="18" height="18" viewBox="0 0 18 18" fill="none" xmlns="http://www.w3.org/2000/svg">
<path d="M3.507 10.987C5.8944 9.58766 8.91839 9.58766 11.3058 10.987C11.3814 11.0313 11.4755 11.0836 11.5827 11.1431C12.0571 11.4064 12.7861 11.8111 13.2851 12.2919C13.5967 12.5922 13.9039 12.9977 13.96 13.5028C14.0201 14.0439 13.7783 14.5433 13.3161 14.9768C12.5285 15.7154 11.5776 16.3125 10.3458 16.3125H4.46697C3.23522 16.3125 2.28428 15.7154 1.49671 14.9768C1.03447 14.5433 0.792712 14.0439 0.852804 13.5028C0.908883 12.9977 1.21605 12.5922 1.52766 12.2919C2.02671 11.8111 2.75564 11.4064 3.23012 11.1431C3.33723 11.0836 3.4314 11.0313 3.507 10.987Z" fill="#02150F"/>
<path d="M3.84389 5.25C3.84389 3.28249 5.43888 1.6875 7.40639 1.6875C9.37391 1.6875 10.9689 3.28249 10.9689 5.25C10.9689 7.21751 9.37391 8.8125 7.40639 8.8125C5.43888 8.8125 3.84389 7.21751 3.84389 5.25Z" fill="#02150F"/>
<path fill-rule="evenodd" clip-rule="evenodd" d="M14.5312 2.25C14.9455 2.25 15.2812 2.58579 15.2812 3V4.125H16.4062C16.8205 4.125 17.1562 4.46079 17.1562 4.875C17.1562 5.28921 16.8205 5.625 16.4062 5.625H15.2812V6.75C15.2812 7.16421 14.9455 7.5 14.5312 7.5C14.117 7.5 13.7812 7.16421 13.7812 6.75V5.625H12.6562C12.242 5.625 11.9062 5.28921 11.9062 4.875C11.9062 4.46079 12.242 4.125 12.6562 4.125L13.7812 4.125V3C13.7812 2.58579 14.117 2.25 14.5312 2.25Z" fill="#02150F"/>
</svg>
