<svg width="16" height="16" viewBox="0 0 16 16" fill="none" xmlns="http://www.w3.org/2000/svg">
<path fillRule="evenodd" clipRule="evenodd" d="M7.73936 0.360771C7.82502 0.312115 7.92892 0.311822 8.13671 0.311236L8.2911 0.31078C9.02723 0.308556 9.76429 0.30633 10.4998 0.334196C10.8259 0.346552 10.9889 0.352731 11.05 0.465929C11.111 0.579127 11.0254 0.72066 10.8541 1.00373L9.10949 3.88774C9.00257 4.06448 8.94911 4.15286 8.86337 4.2012C8.77763 4.24954 8.67435 4.24954 8.46778 4.24954H5.8795C5.64458 4.24954 5.52713 4.24954 5.48404 4.17344C5.44096 4.09735 5.50139 3.99663 5.62225 3.79519L7.49375 0.676026L7.49375 0.676019C7.60039 0.498292 7.65371 0.409427 7.73936 0.360771ZM5.81802 0.402624C5.77252 0.326034 5.65374 0.330448 5.41617 0.339276C4.89778 0.358541 4.4327 0.391393 4.01602 0.447415C2.98352 0.58623 2.16433 0.876506 1.52069 1.52015C0.87348 2.16736 0.593343 3.03414 0.46212 3.91745C0.439538 4.06946 0.428247 4.14547 0.473124 4.1975C0.518001 4.24954 0.596754 4.24954 0.754258 4.24954H3.19806H3.19807C3.40655 4.24954 3.51079 4.24954 3.59705 4.20043C3.68331 4.15133 3.73653 4.0617 3.84296 3.88243L5.68011 0.788144C5.80239 0.582191 5.86352 0.479214 5.81802 0.402624ZM13.3783 0.794835C13.149 0.700449 13.0343 0.653256 12.9032 0.695897C12.772 0.738539 12.6992 0.856896 12.5535 1.09361L10.8928 3.79231C10.7682 3.99469 10.706 4.09588 10.7489 4.17271C10.7918 4.24954 10.9106 4.24954 11.1483 4.24954H15.2457C15.4032 4.24954 15.482 4.24954 15.5269 4.1975C15.5718 4.14547 15.5605 4.06946 15.5379 3.91745C15.4067 3.03415 15.1265 2.16736 14.4793 1.52015C14.1577 1.19856 13.7923 0.965181 13.3783 0.794835ZM15.5887 5.83611C15.6764 5.92269 15.6781 6.05982 15.6814 6.33409C15.6875 6.83237 15.6875 7.37209 15.6875 7.95641V7.95647V7.95653V7.95659V8.04237C15.6875 9.68539 15.6875 10.9759 15.5521 11.9835C15.4132 13.0159 15.123 13.8351 14.4793 14.4788C13.8357 15.1224 13.0165 15.4127 11.984 15.5515C10.9764 15.687 9.6859 15.687 8.04288 15.687H7.9571C6.31408 15.687 5.02358 15.687 4.01602 15.5515C2.98352 15.4127 2.16433 15.1224 1.52069 14.4788C0.877037 13.8351 0.586761 13.0159 0.447946 11.9835C0.312483 10.9759 0.31249 9.68538 0.3125 8.04235V8.04235V7.95658V7.95654C0.312497 7.37217 0.312494 6.8324 0.318586 6.33409C0.321939 6.05982 0.323616 5.92269 0.411256 5.83611C0.498896 5.74954 0.637288 5.74954 0.914072 5.74954H15.0859C15.3627 5.74954 15.5011 5.74954 15.5887 5.83611ZM8.49043 11.6376C9.56429 10.9733 10.1012 10.6412 10.2148 10.1711C10.2617 9.97707 10.2617 9.77293 10.2148 9.57891C10.1012 9.10885 9.56429 8.77669 8.49042 8.11237C7.4523 7.47018 6.93324 7.14908 6.51495 7.27815C6.34201 7.33151 6.18444 7.43286 6.05736 7.57246C5.75 7.91013 5.75 8.56509 5.75 9.875C5.75 11.1849 5.75 11.8399 6.05736 12.1775C6.18444 12.3171 6.34201 12.4185 6.51495 12.4719C6.93324 12.6009 7.4523 12.2798 8.49042 11.6376L8.49043 11.6376Z" fill="#6C7774"/>
</svg>
